{
.appVersion = "1352";
copyright = "Copyright 2020 The Angkor Project Authors (https://github.com/danhhong/Angkor)";
customParameters = (
{
name = fsType;
value = (
);
},
{
name = "Use Typo Metrics";
value = 1;
},
{
name = license;
value = "This Font Software is licensed under the SIL Open Font License, Version 1.1. This license is available with a FAQ at: https://scripts.sil.org/OFL";
},
{
name = licenseURL;
value = "https://scripts.sil.org/OFL";
}
);
date = "2020-02-19 02:17:00 +0000";
designer = "Danh Hong";
designerURL = "http://www.nextspell.com";
disablesAutomaticAlignment = 1;
disablesNiceNames = 1;
familyName = Angkor;
featurePrefixes = (
{
code = "lookup lookup_0 {\012sub uni17B7 by uni17B7.r;\012sub uni17B8 by uni17B8.r;\012sub uni17B9 by uni17B9.r;\012sub uni17BA by uni17BA.r;\012sub uni17C6 by uni17C6.r;\012sub uni17C9 by uni17C9.r;\012sub uni17CD by uni17CD.r;\012sub uni17B7_17CD by iMark_17CDkhmer.r;\012} lookup_0;\012";
name = lookup_0;
},
{
code = "lookup lookup_1 {\012sub uni17BB by uni17BB.b;\012sub uni17BC by uni17BC.b;\012sub uni17BD by uni17BD.b;\012} lookup_1;\012";
name = lookup_1;
},
{
code = "lookup lookup_10 {\012sub uni17D2_1798 by coeng_1798khmer.b;\012sub uni17D2_17A0 by coeng_17A0khmer.b;\012} lookup_10;\012";
name = lookup_10;
},
{
code = "lookup lookup_11 {\012sub uni1794 by uni1794.a;\012} lookup_11;\012";
name = lookup_11;
},
{
code = "lookup lookup_12 {\012sub uni17D2179A by uni17D2179A.b;\012} lookup_12;\012";
name = lookup_12;
},
{
code = "lookup lookup_13 {\012sub uni17B7 by uni17B7.a;\012sub uni17B8 by uni17B8.a;\012sub uni17B9 by uni17B9.a;\012sub uni17BA by uni17BA.a;\012sub uni17BE by uni17B8.a;\012sub uni17C6 by uni17C6.a;\012} lookup_13;\012";
name = lookup_13;
},
{
code = "lookup lookup_14 {\012sub uni1789 by uni1789.a;\012} lookup_14;\012";
name = lookup_14;
},
{
code = "lookup lookup_15 {\012sub uni17BF by uni17BF.b;\012sub uni17C0 by uni17C0.b;\012} lookup_15;\012";
name = lookup_15;
},
{

glyphs = (
{
glyphname = A;
lastChange = "2021-04-16 09:15:24 +0000";
layers = (
{
layerId = "246EC62F-25D4-447A-A2A1-FEFF923DA7D2";
paths = (
{
closed = 1;
nodes = (
"544 352 LINE",
"589 522 LINE",
"950 522 LINE",
"993 352 LINE",
"863 352 LINE",
"863 0 LINE",
"1758 0 LINE",
"1758 352 LINE",
"1601 352 LINE",
"1246 1591 LINE",
"255 1591 LINE",
"255 1239 LINE",
"464 1239 LINE",
"190 352 LINE",
"32 352 LINE",
"32 0 LINE",
"734 0 LINE",
"734 352 LINE"
);
},
{
closed = 1;
nodes = (
"640 764 LINE",
"786 1251 LINE",
"902 764 LINE"
);
}
);
width = 1759;
}
);
note = A;
unicode = 0041;
},
{
glyphname = B;
lastChange = "2021-04-16 09:15:24 +0000";
layers = (
{
layerId = "246EC62F-25D4-447A-A2A1-FEFF923DA7D2";
paths = (
{
closed = 1;
nodes = (
"1348 0 OFFCURVE",
"1568 153 OFFCURVE",
"1568 424 CURVE SMOOTH",
"1568 645 OFFCURVE",
"1481 760 OFFCURVE",
"1296 840 CURVE",
"1437 892 OFFCURVE",
"1540 1015 OFFCURVE",
"1540 1174 CURVE SMOOTH",
"1540 1399 OFFCURVE",
"1424 1517 OFFCURVE",
"1241 1561 CURVE SMOOTH",
"1149 1582 OFFCURVE",
"1036 1593 OFFCURVE",
"903 1593 CURVE SMOOTH",
"90 1593 LINE",
"90 1239 LINE",
"256 1239 LINE",
"256 352 LINE",
"63 352 LINE",
"63 0 LINE",
"960 0 LINE SMOOTH"
);
},
{
closed = 1;
nodes = (
"909 1239 LINE SMOOTH",
"990 1239 OFFCURVE",
"1046 1183 OFFCURVE",
"1046 1102 CURVE SMOOTH",
"1046 985 OFFCURVE",
"975 950 OFFCURVE",
"823 950 CURVE SMOOTH",
"768 950 LINE",
"768 1239 LINE"
);
},
{
closed = 1;
nodes = (
"797 689 OFFCURVE",
"826 690 OFFCURVE",
"856 690 CURVE SMOOTH",
"989 690 OFFCURVE",
"1056 635 OFFCURVE",
"1056 526 CURVE SMOOTH",
"1056 385 OFFCURVE",
"965 352 OFFCURVE",
"804 352 CURVE SMOOTH",
"768 352 LINE",
"768 688 LINE"
);
}
);
width = 1683;
}
);
note = B;
unicode = 0042;
},
{
glyphname = C;
lastChange = "2021-04-16 09:15:24 +0000";
layers = (
{
layerId = "246EC62F-25D4-447A-A2A1-FEFF923DA7D2";
paths = (
{
closed = 1;
nodes = (
"1083 -29 OFFCURVE",
"1270 5 OFFCURVE",
"1439 102 CURVE",
"1439 528 LINE",
"1417 547 LINE",
"1326 484 OFFCURVE",
"1179 418 OFFCURVE",
"1015 418 CURVE SMOOTH",
"783 418 OFFCURVE",
"641 578 OFFCURVE",
"641 846 CURVE SMOOTH",
"641 982 OFFCURVE",
"693 1121 OFFCURVE",
"779 1201 CURVE SMOOTH",
"822 1240 OFFCURVE",
"869 1260 OFFCURVE",
"921 1260 CURVE SMOOTH",
"1074 1260 OFFCURVE",
"1153 1140 OFFCURVE",
"1153 971 CURVE SMOOTH",
"1153 938 LINE",
"1472 938 LINE",
"1472 1591 LINE",
"1161 1591 LINE",
"1120 1430 LINE",
"1065 1541 OFFCURVE",
"933 1622 OFFCURVE",
"778 1622 CURVE SMOOTH",
"474 1622 OFFCURVE",
"257 1467 OFFCURVE",
"146 1220 CURVE SMOOTH",
"91 1096 OFFCURVE",
"63 958 OFFCURVE",
"63 805 CURVE SMOOTH",
"63 441 OFFCURVE",
"221 189 OFFCURVE",
"466 65 CURVE SMOOTH",
"588 2 OFFCURVE",
"723 -29 OFFCURVE",
"870 -29 CURVE SMOOTH"
);
}
);
width = 1546;
}
);
note = C;
unicode = 0043;
},
{
glyphname = D;
lastChange = "2021-04-16 09:15:24 +0000";
layers = (
{
layerId = "246EC62F-25D4-447A-A2A1-FEFF923DA7D2";
paths = (
{
closed = 1;
nodes = (
"1383 0 OFFCURVE",
"1695 286 OFFCURVE",
"1695 797 CURVE SMOOTH",
"1695 1321 OFFCURVE",
"1379 1591 OFFCURVE",
"800 1591 CURVE SMOOTH",
"63 1591 LINE",
"63 1239 LINE",
"223 1239 LINE",
"223 352 LINE",
"63 352 LINE",
"63 0 LINE",
"798 0 LINE SMOOTH"
);
},
{
closed = 1;
nodes = (
"798 1239 LINE SMOOTH",
"1025 1239 OFFCURVE",
"1120 1058 OFFCURVE",
"1120 797 CURVE SMOOTH",
"1120 540 OFFCURVE",
"1022 352 OFFCURVE",
"798 352 CURVE SMOOTH",
"735 352 LINE",
"735 1239 LINE"
);
}
);
width = 1804;
}
);
note = D;
unicode = 0044;
},
{
glyphname = E;
lastChange = "2021-04-16 09:15:24 +0000";
layers = (
{
layerId = "246EC62F-25D4-447A-A2A1-FEFF923DA7D2";
paths = (
{
closed = 1;
nodes = (
"1183 678 LINE",
"1087 352 LINE",
"801 352 LINE",
"801 717 LINE",
"1057 717 LINE",
"1057 979 LINE",
"801 979 LINE",
"801 1239 LINE",
"1087 1239 LINE",
"1183 958 LINE",
"1439 958 LINE",
"1439 1591 LINE",
"96 1591 LINE",
"96 1239 LINE",
"289 1239 LINE",
"289 352 LINE",
"96 352 LINE",
"96 0 LINE",
"1439 0 LINE",
"1439 678 LINE"
);
}
);
width = 1449;
}
);
note = E;
unicode = 0045;
},
{
glyphname = F;
lastChange = "2021-04-16 09:15:24 +0000";
layers = (
{
layerId = "246EC62F-25D4-447A-A2A1-FEFF923DA7D2";
paths = (
{
closed = 1;
nodes = (
"801 352 LINE",
"801 682 LINE",
"1024 682 LINE",
"1024 938 LINE",
"801 938 LINE",
"801 1239 LINE",
"1057 1239 LINE",
"1120 948 LINE",
"1409 948 LINE",
"1409 1591 LINE",
"96 1591 LINE",
"96 1239 LINE",
"289 1239 LINE",
"289 352 LINE",
"96 352 LINE",
"96 0 LINE",
"991 0 LINE",
"991 352 LINE"
);
}
);
width = 1433;
}
);
note = F;
unicode = 0046;
},
{
glyphname = G;
lastChange = "2021-04-16 09:15:24 +0000";
layers = (
{
layerId = "246EC62F-25D4-447A-A2A1-FEFF923DA7D2";
paths = (
{
closed = 1;
nodes = (
"1184 -29 OFFCURVE",
"1427 30 OFFCURVE",
"1632 139 CURVE",
"1632 854 LINE",
"991 854 LINE",
"991 557 LINE",
"1183 557 LINE",
"1183 416 LINE",
"1170 413 OFFCURVE",
"1124 395 OFFCURVE",
"1079 387 CURVE SMOOTH",
"1050 382 OFFCURVE",
"1022 379 OFFCURVE",
"993 379 CURVE SMOOTH",
"769 379 OFFCURVE",
"641 545 OFFCURVE",
"641 821 CURVE SMOOTH",
"641 1094 OFFCURVE",
"774 1260 OFFCURVE",
"987 1260 CURVE SMOOTH",
"1115 1260 OFFCURVE",
"1249 1172 OFFCURVE",
"1290 1004 CURVE",
"1599 1004 LINE",
"1599 1591 LINE",
"1253 1591 LINE",
"1220 1485 LINE",
"1144 1574 OFFCURVE",
"1001 1622 OFFCURVE",
"862 1622 CURVE SMOOTH",
"534 1622 OFFCURVE",
"285 1476 OFFCURVE",
"158 1233 CURVE SMOOTH",
"95 1112 OFFCURVE",
"63 974 OFFCURVE",
"63 821 CURVE SMOOTH",
"63 436 OFFCURVE",
"238 182 OFFCURVE",
"507 62 CURVE SMOOTH",
"641 1 OFFCURVE",
"789 -29 OFFCURVE",
"952 -29 CURVE SMOOTH"
);
}
);
width = 1722;
}
);
note = G;
unicode = 0047;
},
{
glyphname = H;
lastChange = "2021-04-16 09:15:24 +0000";
layers = (
{
layerId = "246EC62F-25D4-447A-A2A1-FEFF923DA7D2";
paths = (
{
closed = 1;
nodes = (
"745 352 LINE",
"745 635 LINE",
"1128 635 LINE",
"1128 352 LINE",
"1001 352 LINE",
"1001 0 LINE",
"1799 0 LINE",
"1799 352 LINE",
"1640 352 LINE",
"1640 1239 LINE",
"1799 1239 LINE",
"1799 1591 LINE",
"1001 1593 LINE",
"1001 1239 LINE",
"1128 1239 LINE",
"1128 977 LINE",
"745 977 LINE",
"745 1239 LINE",
"872 1239 LINE",
"872 1593 LINE",
"73 1591 LINE",
"73 1239 LINE",
"233 1239 LINE",
"233 352 LINE",
"73 352 LINE",
"73 0 LINE",
"872 0 LINE",
"872 352 LINE"
);
}
);
width = 1873;
}
);
note = H;
unicode = 0048;
},
{
glyphname = I;
lastChange = "2021-04-16 09:15:24 +0000";
layers = (
{
layerId = "246EC62F-25D4-447A-A2A1-FEFF923DA7D2";
paths = (
{
closed = 1;
nodes = (
"801 352 LINE",
"801 1239 LINE",
"960 1239 LINE",
"960 1591 LINE",
"129 1591 LINE",
"129 1239 LINE",
"289 1239 LINE",
"289 352 LINE",
"129 352 LINE",
"129 0 LINE",
"960 0 LINE",
"960 352 LINE"
);
}
);
width = 1028;
}
);
note = I;
unicode = 0049;
},
{
glyphname = J;
lastChange = "2021-04-16 09:15:24 +0000";
layers = (
{
layerId = "246EC62F-25D4-447A-A2A1-FEFF923DA7D2";
paths = (
{
closed = 1;
nodes = (
"963 -31 OFFCURVE",
"1153 167 OFFCURVE",
"1153 475 CURVE SMOOTH",
"1153 1239 LINE",
"1312 1239 LINE",
"1312 1593 LINE",
"448 1593 LINE",
"448 1239 LINE",
"641 1239 LINE",
"641 571 LINE SMOOTH",
"641 454 OFFCURVE",
"580 352 OFFCURVE",
"487 352 CURVE SMOOTH",
"378 352 OFFCURVE",
"352 438 OFFCURVE",
"352 633 CURVE",
"63 633 LINE",
"63 -12 LINE",
"331 -12 LINE",
"368 98 LINE",
"431 22 OFFCURVE",
"530 -31 OFFCURVE",
"655 -31 CURVE SMOOTH"
);
}
);
width = 1368;
}
);
note = J;
unicode = 004A;
},
{
glyphname = K;
lastChange = "2021-04-16 09:15:24 +0000";
layers = (
{
layerId = "246EC62F-25D4-447A-A2A1-FEFF923DA7D2";
paths = (
{
closed = 1;
nodes = (
"960 352 LINE",
"801 352 LINE",
"801 631 LINE",
"946 631 LINE SMOOTH",
"1006 631 OFFCURVE",
"1057 549 OFFCURVE",
"1057 481 CURVE SMOOTH",
"1057 307 LINE SMOOTH",
"1057 102 OFFCURVE",
"1169 0 OFFCURVE",
"1393 0 CURVE SMOOTH",
"1759 0 LINE",
"1759 352 LINE",
"1645 352 LINE SMOOTH",
"1604 352 OFFCURVE",
"1579 389 OFFCURVE",
"1579 430 CURVE SMOOTH",
"1579 592 LINE SMOOTH",
"1579 775 OFFCURVE",
"1449 840 OFFCURVE",
"1233 840 CURVE",
"1233 854 LINE",
"1550 1239 LINE",
"1688 1239 LINE",
"1688 1591 LINE",
"1065 1591 LINE",
"1065 1239 LINE",
"801 877 LINE",
"801 1239 LINE",
"928 1239 LINE",
"928 1591 LINE",
"129 1591 LINE",
"129 1239 LINE",
"289 1239 LINE",
"289 352 LINE",
"129 352 LINE",
"129 0 LINE",
"960 0 LINE"
);
}
);
width = 1814;
}
);
note = K;
unicode = 004B;
},
{
glyphname = L;
lastChange = "2021-04-16 09:15:24 +0000";
layers = (
{
layerId = "246EC62F-25D4-447A-A2A1-FEFF923DA7D2";
paths = (
{
closed = 1;
nodes = (
"1153 709 LINE",
"1057 358 LINE",
"801 358 LINE",
"801 1239 LINE",
"960 1239 LINE",
"960 1591 LINE",
"129 1591 LINE",
"129 1239 LINE",
"289 1239 LINE",
"289 358 LINE",
"129 358 LINE",
"129 0 LINE",
"1407 0 LINE",
"1407 709 LINE"
);
}
);
width = 1435;
}
);
note = L;
unicode = 004C;
},
{
glyphname = M;
lastChange = "2021-04-16 09:15:24 +0000";
layers = (
{
layerId = "246EC62F-25D4-447A-A2A1-FEFF923DA7D2";
paths = (
{
closed = 1;
nodes = (
"575 352 LINE",
"575 969 LINE",
"991 0 LINE",
"1280 0 LINE",
"1632 946 LINE",
"1632 352 LINE",
"1503 352 LINE",
"1503 0 LINE",
"2336 0 LINE",
"2336 352 LINE",
"2144 352 LINE",
"2144 1239 LINE",
"2336 1239 LINE",
"2336 1591 LINE",
"1536 1591 LINE",
"1230 825 LINE",
"921 1591 LINE",
"63 1591 LINE",
"63 1239 LINE",
"256 1239 LINE",
"256 352 LINE",
"63 352 LINE",
"63 0 LINE",
"735 0 LINE",
"735 352 LINE"
);
}
);
width = 2371;
}
);
note = M;
unicode = 004D;
},
{
glyphname = N;
lastChange = "2021-04-16 09:15:24 +0000";
layers = (
{
layerId = "246EC62F-25D4-447A-A2A1-FEFF923DA7D2";
paths = (
{
closed = 1;
nodes = (
"558 358 LINE",
"558 879 LINE",
"1031 0 LINE",
"1637 0 LINE",
"1637 1239 LINE",
"1795 1239 LINE",
"1795 1591 LINE",
"1158 1591 LINE",
"1158 1239 LINE",
"1318 1239 LINE",
"1318 647 LINE",
"820 1593 LINE",
"85 1593 LINE",
"85 1241 LINE",
"243 1241 LINE",
"243 358 LINE",
"81 358 LINE",
"81 0 LINE",
"718 0 LINE",
"718 358 LINE"
);
}
);
width = 1851;
}
);
note = N;
unicode = 004E;
},
{
glyphname = O;
lastChange = "2021-04-16 09:15:24 +0000";
layers = (
{
layerId = "246EC62F-25D4-447A-A2A1-FEFF923DA7D2";
paths = (
{
closed = 1;
nodes = (
"1197 -29 OFFCURVE",
"1445 122 OFFCURVE",
"1571 372 CURVE SMOOTH",
"1634 497 OFFCURVE",
"1665 639 OFFCURVE",
"1665 799 CURVE SMOOTH",
"1665 1130 OFFCURVE",
"1536 1385 OFFCURVE",
"1296 1521 CURVE SMOOTH",
"1176 1588 OFFCURVE",
"1032 1622 OFFCURVE",
"864 1622 CURVE SMOOTH",
"528 1622 OFFCURVE",
"282 1481 OFFCURVE",
"157 1233 CURVE SMOOTH",
"94 1109 OFFCURVE",
"63 964 OFFCURVE",
"63 799 CURVE SMOOTH",
"63 479 OFFCURVE",
"191 220 OFFCURVE",
"433 78 CURVE SMOOTH",
"554 7 OFFCURVE",
"697 -29 OFFCURVE",
"864 -29 CURVE SMOOTH"
);
},
{
closed = 1;
nodes = (
"719 326 OFFCURVE",
"641 515 OFFCURVE",
"641 807 CURVE SMOOTH",
"641 1091 OFFCURVE",
"713 1268 OFFCURVE",
"864 1268 CURVE SMOOTH",
"1013 1268 OFFCURVE",
"1087 1091 OFFCURVE",
"1087 807 CURVE SMOOTH",
"1087 515 OFFCURVE",
"1008 326 OFFCURVE",
"864 326 CURVE SMOOTH"
);
}
);
width = 1779;
}
);
note = O;
unicode = 004F;
},
{
glyphname = P;
lastChange = "2021-04-16 09:15:24 +0000";
layers = (
{
layerId = "246EC62F-25D4-447A-A2A1-FEFF923DA7D2";
paths = (
{
closed = 1;
nodes = (
"941 358 LINE",
"796 358 LINE",
"796 569 LINE",
"841 562 OFFCURVE",
"890 559 OFFCURVE",
"945 559 CURVE SMOOTH",
"1388 559 OFFCURVE",
"1609 725 OFFCURVE",
"1609 1133 CURVE SMOOTH",
"1609 1482 OFFCURVE",
"1328 1593 OFFCURVE",
"937 1593 CURVE SMOOTH",
"85 1593 LINE",
"85 1239 LINE",
"237 1239 LINE",
"237 358 LINE",
"81 358 LINE",
"81 0 LINE",
"941 0 LINE"
);
},
{
closed = 1;
nodes = (
"882 1239 LINE SMOOTH",
"994 1239 OFFCURVE",
"1066 1184 OFFCURVE",
"1066 1085 CURVE SMOOTH",
"1066 952 OFFCURVE",
"990 885 OFFCURVE",
"839 885 CURVE SMOOTH",
"798 885 LINE",
"798 1239 LINE"
);
}
);
width = 1681;
}
);
note = P;
unicode = 0050;
},
{
glyphname = Q;
lastChange = "2021-04-16 09:15:24 +0000";
layers = (
{
layerId = "246EC62F-25D4-447A-A2A1-FEFF923DA7D2";
paths = (
{
closed = 1;
nodes = (
"967 -29 OFFCURVE",
"1045 -19 OFFCURVE",
"1122 0 CURVE",
"1759 0 LINE",
"1759 360 LINE",
"1597 360 LINE",
"1593 358 LINE",
"1669 488 OFFCURVE",
"1707 635 OFFCURVE",
"1707 799 CURVE SMOOTH",
"1707 1126 OFFCURVE",
"1569 1383 OFFCURVE",
"1323 1520 CURVE SMOOTH",
"1200 1588 OFFCURVE",
"1055 1622 OFFCURVE",
"888 1622 CURVE SMOOTH",
"555 1622 OFFCURVE",
"302 1479 OFFCURVE",
"168 1231 CURVE SMOOTH",
"101 1106 OFFCURVE",
"67 962 OFFCURVE",
"67 799 CURVE SMOOTH",
"67 484 OFFCURVE",
"216 222 OFFCURVE",
"465 79 CURVE SMOOTH",
"589 7 OFFCURVE",
"730 -29 OFFCURVE",
"888 -29 CURVE SMOOTH"
);
},
{
closed = 1;
nodes = (
"747 317 OFFCURVE",
"667 539 OFFCURVE",
"667 807 CURVE SMOOTH",
"667 1060 OFFCURVE",
"741 1260 OFFCURVE",
"888 1260 CURVE SMOOTH",
"1033 1260 OFFCURVE",
"1107 1060 OFFCURVE",
"1107 807 CURVE SMOOTH",
"1107 539 OFFCURVE",
"1028 317 OFFCURVE",
"888 317 CURVE SMOOTH"
);
}
);
width = 1835;
}
);
note = Q;
unicode = 0051;
},
{
glyphname = R;
lastChange = "2021-04-16 09:15:24 +0000";
layers = (
{
layerId = "246EC62F-25D4-447A-A2A1-FEFF923DA7D2";
paths = (
{
closed = 1;
nodes = (
"960 352 LINE",
"801 352 LINE",
"801 682 LINE",
"922 682 LINE SMOOTH",
"1063 682 OFFCURVE",
"1108 604 OFFCURVE",
"1108 440 CURVE SMOOTH",
"1108 297 OFFCURVE",
"1120 194 OFFCURVE",
"1144 133 CURVE SMOOTH",
"1192 10 OFFCURVE",
"1263 0 OFFCURVE",
"1470 0 CURVE SMOOTH",
"1792 0 LINE",
"1792 358 LINE",
"1569 358 LINE",
"1569 487 LINE SMOOTH",
"1569 656 OFFCURVE",
"1490 776 OFFCURVE",
"1298 807 CURVE",
"1511 846 OFFCURVE",
"1632 952 OFFCURVE",
"1632 1159 CURVE SMOOTH",
"1632 1468 OFFCURVE",
"1482 1591 OFFCURVE",
"1151 1591 CURVE SMOOTH",
"129 1591 LINE",
"129 1239 LINE",
"289 1239 LINE",
"289 352 LINE",
"129 352 LINE",
"129 0 LINE",
"960 0 LINE"
);
},
{
closed = 1;
nodes = (
"958 1239 LINE SMOOTH",
"1073 1239 OFFCURVE",
"1153 1181 OFFCURVE",
"1153 1085 CURVE SMOOTH",
"1153 954 OFFCURVE",
"1083 909 OFFCURVE",
"938 909 CURVE SMOOTH",
"801 909 LINE",
"801 1239 LINE"
);
}
);
width = 1779;
}
);
note = R;
unicode = 0052;
},
{
glyphname = S;
lastChange = "2021-04-16 09:15:24 +0000";
layers = (
{
layerId = "246EC62F-25D4-447A-A2A1-FEFF923DA7D2";
paths = (
{
closed = 1;
nodes = (
"1024 -29 OFFCURVE",
"1184 71 OFFCURVE",
"1268 232 CURVE SMOOTH",
"1309 312 OFFCURVE",
"1330 402 OFFCURVE",
"1330 502 CURVE SMOOTH",
"1330 737 OFFCURVE",
"1222 881 OFFCURVE",
"1057 962 CURVE SMOOTH",
"974 1002 OFFCURVE",
"874 1036 OFFCURVE",
"755 1063 CURVE SMOOTH",
"688 1078 OFFCURVE",
"637 1094 OFFCURVE",
"601 1111 CURVE SMOOTH",
"564 1128 OFFCURVE",
"546 1153 OFFCURVE",
"546 1184 CURVE SMOOTH",
"546 1241 OFFCURVE",
"599 1276 OFFCURVE",
"691 1276 CURVE SMOOTH",
"812 1276 OFFCURVE",
"872 1236 OFFCURVE",
"929 1116 CURVE",
"1236 1116 LINE",
"1236 1593 LINE",
"949 1593 LINE",
"898 1499 LINE",
"823 1581 OFFCURVE",
"722 1622 OFFCURVE",
"593 1622 CURVE SMOOTH",
"382 1622 OFFCURVE",
"223 1536 OFFCURVE",
"140 1389 CURVE SMOOTH",
"98 1315 OFFCURVE",
"77 1230 OFFCURVE",
"77 1133 CURVE SMOOTH",
"77 881 OFFCURVE",
"188 736 OFFCURVE",
"353 654 CURVE SMOOTH",
"435 613 OFFCURVE",
"540 574 OFFCURVE",
"669 539 CURVE SMOOTH",
"770 511 OFFCURVE",
"829 485 OFFCURVE",
"829 420 CURVE SMOOTH",
"829 368 OFFCURVE",
"766 334 OFFCURVE",
"689 334 CURVE SMOOTH",
"564 334 OFFCURVE",
"476 375 OFFCURVE",
"435 487 CURVE",
"114 487 LINE",
"114 0 LINE",
"437 0 LINE",
"472 92 LINE",
"584 5 OFFCURVE",
"661 -29 OFFCURVE",
"825 -29 CURVE SMOOTH"
);
}
);
width = 1406;
}
);
note = S;
unicode = 0053;
},
{
glyphname = T;
lastChange = "2021-04-16 09:15:24 +0000";
layers = (
{
layerId = "246EC62F-25D4-447A-A2A1-FEFF923DA7D2";
paths = (
{
closed = 1;
nodes = (
"1091 360 LINE",
"1091 1239 LINE",
"1237 1239 LINE",
"1280 965 LINE",
"1560 965 LINE",
"1560 1591 LINE",
"63 1591 LINE",
"63 965 LINE",
"344 965 LINE",
"387 1239 LINE",
"528 1239 LINE",
"528 360 LINE",
"364 360 LINE",
"364 0 LINE",
"1255 0 LINE",
"1255 360 LINE"
);
}
);
width = 1636;
}
);
note = T;
unicode = 0054;
},
{
glyphname = U;
lastChange = "2021-04-16 09:15:24 +0000";
layers = (
{
layerId = "246EC62F-25D4-447A-A2A1-FEFF923DA7D2";
paths = (
{
closed = 1;
nodes = (
"1238 -29 OFFCURVE",
"1482 168 OFFCURVE",
"1482 551 CURVE SMOOTH",
"1482 1239 LINE",
"1635 1239 LINE",
"1635 1591 LINE",
"982 1591 LINE",
"982 1239 LINE",
"1146 1239 LINE",
"1146 537 LINE SMOOTH",
"1146 420 OFFCURVE",
"1075 346 OFFCURVE",
"960 346 CURVE SMOOTH",
"823 346 OFFCURVE",
"761 438 OFFCURVE",
"761 569 CURVE SMOOTH",
"761 1239 LINE",
"908 1239 LINE",
"908 1591 LINE",
"40 1591 LINE",
"40 1239 LINE",
"202 1239 LINE",
"202 705 LINE SMOOTH",
"202 224 OFFCURVE",
"396 -29 OFFCURVE",
"871 -29 CURVE SMOOTH"
);
}
);
width = 1691;
}
);
note = U;
unicode = 0055;
},
{
glyphname = V;
lastChange = "2021-04-16 09:15:24 +0000";
layers = (
{
layerId = "246EC62F-25D4-447A-A2A1-FEFF923DA7D2";
paths = (
{
closed = 1;
nodes = (
"1728 1239 LINE",
"1728 1591 LINE",
"1033 1591 LINE",
"1033 1239 LINE",
"1164 1239 LINE",
"988 516 LINE",
"788 1239 LINE",
"902 1239 LINE",
"902 1591 LINE",
"38 1591 LINE",
"38 1239 LINE",
"204 1239 LINE",
"564 0 LINE",
"1150 0 LINE",
"1547 1239 LINE"
);
}
);
width = 1777;
}
);
note = V;
unicode = 0056;
},
{
glyphname = W;
lastChange = "2021-04-16 09:15:24 +0000";
layers = (
{
layerId = "246EC62F-25D4-447A-A2A1-FEFF923DA7D2";
paths = (
{
closed = 1;
nodes = (
"1482 0 LINE",
"2025 0 LINE",
"2367 1239 LINE",
"2535 1239 LINE",
"2535 1593 LINE",
"1875 1593 LINE",
"1875 1239 LINE",
"2014 1239 LINE",
"1859 702 LINE",
"1607 1593 LINE",
"1197 1593 LINE",
"937 672 LINE",
"777 1239 LINE",
"929 1239 LINE",
"929 1593 LINE",
"38 1593 LINE",
"38 1239 LINE",
"202 1239 LINE",
"550 0 LINE",
"1087 0 LINE",
"1289 707 LINE"
);
}
);
width = 2584;
}
);
note = W;
unicode = 0057;
},
{
glyphname = X;
lastChange = "2021-04-16 09:15:24 +0000";
layers = (
{
layerId = "246EC62F-25D4-447A-A2A1-FEFF923DA7D2";
paths = (
{
closed = 1;
nodes = (
"675 358 LINE",
"882 614 LINE",
"1124 358 LINE",
"999 358 LINE",
"999 0 LINE",
"1926 0 LINE",
"1926 358 LINE",
"1775 358 LINE",
"1347 809 LINE",
"1679 1239 LINE",
"1877 1239 LINE",
"1877 1593 LINE",
"1130 1593 LINE",
"1130 1239 LINE",
"1273 1239 LINE",
"1126 1044 LINE",
"964 1239 LINE",
"1046 1239 LINE",
"1046 1593 LINE",
"128 1593 LINE",
"128 1239 LINE",
"298 1239 LINE",
"669 842 LINE",
"235 358 LINE",
"77 358 LINE",
"77 0 LINE",
"898 0 LINE",
"898 358 LINE"
);
}
);
width = 2002;
}
);
note = X;
unicode = 0058;
},
{
glyphname = Y;
lastChange = "2021-04-16 09:15:24 +0000";
layers = (
{
layerId = "246EC62F-25D4-447A-A2A1-FEFF923DA7D2";
paths = (
{
closed = 1;
nodes = (
"1128 358 LINE",
"1128 705 LINE",
"1437 1239 LINE",
"1617 1239 LINE",
"1617 1591 LINE",
"980 1591 LINE",
"980 1239 LINE",
"1125 1239 LINE",
"982 973 LINE",
"800 1239 LINE",
"890 1239 LINE",
"890 1591 LINE",
"38 1591 LINE",
"38 1239 LINE",
"151 1239 LINE",
"570 651 LINE",
"570 358 LINE",
"417 358 LINE",
"417 0 LINE",
"1285 0 LINE",
"1285 358 LINE"
);
}
);
width = 1665;
}
);
note = Y;
unicode = 0059;
},
{
glyphname = Z;
lastChange = "2021-04-16 09:15:24 +0000";
layers = (
{
layerId = "246EC62F-25D4-447A-A2A1-FEFF923DA7D2";
paths = (
{
closed = 1;
nodes = (
"1223 694 LINE",
"1114 358 LINE",
"807 358 LINE",
"1483 1264 LINE",
"1483 1591 LINE",
"88 1591 LINE",
"88 928 LINE",
"377 928 LINE",
"457 1239 LINE",
"772 1239 LINE",
"94 350 LINE",
"94 0 LINE",
"1503 0 LINE",
"1503 694 LINE"
);
}
);
width = 1587;
}
);
note = Z;
unicode = 005A;
},
{
glyphname = a;
lastChange = "2021-04-16 09:15:24 +0000";
layers = (
{
layerId = "246EC62F-25D4-447A-A2A1-FEFF923DA7D2";
paths = (
{
closed = 1;
nodes = (
"574 -18 OFFCURVE",
"710 52 OFFCURVE",
"767 164 CURVE",
"812 0 LINE",
"1324 0 LINE",
"1324 301 LINE",
"1230 301 LINE",
"1230 750 LINE SMOOTH",
"1230 978 OFFCURVE",
"1027 1092 OFFCURVE",
"622 1092 CURVE SMOOTH",
"477 1092 OFFCURVE",
"301 1069 OFFCURVE",
"140 1012 CURVE",
"140 721 LINE",
"169 709 LINE",
"254 761 OFFCURVE",
"400 801 OFFCURVE",
"499 801 CURVE SMOOTH",
"652 801 OFFCURVE",
"749 744 OFFCURVE",
"749 637 CURVE SMOOTH",
"749 592 LINE",
"668 618 OFFCURVE",
"584 631 OFFCURVE",
"497 631 CURVE SMOOTH",
"349 631 OFFCURVE",
"214 583 OFFCURVE",
"136 487 CURVE SMOOTH",
"97 438 OFFCURVE",
"77 378 OFFCURVE",
"77 307 CURVE SMOOTH",
"77 176 OFFCURVE",
"149 74 OFFCURVE",
"261 22 CURVE SMOOTH",
"317 -5 OFFCURVE",
"379 -18 OFFCURVE",
"446 -18 CURVE SMOOTH"
);
},
{
closed = 1;
nodes = (
"569 238 OFFCURVE",
"526 285 OFFCURVE",
"526 340 CURVE SMOOTH",
"526 413 OFFCURVE",
"571 461 OFFCURVE",
"642 461 CURVE SMOOTH",
"659 461 OFFCURVE",
"678 458 OFFCURVE",
"701 452 CURVE SMOOTH",
"723 445 OFFCURVE",
"739 441 OFFCURVE",
"749 440 CURVE",
"749 272 LINE",
"732 256 OFFCURVE",
"678 238 OFFCURVE",
"634 238 CURVE SMOOTH"
);
}
);
width = 1396;
}
);
note = a;
unicode = 0061;
},
{
glyphname = b;
lastChange = "2021-04-16 09:15:24 +0000";
layers = (
{
layerId = "246EC62F-25D4-447A-A2A1-FEFF923DA7D2";
paths = (
{
closed = 1;
nodes = (
"1163 -18 OFFCURVE",
"1306 85 OFFCURVE",
"1375 253 CURVE SMOOTH",
"1410 337 OFFCURVE",
"1427 432 OFFCURVE",
"1427 539 CURVE SMOOTH",
"1427 743 OFFCURVE",
"1361 919 OFFCURVE",
"1226 1018 CURVE SMOOTH",
"1158 1067 OFFCURVE",
"1076 1092 OFFCURVE",
"981 1092 CURVE SMOOTH",
"880 1092 OFFCURVE",
"763 1049 OFFCURVE",
"659 965 CURVE",
"659 1561 LINE",
"51 1495 LINE",
"51 1223 LINE",
"180 1223 LINE",
"180 0 LINE",
"629 0 LINE",
"667 115 LINE",
"736 40 OFFCURVE",
"837 -18 OFFCURVE",
"960 -18 CURVE SMOOTH"
);
},
{
closed = 1;
nodes = (
"758 274 OFFCURVE",
"690 299 OFFCURVE",
"659 324 CURVE",
"659 733 LINE",
"684 766 OFFCURVE",
"752 799 OFFCURVE",
"815 799 CURVE SMOOTH",
"927 799 OFFCURVE",
"981 666 OFFCURVE",
"981 510 CURVE SMOOTH",
"981 385 OFFCURVE",
"911 274 OFFCURVE",
"815 274 CURVE SMOOTH"
);
}
);
width = 1499;
}
);
note = b;
unicode = 0062;
},
{
glyphname = c;
lastChange = "2021-04-16 09:15:24 +0000";
layers = (
{
layerId = "246EC62F-25D4-447A-A2A1-FEFF923DA7D2";
paths = (
{
closed = 1;
nodes = (
"838 -18 OFFCURVE",
"977 23 OFFCURVE",
"1059 64 CURVE SMOOTH",
"1100 84 OFFCURVE",
"1120 95 OFFCURVE",
"1120 98 CURVE SMOOTH",
"1120 377 LINE",
"1105 387 LINE",
"1018 314 OFFCURVE",
"896 281 OFFCURVE",
"800 281 CURVE SMOOTH",
"667 281 OFFCURVE",
"544 345 OFFCURVE",
"544 545 CURVE SMOOTH",
"544 738 OFFCURVE",
"605 799 OFFCURVE",
"720 799 CURVE SMOOTH",
"797 799 OFFCURVE",
"853 736 OFFCURVE",
"864 629 CURVE",
"1153 629 LINE",
"1153 1071 LINE",
"935 1071 LINE",
"894 965 LINE",
"859 1049 OFFCURVE",
"698 1092 OFFCURVE",
"581 1092 CURVE SMOOTH",
"373 1092 OFFCURVE",
"211 991 OFFCURVE",
"127 826 CURVE SMOOTH",
"84 743 OFFCURVE",
"63 650 OFFCURVE",
"63 547 CURVE SMOOTH",
"63 318 OFFCURVE",
"169 144 OFFCURVE",
"352 52 CURVE SMOOTH",
"443 5 OFFCURVE",
"550 -18 OFFCURVE",
"671 -18 CURVE SMOOTH"
);
}
);
width = 1249;
}
);
note = c;
unicode = 0063;
},
{
glyphname = d;
lastChange = "2021-04-16 09:15:24 +0000";
layers = (
{
layerId = "246EC62F-25D4-447A-A2A1-FEFF923DA7D2";
paths = (
{
closed = 1;
nodes = (
"661 -15 OFFCURVE",
"766 41 OFFCURVE",
"831 129 CURVE",
"831 0 LINE",
"1447 0 LINE",
"1447 301 LINE",
"1320 301 LINE",
"1320 1561 LINE",
"679 1495 LINE",
"679 1223 LINE",
"839 1223 LINE",
"839 961 LINE",
"755 1048 OFFCURVE",
"664 1092 OFFCURVE",
"528 1092 CURVE SMOOTH",
"341 1092 OFFCURVE",
"201 983 OFFCURVE",
"127 818 CURVE SMOOTH",
"90 735 OFFCURVE",
"71 646 OFFCURVE",
"71 551 CURVE SMOOTH",
"71 343 OFFCURVE",
"145 161 OFFCURVE",
"285 59 CURVE SMOOTH",
"355 8 OFFCURVE",
"439 -18 OFFCURVE",
"536 -18 CURVE SMOOTH"
);
},
{
closed = 1;
nodes = (
"581 274 OFFCURVE",
"520 387 OFFCURVE",
"520 551 CURVE SMOOTH",
"520 712 OFFCURVE",
"592 799 OFFCURVE",
"696 799 CURVE SMOOTH",
"753 799 OFFCURVE",
"808 765 OFFCURVE",
"839 729 CURVE",
"839 350 LINE",
"812 309 OFFCURVE",
"759 274 OFFCURVE",
"696 274 CURVE SMOOTH"
);
}
);
width = 1513;
}
);
note = d;
unicode = 0064;
},
{
glyphname = e;
lastChange = "2021-04-16 09:15:24 +0000";
layers = (
{
layerId = "246EC62F-25D4-447A-A2A1-FEFF923DA7D2";
paths = (
{
closed = 1;
nodes = (
"887 -18 OFFCURVE",
"1016 21 OFFCURVE",
"1153 100 CURVE",
"1153 369 LINE",
"1136 375 LINE",
"1013 300 OFFCURVE",
"887 266 OFFCURVE",
"786 266 CURVE SMOOTH",
"653 266 OFFCURVE",
"544 348 OFFCURVE",
"544 473 CURVE",
"1167 473 LINE",
"1178 506 OFFCURVE",
"1183 540 OFFCURVE",
"1183 575 CURVE SMOOTH",
"1183 783 OFFCURVE",
"1089 944 OFFCURVE",
"925 1029 CURVE SMOOTH",
"843 1071 OFFCURVE",
"748 1092 OFFCURVE",
"641 1092 CURVE SMOOTH",
"408 1092 OFFCURVE",
"230 999 OFFCURVE",
"135 835 CURVE SMOOTH",
"87 752 OFFCURVE",
"63 655 OFFCURVE",
"63 543 CURVE SMOOTH",
"63 316 OFFCURVE",
"164 142 OFFCURVE",
"348 51 CURVE SMOOTH",
"439 5 OFFCURVE",
"547 -18 OFFCURVE",
"671 -18 CURVE SMOOTH"
);
},
{
closed = 1;
nodes = (
"544 759 OFFCURVE",
"600 844 OFFCURVE",
"671 844 CURVE SMOOTH",
"756 844 OFFCURVE",
"800 765 OFFCURVE",
"800 670 CURVE SMOOTH",
"800 649 LINE",
"544 649 LINE",
"544 678 LINE SMOOTH"
);
}
);
width = 1275;
}
);
note = e;
unicode = 0065;
},
{
glyphname = f;
lastChange = "2021-04-16 09:15:24 +0000";
layers = (
{
layerId = "246EC62F-25D4-447A-A2A1-FEFF923DA7D2";
paths = (
{
closed = 1;
nodes = (
"912 301 LINE",
"720 301 LINE",
"720 778 LINE",
"912 778 LINE",
"912 1071 LINE",
"720 1071 LINE",
"720 1108 LINE SMOOTH",
"720 1197 OFFCURVE",
"749 1241 OFFCURVE",
"808 1241 CURVE SMOOTH",
"827 1241 OFFCURVE",
"862 1237 OFFCURVE",
"912 1229 CURVE",
"912 1524 LINE",
"836 1548 OFFCURVE",
"701 1571 OFFCURVE",
"597 1571 CURVE SMOOTH",
"360 1571 OFFCURVE",
"241 1436 OFFCURVE",
"241 1167 CURVE SMOOTH",
"241 1071 LINE",
"81 1071 LINE",
"81 778 LINE",
"241 778 LINE",
"241 301 LINE",
"81 301 LINE",
"81 0 LINE",
"912 0 LINE"
);
}
);
width = 1003;
}
);
note = f;
unicode = 0066;
},
{
glyphname = g;
lastChange = "2021-04-16 09:15:24 +0000";
layers = (
{
layerId = "246EC62F-25D4-447A-A2A1-FEFF923DA7D2";
paths = (
{
closed = 1;
nodes = (
"1059 -389 OFFCURVE",
"1322 -212 OFFCURVE",
"1322 135 CURVE SMOOTH",
"1322 762 LINE",
"1418 762 LINE",
"1418 1071 LINE",
"909 1071 LINE",
"837 922 LINE",
"758 1035 OFFCURVE",
"652 1092 OFFCURVE",
"521 1092 CURVE SMOOTH",
"330 1092 OFFCURVE",
"194 986 OFFCURVE",
"126 819 CURVE SMOOTH",
"92 736 OFFCURVE",
"75 643 OFFCURVE",
"75 541 CURVE SMOOTH",
"75 341 OFFCURVE",
"142 169 OFFCURVE",
"276 73 CURVE SMOOTH",
"343 24 OFFCURVE",
"424 0 OFFCURVE",
"521 0 CURVE SMOOTH",
"656 0 OFFCURVE",
"764 52 OFFCURVE",
"837 117 CURVE",
"837 -43 OFFCURVE",
"756 -123 OFFCURVE",
"595 -123 CURVE SMOOTH",
"483 -123 OFFCURVE",
"381 -94 OFFCURVE",
"204 -39 CURVE",
"204 -328 LINE",
"363 -369 OFFCURVE",
"513 -389 OFFCURVE",
"655 -389 CURVE SMOOTH"
);
},
{
closed = 1;
nodes = (
"590 274 OFFCURVE",
"521 379 OFFCURVE",
"521 535 CURVE SMOOTH",
"521 698 OFFCURVE",
"593 799 OFFCURVE",
"702 799 CURVE SMOOTH",
"767 799 OFFCURVE",
"819 772 OFFCURVE",
"843 725 CURVE",
"843 360 LINE",
"832 323 OFFCURVE",
"773 274 OFFCURVE",
"710 274 CURVE SMOOTH"
);
}
);
width = 1490;
}
);
note = g;
unicode = 0067;
},
{
glyphname = h;
lastChange = "2021-04-16 09:15:24 +0000";
layers = (
{
layerId = "246EC62F-25D4-447A-A2A1-FEFF923DA7D2";
paths = (
{
closed = 1;
nodes = (
"801 301 LINE",
"704 301 LINE",
"704 662 LINE SMOOTH",
"704 741 OFFCURVE",
"745 791 OFFCURVE",
"813 791 CURVE SMOOTH",
"873 791 OFFCURVE",
"927 733 OFFCURVE",
"927 653 CURVE SMOOTH",
"927 0 LINE",
"1536 0 LINE",
"1536 301 LINE",
"1409 301 LINE",
"1409 702 LINE SMOOTH",
"1409 949 OFFCURVE",
"1289 1092 OFFCURVE",
"1057 1092 CURVE SMOOTH",
"898 1092 OFFCURVE",
"756 1011 OFFCURVE",
"704 915 CURVE",
"704 1561 LINE",
"96 1495 LINE",
"96 1223 LINE",
"223 1223 LINE",
"223 301 LINE",
"96 301 LINE",
"96 0 LINE",
"801 0 LINE"
);
}
);
width = 1552;
}
);
note = h;
unicode = 0068;
},
{
glyphname = i;
lastChange = "2021-04-16 09:15:24 +0000";
layers = (
{
layerId = "246EC62F-25D4-447A-A2A1-FEFF923DA7D2";
paths = (
{
closed = 1;
nodes = (
"622 1176 OFFCURVE",
"743 1257 OFFCURVE",
"743 1405 CURVE SMOOTH",
"743 1556 OFFCURVE",
"626 1630 OFFCURVE",
"457 1630 CURVE SMOOTH",
"288 1630 OFFCURVE",
"168 1553 OFFCURVE",
"168 1405 CURVE SMOOTH",
"168 1257 OFFCURVE",
"288 1176 OFFCURVE",
"455 1176 CURVE SMOOTH"
);
},
{
closed = 1;
nodes = (
"694 301 LINE",
"694 1071 LINE",
"86 1008 LINE",
"86 762 LINE",
"215 762 LINE",
"215 301 LINE",
"86 301 LINE",
"86 0 LINE",
"823 0 LINE",
"823 301 LINE"
);
}
);
width = 888;
}
);
note = i;
unicode = 0069;
},
{
glyphname = j;
lastChange = "2021-04-16 09:15:24 +0000";
layers = (
{
layerId = "246EC62F-25D4-447A-A2A1-FEFF923DA7D2";
paths = (
{
closed = 1;
nodes = (
"588 1176 OFFCURVE",
"708 1254 OFFCURVE",
"708 1405 CURVE SMOOTH",
"708 1556 OFFCURVE",
"593 1630 OFFCURVE",
"421 1630 CURVE SMOOTH",
"252 1630 OFFCURVE",
"132 1553 OFFCURVE",
"132 1405 CURVE SMOOTH",
"132 1257 OFFCURVE",
"254 1176 OFFCURVE",
"421 1176 CURVE SMOOTH"
);
},
{
closed = 1;
nodes = (
"366 -397 OFFCURVE",
"544 -357 OFFCURVE",
"638 -218 CURVE SMOOTH",
"685 -148 OFFCURVE",
"708 -48 OFFCURVE",
"708 82 CURVE SMOOTH",
"708 1071 LINE",
"69 1008 LINE",
"69 762 LINE",
"229 762 LINE",
"229 0 LINE SMOOTH",
"229 -61 OFFCURVE",
"186 -92 OFFCURVE",
"100 -92 CURVE SMOOTH",
"69 -92 LINE",
"69 -397 LINE"
);
}
);
width = 800;
}
);
note = j;
unicode = 006A;
},
{
glyphname = k;
lastChange = "2021-04-16 09:15:24 +0000";
layers = (
{
layerId = "246EC62F-25D4-447A-A2A1-FEFF923DA7D2";
paths = (
{
closed = 1;
nodes = (
"1442 762 LINE",
"1442 1071 LINE",
"803 1071 LINE",
"803 762 LINE",
"913 762 LINE",
"704 588 LINE",
"704 1561 LINE",
"49 1495 LINE",
"49 1223 LINE",
"225 1223 LINE",
"225 301 LINE",
"49 301 LINE",
"49 0 LINE",
"704 0 LINE",
"704 438 LINE",
"997 0 LINE",
"1474 0 LINE",
"1474 301 LINE",
"1317 301 LINE",
"1110 618 LINE",
"1282 762 LINE"
);
}
);
width = 1509;
}
);
note = k;
unicode = 006B;
},
{
glyphname = l;
lastChange = "2021-04-16 09:15:24 +0000";
layers = (
{
layerId = "246EC62F-25D4-447A-A2A1-FEFF923DA7D2";
paths = (
{
closed = 1;
nodes = (
"747 301 LINE",
"747 1561 LINE",
"92 1495 LINE",
"92 1223 LINE",
"268 1223 LINE",
"268 301 LINE",
"92 301 LINE",
"92 0 LINE",
"901 0 LINE",
"901 301 LINE"
);
}
);
width = 978;
}
);
note = l;
unicode = 006C;
},
{
glyphname = m;
lastChange = "2021-04-16 09:15:24 +0000";
layers = (
{
layerId = "246EC62F-25D4-447A-A2A1-FEFF923DA7D2";
paths = (
{
closed = 1;
nodes = (
"2099 955 OFFCURVE",
"1989 1092 OFFCURVE",
"1769 1092 CURVE SMOOTH",
"1605 1092 OFFCURVE",
"1479 1039 OFFCURVE",
"1380 899 CURVE",
"1333 1028 OFFCURVE",
"1234 1092 OFFCURVE",
"1083 1092 CURVE SMOOTH",
"935 1092 OFFCURVE",
"819 1051 OFFCURVE",
"727 942 CURVE",
"727 1092 LINE",
"104 1032 LINE",
"104 762 LINE",
"249 762 LINE",
"249 289 LINE",
"104 289 LINE",
"104 0 LINE",
"729 0 LINE",
"729 289 LINE",
"727 289 LINE",
"727 508 LINE SMOOTH",
"727 599 OFFCURVE",
"734 669 OFFCURVE",
"747 718 CURVE SMOOTH",
"760 767 OFFCURVE",
"790 791 OFFCURVE",
"839 791 CURVE SMOOTH",
"891 791 OFFCURVE",
"933 739 OFFCURVE",
"933 682 CURVE SMOOTH",
"933 0 LINE",
"1413 0 LINE",
"1413 508 LINE SMOOTH",
"1413 599 OFFCURVE",
"1420 669 OFFCURVE",
"1433 718 CURVE SMOOTH",
"1446 767 OFFCURVE",
"1476 791 OFFCURVE",
"1525 791 CURVE SMOOTH",
"1577 791 OFFCURVE",
"1620 739 OFFCURVE",
"1620 682 CURVE SMOOTH",
"1620 0 LINE",
"2238 0 LINE",
"2238 289 LINE",
"2099 289 LINE",
"2099 680 LINE SMOOTH"
);
}
);
width = 2263;
}
);
note = m;
unicode = 006D;
},
{
glyphname = n;
lastChange = "2021-04-16 09:15:24 +0000";
layers = (
{
layerId = "246EC62F-25D4-447A-A2A1-FEFF923DA7D2";
paths = (
{
closed = 1;
nodes = (
"1413 955 OFFCURVE",
"1303 1092 OFFCURVE",
"1083 1092 CURVE SMOOTH",
"935 1092 OFFCURVE",
"819 1051 OFFCURVE",
"727 942 CURVE",
"727 1092 LINE",
"104 1032 LINE",
"104 762 LINE",
"249 762 LINE",
"249 289 LINE",
"104 289 LINE",
"104 0 LINE",
"729 0 LINE",
"729 289 LINE",
"727 289 LINE",
"727 508 LINE SMOOTH",
"727 599 OFFCURVE",
"734 669 OFFCURVE",
"747 718 CURVE SMOOTH",
"760 767 OFFCURVE",
"790 791 OFFCURVE",
"839 791 CURVE SMOOTH",
"891 791 OFFCURVE",
"933 739 OFFCURVE",
"933 682 CURVE SMOOTH",
"933 0 LINE",
"1552 0 LINE",
"1552 289 LINE",
"1413 289 LINE",
"1413 680 LINE SMOOTH"
);
}
);
width = 1579;
}
);
note = n;
unicode = 006E;
},
{
glyphname = o;
lastChange = "2021-04-16 09:15:24 +0000";
layers = (
{
layerId = "246EC62F-25D4-447A-A2A1-FEFF923DA7D2";
paths = (
{
closed = 1;
nodes = (
"924 -18 OFFCURVE",
"1113 72 OFFCURVE",
"1214 243 CURVE SMOOTH",
"1264 328 OFFCURVE",
"1289 430 OFFCURVE",
"1289 547 CURVE SMOOTH",
"1289 894 OFFCURVE",
"1050 1092 OFFCURVE",
"681 1092 CURVE SMOOTH",
"441 1092 OFFCURVE",
"252 1008 OFFCURVE",
"151 844 CURVE SMOOTH",
"100 762 OFFCURVE",
"75 663 OFFCURVE",
"75 547 CURVE SMOOTH",
"75 312 OFFCURVE",
"181 137 OFFCURVE",
"364 49 CURVE SMOOTH",
"455 4 OFFCURVE",
"561 -18 OFFCURVE",
"681 -18 CURVE SMOOTH"
);
},
{
closed = 1;
nodes = (
"639 274 OFFCURVE",
"607 296 OFFCURVE",
"586 339 CURVE SMOOTH",
"565 382 OFFCURVE",
"554 451 OFFCURVE",
"554 547 CURVE SMOOTH",
"554 724 OFFCURVE",
"594 799 OFFCURVE",
"681 799 CURVE SMOOTH",
"772 799 OFFCURVE",
"810 724 OFFCURVE",
"810 547 CURVE SMOOTH",
"810 451 OFFCURVE",
"800 382 OFFCURVE",
"779 339 CURVE SMOOTH",
"758 296 OFFCURVE",
"725 274 OFFCURVE",
"681 274 CURVE SMOOTH"
);
}
);
width = 1366;
}
);
note = o;
unicode = 006F;
},
{
glyphname = p;
lastChange = "2021-04-16 09:15:24 +0000";
layers = (
{
layerId = "246EC62F-25D4-447A-A2A1-FEFF923DA7D2";
paths = (
{
closed = 1;
nodes = (
"800 -96 LINE",
"671 -96 LINE",
"671 119 LINE",
"743 42 OFFCURVE",
"856 -18 OFFCURVE",
"991 -18 CURVE SMOOTH",
"1184 -18 OFFCURVE",
"1322 91 OFFCURVE",
"1389 260 CURVE SMOOTH",
"1422 345 OFFCURVE",
"1439 438 OFFCURVE",
"1439 541 CURVE SMOOTH",
"1439 745 OFFCURVE",
"1371 919 OFFCURVE",
"1237 1018 CURVE SMOOTH",
"1170 1067 OFFCURVE",
"1088 1092 OFFCURVE",
"993 1092 CURVE SMOOTH",
"848 1092 OFFCURVE",
"739 1017 OFFCURVE",
"671 922 CURVE",
"671 1092 LINE",
"63 1030 LINE",
"63 762 LINE",
"192 762 LINE",
"192 -94 LINE",
"63 -94 LINE",
"63 -397 LINE",
"800 -397 LINE"
);
},
{
closed = 1;
nodes = (
"749 274 OFFCURVE",
"701 303 OFFCURVE",
"671 360 CURVE",
"671 707 LINE",
"694 762 OFFCURVE",
"753 799 OFFCURVE",
"821 799 CURVE SMOOTH",
"922 799 OFFCURVE",
"991 695 OFFCURVE",
"991 535 CURVE SMOOTH",
"991 379 OFFCURVE",
"935 274 OFFCURVE",
"815 274 CURVE SMOOTH"
);
}
);
width = 1511;
}
);
note = p;
unicode = 0070;
},
{
glyphname = q;
lastChange = "2021-04-16 09:15:24 +0000";
layers = (
{
layerId = "246EC62F-25D4-447A-A2A1-FEFF923DA7D2";
paths = (
{
closed = 1;
nodes = (
"1445 -94 LINE",
"1326 -94 LINE",
"1326 762 LINE",
"1421 762 LINE",
"1421 1071 LINE",
"913 1071 LINE",
"841 922 LINE",
"773 1019 OFFCURVE",
"670 1092 OFFCURVE",
"526 1092 CURVE SMOOTH",
"334 1092 OFFCURVE",
"196 986 OFFCURVE",
"127 818 CURVE SMOOTH",
"92 734 OFFCURVE",
"75 642 OFFCURVE",
"75 541 CURVE SMOOTH",
"75 336 OFFCURVE",
"143 158 OFFCURVE",
"280 58 CURVE SMOOTH",
"348 7 OFFCURVE",
"431 -18 OFFCURVE",
"528 -18 CURVE SMOOTH",
"648 -18 OFFCURVE",
"752 28 OFFCURVE",
"841 119 CURVE",
"841 -96 LINE",
"728 -96 LINE",
"728 -397 LINE",
"1445 -397 LINE"
);
},
{
closed = 1;
nodes = (
"595 295 OFFCURVE",
"546 392 OFFCURVE",
"546 535 CURVE SMOOTH",
"546 697 OFFCURVE",
"600 778 OFFCURVE",
"708 778 CURVE SMOOTH",
"776 778 OFFCURVE",
"828 741 OFFCURVE",
"841 684 CURVE",
"841 389 LINE SMOOTH",
"841 337 OFFCURVE",
"780 295 OFFCURVE",
"712 295 CURVE SMOOTH"
);
}
);
width = 1515;
}
);
note = q;
unicode = 0071;
},
{
glyphname = r;
lastChange = "2021-04-16 09:15:24 +0000";
layers = (
{
layerId = "246EC62F-25D4-447A-A2A1-FEFF923DA7D2";
paths = (
{
closed = 1;
nodes = (
"831 301 LINE",
"671 301 LINE",
"671 506 LINE SMOOTH",
"671 626 OFFCURVE",
"703 707 OFFCURVE",
"831 707 CURVE SMOOTH",
"882 707 OFFCURVE",
"946 694 OFFCURVE",
"1024 668 CURVE",
"1024 1092 LINE",
"912 1092 OFFCURVE",
"734 1018 OFFCURVE",
"671 918 CURVE",
"671 1092 LINE",
"63 1032 LINE",
"63 762 LINE",
"192 762 LINE",
"192 301 LINE",
"63 301 LINE",
"63 0 LINE",
"831 0 LINE"
);
}
);
width = 1071;
}
);
note = r;
unicode = 0072;
},
{
glyphname = s;
lastChange = "2021-04-16 09:15:24 +0000";
layers = (
{
layerId = "246EC62F-25D4-447A-A2A1-FEFF923DA7D2";
paths = (
{
closed = 1;
nodes = (
"802 -18 OFFCURVE",
"944 36 OFFCURVE",
"1026 144 CURVE SMOOTH",
"1067 198 OFFCURVE",
"1087 264 OFFCURVE",
"1087 342 CURVE SMOOTH",
"1087 490 OFFCURVE",
"1006 588 OFFCURVE",
"913 643 CURVE SMOOTH",
"866 670 OFFCURVE",
"808 699 OFFCURVE",
"737 729 CURVE SMOOTH",
"680 754 OFFCURVE",
"639 774 OFFCURVE",
"614 789 CURVE SMOOTH",
"589 804 OFFCURVE",
"576 822 OFFCURVE",
"575 844 CURVE SMOOTH",
"575 879 OFFCURVE",
"602 891 OFFCURVE",
"649 891 CURVE SMOOTH",
"733 891 OFFCURVE",
"798 839 OFFCURVE",
"831 752 CURVE",
"1024 752 LINE",
"1024 1071 LINE",
"858 1071 LINE",
"833 1006 LINE",
"740 1063 OFFCURVE",
"639 1092 OFFCURVE",
"530 1092 CURVE SMOOTH",
"363 1092 OFFCURVE",
"214 1042 OFFCURVE",
"128 946 CURVE SMOOTH",
"85 898 OFFCURVE",
"63 841 OFFCURVE",
"63 774 CURVE SMOOTH",
"63 646 OFFCURVE",
"137 555 OFFCURVE",
"225 499 CURVE SMOOTH",
"268 471 OFFCURVE",
"324 440 OFFCURVE",
"393 406 CURVE SMOOTH",
"450 379 OFFCURVE",
"493 355 OFFCURVE",
"521 335 CURVE SMOOTH",
"549 315 OFFCURVE",
"563 293 OFFCURVE",
"563 268 CURVE SMOOTH",
"563 219 OFFCURVE",
"530 199 OFFCURVE",
"491 199 CURVE SMOOTH",
"390 199 OFFCURVE",
"303 294 OFFCURVE",
"286 395 CURVE",
"63 395 LINE",
"63 0 LINE",
"249 0 LINE",
"282 90 LINE",
"387 18 OFFCURVE",
"508 -18 OFFCURVE",
"645 -18 CURVE SMOOTH"
);
}
);
width = 1185;
}
);
note = s;
unicode = 0073;
},
{
glyphname = t;
lastChange = "2021-04-16 09:15:25 +0000";
layers = (
{
layerId = "246EC62F-25D4-447A-A2A1-FEFF923DA7D2";
paths = (
{
closed = 1;
nodes = (
"680 -18 OFFCURVE",
"776 2 OFFCURVE",
"863 41 CURVE",
"863 319 LINE",
"839 315 OFFCURVE",
"815 313 OFFCURVE",
"790 313 CURVE SMOOTH",
"722 313 OFFCURVE",
"671 358 OFFCURVE",
"671 418 CURVE SMOOTH",
"671 778 LINE",
"863 778 LINE",
"863 1071 LINE",
"671 1071 LINE",
"671 1407 LINE",
"192 1300 LINE",
"192 1071 LINE",
"32 1071 LINE",
"32 778 LINE",
"192 778 LINE",
"192 383 LINE SMOOTH",
"192 112 OFFCURVE",
"317 -18 OFFCURVE",
"577 -18 CURVE SMOOTH"
);
}
);
width = 954;
}
);
note = t;
unicode = 0074;
},
{
glyphname = u;
lastChange = "2021-04-16 09:15:25 +0000";
layers = (
{
layerId = "246EC62F-25D4-447A-A2A1-FEFF923DA7D2";
paths = (
{
closed = 1;
nodes = (
"674 -18 OFFCURVE",
"793 47 OFFCURVE",
"864 156 CURVE",
"864 0 LINE",
"1472 0 LINE",
"1472 301 LINE",
"1343 301 LINE",
"1343 1092 LINE",
"768 1032 LINE",
"768 762 LINE",
"864 762 LINE",
"864 387 LINE SMOOTH",
"864 327 OFFCURVE",
"828 281 OFFCURVE",
"768 281 CURVE SMOOTH",
"716 281 OFFCURVE",
"671 333 OFFCURVE",
"671 385 CURVE SMOOTH",
"671 1092 LINE",
"63 1032 LINE",
"63 762 LINE",
"192 762 LINE",
"192 385 LINE SMOOTH",
"192 116 OFFCURVE",
"299 -18 OFFCURVE",
"514 -18 CURVE SMOOTH"
);
}
);
width = 1538;
}
);
note = u;
unicode = 0075;
},
{
glyphname = v;
lastChange = "2021-04-16 09:15:25 +0000";
layers = (
{
layerId = "246EC62F-25D4-447A-A2A1-FEFF923DA7D2";
paths = (
{
closed = 1;
nodes = (
"1440 762 LINE",
"1440 1071 LINE",
"897 1071 LINE",
"897 762 LINE",
"1024 762 LINE",
"831 258 LINE",
"657 762 LINE",
"768 762 LINE",
"768 1071 LINE",
"0 1071 LINE",
"0 762 LINE",
"147 762 LINE",
"481 0 LINE",
"991 0 LINE",
"1305 762 LINE"
);
}
);
width = 1482;
}
);
note = v;
unicode = 0076;
},
{
glyphname = w;
lastChange = "2021-04-16 09:15:25 +0000";
layers = (
{
layerId = "246EC62F-25D4-447A-A2A1-FEFF923DA7D2";
paths = (
{
closed = 1;
nodes = (
"1159 0 LINE",
"1634 0 LINE",
"1861 762 LINE",
"1996 762 LINE",
"1996 1071 LINE",
"1445 1071 LINE",
"1445 762 LINE",
"1564 762 LINE",
"1464 379 LINE",
"1247 1071 LINE",
"981 1071 LINE",
"770 391 LINE",
"677 762 LINE",
"772 762 LINE",
"772 1071 LINE",
"63 1071 LINE",
"63 762 LINE",
"196 762 LINE",
"434 0 LINE",
"878 0 LINE",
"1030 430 LINE"
);
}
);
width = 2060;
}
);
note = w;
unicode = 0077;
},
{
glyphname = x;
lastChange = "2021-04-16 09:15:25 +0000";
layers = (
{
layerId = "246EC62F-25D4-447A-A2A1-FEFF923DA7D2";
paths = (
{
closed = 1;
nodes = (
"775 0 LINE",
"1248 0 LINE",
"1248 301 LINE",
"1117 301 LINE",
"925 580 LINE",
"1087 762 LINE",
"1218 762 LINE",
"1218 1071 LINE",
"943 1071 LINE",
"759 821 LINE",
"597 1071 LINE",
"101 1071 LINE",
"101 762 LINE",
"230 762 LINE",
"413 512 LINE",
"233 301 LINE",
"83 301 LINE",
"83 0 LINE",
"380 0 LINE",
"587 276 LINE"
);
}
);
width = 1329;
}
);
note = x;
unicode = 0078;
},
{
glyphname = y;
lastChange = "2021-04-16 09:15:25 +0000";
layers = (
{
layerId = "246EC62F-25D4-447A-A2A1-FEFF923DA7D2";
paths = (
{
closed = 1;
nodes = (
"937 -61 LINE",
"1374 762 LINE",
"1482 762 LINE",
"1482 1071 LINE",
"923 1071 LINE",
"923 762 LINE",
"1032 762 LINE",
"880 455 LINE",
"714 762 LINE",
"813 762 LINE",
"813 1071 LINE",
"63 1071 LINE",
"63 762 LINE",
"190 762 LINE",
"657 31 LINE",
"602 -61 LINE",
"399 -61 LINE",
"399 -377 LINE",
"1091 -377 LINE",
"1091 -61 LINE"
);
}
);
width = 1546;
}
);
note = y;
unicode = 0079;
},
{
glyphname = z;
lastChange = "2021-04-16 09:15:25 +0000";
layers = (
{
layerId = "246EC62F-25D4-447A-A2A1-FEFF923DA7D2";
paths = (
{
closed = 1;
nodes = (
"982 451 LINE",
"947 295 LINE",
"661 295 LINE",
"1130 795 LINE",
"1130 1071 LINE",
"108 1071 LINE",
"108 637 LINE",
"304 637 LINE",
"370 778 LINE",
"575 778 LINE",
"81 283 LINE",
"81 0 LINE",
"1166 0 LINE",
"1166 451 LINE"
);
}
);
width = 1247;
}
);
note = z;
unicode = 007A;
},
{
glyphname = uni1780;
lastChange = "2021-04-16 09:15:25 +0000";
layers = (
{
layerId = "246EC62F-25D4-447A-A2A1-FEFF923DA7D2";
paths = (
{
closed = 1;
nodes = (
"304 1134 OFFCURVE",
"285 1152 OFFCURVE",
"285 1166 CURVE SMOOTH",
"285 1170 OFFCURVE",
"287 1174 OFFCURVE",
"290 1178 CURVE",
"305 1193 OFFCURVE",
"368 1200 OFFCURVE",
"479 1200 CURVE SMOOTH",
"590 1200 OFFCURVE",
"663 1187 OFFCURVE",
"700 1160 CURVE",
"737 1187 OFFCURVE",
"788 1200 OFFCURVE",
"854 1200 CURVE SMOOTH",
"920 1200 OFFCURVE",
"994 1195 OFFCURVE",
"1077 1186 CURVE SMOOTH",
"1091 1185 OFFCURVE",
"1105 1184 OFFCURVE",
"1118 1184 CURVE SMOOTH",
"1179 1184 OFFCURVE",
"1223 1202 OFFCURVE",
"1250 1239 CURVE",
"1250 1500 LINE",
"1228 1483 OFFCURVE",
"1201 1475 OFFCURVE",
"1168 1475 CURVE SMOOTH",
"1152 1475 OFFCURVE",
"1134 1477 OFFCURVE",
"1115 1481 CURVE SMOOTH",
"1058 1494 OFFCURVE",
"980 1500 OFFCURVE",
"883 1500 CURVE SMOOTH",
"806 1500 OFFCURVE",
"745 1487 OFFCURVE",
"700 1460 CURVE",
"655 1487 OFFCURVE",
"602 1500 OFFCURVE",
"541 1500 CURVE SMOOTH",
"334 1500 LINE SMOOTH",
"211 1500 OFFCURVE",
"150 1467 OFFCURVE",
"150 1400 CURVE SMOOTH",
"150 1198 LINE SMOOTH",
"150 1143 OFFCURVE",
"180 1099 OFFCURVE",
"239 1067 CURVE",
"342 1112 LINE"
);
},
{
closed = 1;
nodes = (
"550 917 OFFCURVE",
"600 950 OFFCURVE",
"700 950 CURVE SMOOTH",
"800 950 OFFCURVE",
"850 917 OFFCURVE",
"850 850 CURVE SMOOTH",
"850 0 LINE",
"1250 0 LINE",
"1250 850 LINE SMOOTH",
"1250 983 OFFCURVE",
"1133 1050 OFFCURVE",
"900 1050 CURVE SMOOTH",
"500 1050 LINE SMOOTH",
"267 1050 OFFCURVE",
"150 983 OFFCURVE",
"150 850 CURVE SMOOTH",
"150 0 LINE",
"550 0 LINE",
"550 850 LINE SMOOTH"
);
}
);
width = 1400;
}
);
note = uni1780;
unicode = 1780;
},
{
glyphname = uni1781;
lastChange = "2021-04-16 09:15:25 +0000";
layers = (
{
layerId = "246EC62F-25D4-447A-A2A1-FEFF923DA7D2";
paths = (
{
closed = 1;
nodes = (
"602 900 OFFCURVE",
"653 928 OFFCURVE",
"680 976 CURVE SMOOTH",
"693 999 OFFCURVE",
"700 1024 OFFCURVE",
"700 1050 CURVE SMOOTH",
"700 1102 OFFCURVE",
"671 1155 OFFCURVE",
"624 1181 CURVE SMOOTH",
"600 1194 OFFCURVE",
"575 1200 OFFCURVE",
"550 1200 CURVE",
"550 1300 LINE SMOOTH",
"550 1367 OFFCURVE",
"600 1400 OFFCURVE",
"700 1400 CURVE SMOOTH",
"800 1400 OFFCURVE",
"850 1367 OFFCURVE",
"850 1300 CURVE SMOOTH",
"850 1000 LINE SMOOTH",
"850 915 OFFCURVE",
"800 849 OFFCURVE",
"700 804 CURVE SMOOTH",
"550 737 LINE",
"283 647 OFFCURVE",
"150 568 OFFCURVE",
"150 500 CURVE SMOOTH",
"150 200 LINE SMOOTH",
"150 67 OFFCURVE",
"267 0 OFFCURVE",
"500 0 CURVE SMOOTH",
"900 0 LINE SMOOTH",
"1133 0 OFFCURVE",
"1250 67 OFFCURVE",
"1250 200 CURVE SMOOTH",
"1250 680 LINE",
"850 550 LINE",
"850 200 LINE SMOOTH",
"850 133 OFFCURVE",
"800 100 OFFCURVE",
"700 100 CURVE SMOOTH",
"600 100 OFFCURVE",
"550 133 OFFCURVE",
"550 200 CURVE SMOOTH",
"550 500 LINE SMOOTH",
"550 585 OFFCURVE",
"600 651 OFFCURVE",
"700 696 CURVE SMOOTH",
"850 763 LINE",
"1117 853 OFFCURVE",
"1250 932 OFFCURVE",
"1250 1000 CURVE SMOOTH",
"1250 1300 LINE SMOOTH",
"1250 1433 OFFCURVE",
"1133 1500 OFFCURVE",
"900 1500 CURVE SMOOTH",
"500 1500 LINE SMOOTH",
"267 1500 OFFCURVE",
"150 1433 OFFCURVE",
"150 1300 CURVE SMOOTH",
"150 1050 LINE SMOOTH",
"150 950 OFFCURVE",
"211 900 OFFCURVE",
"333 900 CURVE SMOOTH",
"550 900 LINE SMOOTH"
);
},
{
closed = 1;
nodes = (
"577 1100 OFFCURVE",
"600 1077 OFFCURVE",
"600 1050 CURVE SMOOTH",
"600 1022 OFFCURVE",
"578 1000 OFFCURVE",
"550 1000 CURVE",
"550 1100 LINE"
);
}
);
width = 1400;
}
);
note = uni1781;
unicode = 1781;
},
{
glyphname = uni1782;
lastChange = "2021-04-16 09:15:25 +0000";
layers = (
{
layerId = "246EC62F-25D4-447A-A2A1-FEFF923DA7D2";
paths = (
{
closed = 1;
nodes = (
"304 1134 OFFCURVE",
"285 1152 OFFCURVE",
"285 1166 CURVE SMOOTH",
"285 1170 OFFCURVE",
"287 1174 OFFCURVE",
"290 1178 CURVE",
"305 1193 OFFCURVE",
"368 1200 OFFCURVE",
"479 1200 CURVE SMOOTH",
"590 1200 OFFCURVE",
"663 1187 OFFCURVE",
"700 1160 CURVE",
"737 1187 OFFCURVE",
"788 1200 OFFCURVE",
"854 1200 CURVE SMOOTH",
"920 1200 OFFCURVE",
"994 1195 OFFCURVE",
"1077 1186 CURVE SMOOTH",
"1091 1185 OFFCURVE",
"1105 1184 OFFCURVE",
"1118 1184 CURVE SMOOTH",
"1179 1184 OFFCURVE",
"1223 1202 OFFCURVE",
"1250 1239 CURVE",
"1250 1500 LINE",
"1228 1483 OFFCURVE",
"1201 1475 OFFCURVE",
"1168 1475 CURVE SMOOTH",
"1152 1475 OFFCURVE",
"1134 1477 OFFCURVE",
"1115 1481 CURVE SMOOTH",
"1058 1494 OFFCURVE",
"980 1500 OFFCURVE",
"883 1500 CURVE SMOOTH",
"806 1500 OFFCURVE",
"745 1487 OFFCURVE",
"700 1460 CURVE",
"655 1487 OFFCURVE",
"602 1500 OFFCURVE",
"541 1500 CURVE SMOOTH",
"334 1500 LINE SMOOTH",
"211 1500 OFFCURVE",
"150 1467 OFFCURVE",
"150 1400 CURVE SMOOTH",
"150 1198 LINE SMOOTH",
"150 1143 OFFCURVE",
"180 1099 OFFCURVE",
"239 1067 CURVE",
"342 1112 LINE"
);
},
{
closed = 1;
nodes = (
"610 222 OFFCURVE",
"676 363 OFFCURVE",
"749 424 CURVE",
"674 500 LINE",
"619 457 OFFCURVE",
"578 404 OFFCURVE",
"550 339 CURVE",
"550 850 LINE SMOOTH",
"550 917 OFFCURVE",
"600 950 OFFCURVE",
"700 950 CURVE SMOOTH",
"800 950 OFFCURVE",
"850 917 OFFCURVE",
"850 850 CURVE SMOOTH",
"850 0 LINE",
"1250 0 LINE",
"1250 850 LINE SMOOTH",
"1250 983 OFFCURVE",
"1133 1050 OFFCURVE",
"900 1050 CURVE SMOOTH",
"500 1050 LINE SMOOTH",
"267 1050 OFFCURVE",
"150 983 OFFCURVE",
"150 850 CURVE SMOOTH",
"150 0 LINE",
"550 0 LINE"
);
}
);
width = 1400;
}
);
note = uni1782;
unicode = 1782;
},
{
glyphname = uni1783;
lastChange = "2021-04-16 09:15:25 +0000";
layers = (
{
layerId = "246EC62F-25D4-447A-A2A1-FEFF923DA7D2";
paths = (
{
closed = 1;
nodes = (
"1950 1017 OFFCURVE",
"1883 1050 OFFCURVE",
"1750 1050 CURVE SMOOTH",
"1660 1050 LINE SMOOTH",
"1568 1050 OFFCURVE",
"1522 1065 OFFCURVE",
"1522 1095 CURVE SMOOTH",
"1522 1148 LINE SMOOTH",
"1522 1183 OFFCURVE",
"1552 1200 OFFCURVE",
"1612 1200 CURVE SMOOTH",
"1686 1200 OFFCURVE",
"1753 1195 OFFCURVE",
"1812 1186 CURVE SMOOTH",
"1822 1185 OFFCURVE",
"1832 1184 OFFCURVE",
"1842 1184 CURVE SMOOTH",
"1887 1184 OFFCURVE",
"1923 1202 OFFCURVE",
"1950 1239 CURVE",
"1950 1500 LINE",
"1928 1483 OFFCURVE",
"1903 1475 OFFCURVE",
"1875 1475 CURVE SMOOTH",
"1861 1475 OFFCURVE",
"1846 1477 OFFCURVE",
"1830 1481 CURVE SMOOTH",
"1783 1494 OFFCURVE",
"1727 1500 OFFCURVE",
"1663 1500 CURVE SMOOTH",
"1534 1500 LINE SMOOTH",
"1445 1500 OFFCURVE",
"1400 1467 OFFCURVE",
"1400 1400 CURVE SMOOTH",
"1400 1068 LINE SMOOTH",
"1400 1011 OFFCURVE",
"1450 970 OFFCURVE",
"1550 945 CURVE",
"1550 200 LINE SMOOTH",
"1550 133 OFFCURVE",
"1500 100 OFFCURVE",
"1400 100 CURVE SMOOTH",
"1300 100 OFFCURVE",
"1250 133 OFFCURVE",
"1250 200 CURVE SMOOTH",
"1250 950 LINE SMOOTH",
"1250 1017 OFFCURVE",
"1183 1050 OFFCURVE",
"1050 1050 CURVE SMOOTH",
"960 1050 LINE SMOOTH",
"868 1050 OFFCURVE",
"822 1065 OFFCURVE",
"822 1095 CURVE SMOOTH",
"822 1148 LINE SMOOTH",
"822 1183 OFFCURVE",
"852 1200 OFFCURVE",
"912 1200 CURVE SMOOTH",
"986 1200 OFFCURVE",
"1053 1195 OFFCURVE",
"1112 1186 CURVE SMOOTH",
"1122 1185 OFFCURVE",
"1132 1184 OFFCURVE",
"1142 1184 CURVE SMOOTH",
"1187 1184 OFFCURVE",
"1223 1202 OFFCURVE",
"1250 1239 CURVE",
"1250 1500 LINE",
"1228 1483 OFFCURVE",
"1203 1475 OFFCURVE",
"1175 1475 CURVE SMOOTH",
"1161 1475 OFFCURVE",
"1146 1477 OFFCURVE",
"1130 1481 CURVE SMOOTH",
"1083 1494 OFFCURVE",
"1027 1500 OFFCURVE",
"963 1500 CURVE SMOOTH",
"834 1500 LINE SMOOTH",
"745 1500 OFFCURVE",
"700 1467 OFFCURVE",
"700 1400 CURVE SMOOTH",
"700 1068 LINE SMOOTH",
"700 1011 OFFCURVE",
"750 970 OFFCURVE",
"850 945 CURVE",
"850 200 LINE SMOOTH",
"850 133 OFFCURVE",
"800 100 OFFCURVE",
"700 100 CURVE SMOOTH",
"600 100 OFFCURVE",
"550 133 OFFCURVE",
"550 200 CURVE SMOOTH",
"550 1350 LINE SMOOTH",
"550 1450 OFFCURVE",
"483 1500 OFFCURVE",
"350 1500 CURVE SMOOTH",
"50 1500 LINE",
"50 1350 LINE",
"117 1350 OFFCURVE",
"150 1317 OFFCURVE",
"150 1250 CURVE SMOOTH",
"150 200 LINE SMOOTH",
"150 67 OFFCURVE",
"267 0 OFFCURVE",
"500 0 CURVE SMOOTH",
"1600 0 LINE SMOOTH",
"1833 0 OFFCURVE",
"1950 67 OFFCURVE",
"1950 200 CURVE SMOOTH",
"1950 950 LINE SMOOTH"
);
}
);
width = 2100;
}
);
note = uni1783;
unicode = 1783;
},
{
glyphname = uni1784;
lastChange = "2021-04-16 09:15:25 +0000";
layers = (
{
layerId = "246EC62F-25D4-447A-A2A1-FEFF923DA7D2";
paths = (
{
closed = 1;
nodes = (
"1100 1111 OFFCURVE",
"1118 1118 OFFCURVE",
"1137 1127 CURVE SMOOTH",
"1209 1162 OFFCURVE",
"1250 1231 OFFCURVE",
"1250 1300 CURVE SMOOTH",
"1250 1369 OFFCURVE",
"1207 1439 OFFCURVE",
"1136 1474 CURVE SMOOTH",
"1100 1491 OFFCURVE",
"1063 1500 OFFCURVE",
"1025 1500 CURVE SMOOTH",
"949 1500 OFFCURVE",
"870 1464 OFFCURVE",
"830 1400 CURVE SMOOTH",
"810 1368 OFFCURVE",
"800 1335 OFFCURVE",
"800 1300 CURVE SMOOTH",
"800 1263 OFFCURVE",
"809 1229 OFFCURVE",
"827 1200 CURVE",
"650 1200 LINE SMOOTH",
"583 1200 OFFCURVE",
"550 1250 OFFCURVE",
"550 1350 CURVE SMOOTH",
"550 1600 LINE",
"150 1600 LINE",
"150 1250 LINE SMOOTH",
"150 1150 OFFCURVE",
"217 1100 OFFCURVE",
"350 1100 CURVE SMOOTH",
"850 1100 LINE",
"850 193 LINE",
"700 439 LINE",
"550 193 LINE",
"550 850 LINE SMOOTH",
"550 950 OFFCURVE",
"483 1000 OFFCURVE",
"350 1000 CURVE SMOOTH",
"100 1000 LINE",
"100 900 LINE",
"133 900 OFFCURVE",
"150 867 OFFCURVE",
"150 800 CURVE SMOOTH",
"150 100 LINE SMOOTH",
"150 33 OFFCURVE",
"199 0 OFFCURVE",
"297 0 CURVE SMOOTH",
"550 0 LINE",
"700 246 LINE",
"850 0 LINE",
"1103 0 LINE SMOOTH",
"1201 0 OFFCURVE",
"1250 33 OFFCURVE",
"1250 100 CURVE SMOOTH",
"1250 1000 LINE",
"1081 1106 LINE"
);
}
);
width = 1400;
}
);
note = uni1784;
unicode = 1784;
},
{
glyphname = uni1785;
lastChange = "2021-04-16 09:15:25 +0000";
layers = (
{
layerId = "246EC62F-25D4-447A-A2A1-FEFF923DA7D2";
paths = (
{
closed = 1;
nodes = (
"1250 1000 OFFCURVE",
"1189 1050 OFFCURVE",
"1067 1050 CURVE SMOOTH",
"850 1050 LINE SMOOTH",
"798 1050 OFFCURVE",
"747 1022 OFFCURVE",
"720 975 CURVE SMOOTH",
"707 951 OFFCURVE",
"700 926 OFFCURVE",
"700 900 CURVE SMOOTH",
"700 848 OFFCURVE",
"729 796 OFFCURVE",
"777 770 CURVE SMOOTH",
"800 757 OFFCURVE",
"825 750 OFFCURVE",
"850 750 CURVE",
"850 200 LINE SMOOTH",
"850 133 OFFCURVE",
"800 100 OFFCURVE",
"700 100 CURVE SMOOTH",
"600 100 OFFCURVE",
"550 133 OFFCURVE",
"550 200 CURVE SMOOTH",
"550 950 LINE SMOOTH",
"550 1017 OFFCURVE",
"500 1050 OFFCURVE",
"400 1050 CURVE SMOOTH",
"310 1050 LINE SMOOTH",
"219 1050 OFFCURVE",
"173 1065 OFFCURVE",
"172 1095 CURVE SMOOTH",
"171 1148 LINE",
"171 1149 LINE SMOOTH",
"171 1183 OFFCURVE",
"210 1200 OFFCURVE",
"289 1200 CURVE SMOOTH",
"488 1200 LINE SMOOTH",
"593 1200 OFFCURVE",
"663 1187 OFFCURVE",
"700 1160 CURVE",
"737 1187 OFFCURVE",
"788 1200 OFFCURVE",
"854 1200 CURVE SMOOTH",
"920 1200 OFFCURVE",
"994 1195 OFFCURVE",
"1077 1186 CURVE SMOOTH",
"1091 1185 OFFCURVE",
"1105 1184 OFFCURVE",
"1118 1184 CURVE SMOOTH",
"1179 1184 OFFCURVE",
"1223 1202 OFFCURVE",
"1250 1239 CURVE",
"1250 1500 LINE",
"1228 1483 OFFCURVE",
"1201 1475 OFFCURVE",
"1168 1475 CURVE SMOOTH",
"1152 1475 OFFCURVE",
"1134 1477 OFFCURVE",
"1115 1481 CURVE SMOOTH",
"1058 1494 OFFCURVE",
"980 1500 OFFCURVE",
"883 1500 CURVE SMOOTH",
"806 1500 OFFCURVE",
"745 1487 OFFCURVE",
"700 1460 CURVE",
"655 1487 OFFCURVE",
"602 1500 OFFCURVE",
"541 1500 CURVE SMOOTH",
"184 1500 LINE SMOOTH",
"95 1500 OFFCURVE",
"50 1467 OFFCURVE",
"50 1400 CURVE SMOOTH",
"50 1068 LINE SMOOTH",
"50 1022 OFFCURVE",
"83 986 OFFCURVE",
"150 961 CURVE",
"150 200 LINE SMOOTH",
"150 67 OFFCURVE",
"267 0 OFFCURVE",
"500 0 CURVE SMOOTH",
"900 0 LINE SMOOTH",
"1133 0 OFFCURVE",
"1250 67 OFFCURVE",
"1250 200 CURVE SMOOTH",
"1250 900 LINE SMOOTH"
);
},
{
closed = 1;
nodes = (
"823 850 OFFCURVE",
"800 873 OFFCURVE",
"800 900 CURVE SMOOTH",
"800 928 OFFCURVE",
"822 950 OFFCURVE",
"850 950 CURVE",
"850 850 LINE"
);
}
);
width = 1400;
}
);
note = uni1785;
unicode = 1785;
},
{
glyphname = uni1786;
lastChange = "2021-04-16 09:15:25 +0000";
layers = (
{
layerId = "246EC62F-25D4-447A-A2A1-FEFF923DA7D2";
paths = (
{
closed = 1;
nodes = (
"781 380 OFFCURVE",
"698 400 OFFCURVE",
"600 400 CURVE SMOOTH",
"550 400 LINE",
"550 950 LINE SMOOTH",
"550 1017 OFFCURVE",
"500 1050 OFFCURVE",
"400 1050 CURVE SMOOTH",
"310 1050 LINE SMOOTH",
"219 1050 OFFCURVE",
"173 1065 OFFCURVE",
"172 1095 CURVE SMOOTH",
"171 1148 LINE",
"171 1149 LINE SMOOTH",
"171 1183 OFFCURVE",
"210 1200 OFFCURVE",
"289 1200 CURVE SMOOTH",
"488 1200 LINE SMOOTH",
"593 1200 OFFCURVE",
"663 1187 OFFCURVE",
"700 1160 CURVE",
"737 1187 OFFCURVE",
"788 1200 OFFCURVE",
"854 1200 CURVE SMOOTH",
"920 1200 OFFCURVE",
"994 1195 OFFCURVE",
"1077 1186 CURVE SMOOTH",
"1091 1185 OFFCURVE",
"1105 1184 OFFCURVE",
"1118 1184 CURVE SMOOTH",
"1179 1184 OFFCURVE",
"1223 1202 OFFCURVE",
"1250 1239 CURVE",
"1250 1500 LINE",
"1228 1483 OFFCURVE",
"1201 1475 OFFCURVE",
"1168 1475 CURVE SMOOTH",
"1152 1475 OFFCURVE",
"1134 1477 OFFCURVE",
"1115 1481 CURVE SMOOTH",
"1058 1494 OFFCURVE",
"980 1500 OFFCURVE",
"883 1500 CURVE SMOOTH",
"806 1500 OFFCURVE",
"745 1487 OFFCURVE",
"700 1460 CURVE",
"655 1487 OFFCURVE",
"602 1500 OFFCURVE",
"541 1500 CURVE SMOOTH",
"184 1500 LINE SMOOTH",
"95 1500 OFFCURVE",
"50 1467 OFFCURVE",
"50 1400 CURVE SMOOTH",
"50 1068 LINE SMOOTH",
"50 1022 OFFCURVE",
"83 986 OFFCURVE",
"150 961 CURVE",
"150 450 LINE",
"283 399 LINE",
"255 397 OFFCURVE",
"228 389 OFFCURVE",
"202 374 CURVE SMOOTH",
"138 339 OFFCURVE",
"100 269 OFFCURVE",
"100 200 CURVE SMOOTH",
"100 67 OFFCURVE",
"175 0 OFFCURVE",
"325 0 CURVE SMOOTH",
"475 0 OFFCURVE",
"550 67 OFFCURVE",
"550 200 CURVE SMOOTH",
"550 300 LINE",
"600 300 LINE SMOOTH",
"728 300 OFFCURVE",
"850 183 OFFCURVE",
"850 0 CURVE",
"1100 0 LINE SMOOTH",
"1200 0 OFFCURVE",
"1250 67 OFFCURVE",
"1250 200 CURVE SMOOTH",
"1250 900 LINE SMOOTH",
"1250 1000 OFFCURVE",
"1189 1050 OFFCURVE",
"1067 1050 CURVE SMOOTH",
"850 1050 LINE SMOOTH",
"798 1050 OFFCURVE",
"747 1022 OFFCURVE",
"720 975 CURVE SMOOTH",
"707 951 OFFCURVE",
"700 926 OFFCURVE",
"700 900 CURVE SMOOTH",
"700 848 OFFCURVE",
"729 796 OFFCURVE",
"777 770 CURVE SMOOTH",
"800 757 OFFCURVE",
"825 750 OFFCURVE",
"850 750 CURVE",
"850 341 LINE"
);
},
{
closed = 1;
nodes = (
"823 850 OFFCURVE",
"800 873 OFFCURVE",
"800 900 CURVE SMOOTH",
"800 928 OFFCURVE",
"822 950 OFFCURVE",
"850 950 CURVE",
"850 850 LINE"
);
}
);
width = 1400;
}
);
note = uni1786;
unicode = 1786;
},
{
glyphname = uni1787;
lastChange = "2021-04-16 09:15:25 +0000";
layers = (
{
layerId = "246EC62F-25D4-447A-A2A1-FEFF923DA7D2";
paths = (
{
closed = 1;
nodes = (
"550 1017 OFFCURVE",
"500 1050 OFFCURVE",
"400 1050 CURVE SMOOTH",
"310 1050 LINE SMOOTH",
"219 1050 OFFCURVE",
"173 1065 OFFCURVE",
"172 1095 CURVE SMOOTH",
"171 1148 LINE",
"171 1149 LINE SMOOTH",
"171 1183 OFFCURVE",
"234 1200 OFFCURVE",
"360 1200 CURVE SMOOTH",
"438 1200 OFFCURVE",
"523 1192 OFFCURVE",
"616 1175 CURVE SMOOTH",
"709 1158 OFFCURVE",
"783 1150 OFFCURVE",
"840 1150 CURVE SMOOTH",
"1113 1150 OFFCURVE",
"1250 1233 OFFCURVE",
"1250 1400 CURVE SMOOTH",
"1250 1570 LINE",
"950 1570 LINE",
"950 1490 OFFCURVE",
"913 1450 OFFCURVE",
"840 1450 CURVE SMOOTH",
"761 1450 OFFCURVE",
"690 1458 OFFCURVE",
"625 1475 CURVE SMOOTH",
"560 1492 OFFCURVE",
"472 1500 OFFCURVE",
"360 1500 CURVE SMOOTH",
"153 1500 OFFCURVE",
"50 1447 OFFCURVE",
"50 1340 CURVE SMOOTH",
"50 1068 LINE SMOOTH",
"50 1022 OFFCURVE",
"83 986 OFFCURVE",
"150 961 CURVE",
"150 100 LINE SMOOTH",
"150 33 OFFCURVE",
"199 0 OFFCURVE",
"297 0 CURVE SMOOTH",
"550 0 LINE",
"700 246 LINE",
"850 0 LINE",
"1103 0 LINE SMOOTH",
"1201 0 OFFCURVE",
"1250 33 OFFCURVE",
"1250 100 CURVE SMOOTH",
"1250 1000 LINE",
"850 1000 LINE",
"850 193 LINE",
"700 439 LINE",
"550 193 LINE",
"550 950 LINE SMOOTH"
);
}
);
width = 1400;
}
);
note = uni1787;
unicode = 1787;
},
{
glyphname = uni1788;
lastChange = "2021-04-16 09:15:25 +0000";
layers = (
{
layerId = "246EC62F-25D4-447A-A2A1-FEFF923DA7D2";
paths = (
{
closed = 1;
nodes = (
"550 0 LINE SMOOTH",
"650 0 OFFCURVE",
"700 83 OFFCURVE",
"700 250 CURVE SMOOTH",
"700 417 OFFCURVE",
"650 500 OFFCURVE",
"550 500 CURVE",
"550 950 LINE SMOOTH",
"550 1017 OFFCURVE",
"500 1050 OFFCURVE",
"400 1050 CURVE SMOOTH",
"310 1050 LINE SMOOTH",
"219 1050 OFFCURVE",
"173 1065 OFFCURVE",
"172 1095 CURVE SMOOTH",
"171 1148 LINE",
"171 1149 LINE SMOOTH",
"171 1183 OFFCURVE",
"234 1200 OFFCURVE",
"360 1200 CURVE SMOOTH",
"750 1200 LINE SMOOTH",
"817 1200 OFFCURVE",
"850 1167 OFFCURVE",
"850 1100 CURVE SMOOTH",
"850 200 LINE SMOOTH",
"850 67 OFFCURVE",
"967 0 OFFCURVE",
"1200 0 CURVE SMOOTH",
"2300 0 LINE SMOOTH",
"2533 0 OFFCURVE",
"2650 67 OFFCURVE",
"2650 200 CURVE SMOOTH",
"2650 950 LINE SMOOTH",
"2650 1017 OFFCURVE",
"2583 1050 OFFCURVE",
"2450 1050 CURVE SMOOTH",
"2360 1050 LINE SMOOTH",
"2268 1050 OFFCURVE",
"2222 1065 OFFCURVE",
"2222 1095 CURVE SMOOTH",
"2222 1148 LINE SMOOTH",
"2222 1183 OFFCURVE",
"2252 1200 OFFCURVE",
"2312 1200 CURVE SMOOTH",
"2386 1200 OFFCURVE",
"2453 1195 OFFCURVE",
"2512 1186 CURVE SMOOTH",
"2522 1185 OFFCURVE",
"2532 1184 OFFCURVE",
"2542 1184 CURVE SMOOTH",
"2587 1184 OFFCURVE",
"2623 1202 OFFCURVE",
"2650 1239 CURVE",
"2650 1500 LINE",
"2628 1483 OFFCURVE",
"2603 1475 OFFCURVE",
"2575 1475 CURVE SMOOTH",
"2561 1475 OFFCURVE",
"2546 1477 OFFCURVE",
"2530 1481 CURVE SMOOTH",
"2483 1494 OFFCURVE",
"2427 1500 OFFCURVE",
"2363 1500 CURVE SMOOTH",
"2234 1500 LINE SMOOTH",
"2145 1500 OFFCURVE",
"2100 1467 OFFCURVE",
"2100 1400 CURVE SMOOTH",
"2100 1068 LINE SMOOTH",
"2100 1011 OFFCURVE",
"2150 970 OFFCURVE",
"2250 945 CURVE",
"2250 200 LINE SMOOTH",
"2250 133 OFFCURVE",
"2200 100 OFFCURVE",
"2100 100 CURVE SMOOTH",
"2000 100 OFFCURVE",
"1950 133 OFFCURVE",
"1950 200 CURVE SMOOTH",
"1950 950 LINE SMOOTH",
"1950 1017 OFFCURVE",
"1883 1050 OFFCURVE",
"1750 1050 CURVE SMOOTH",
"1660 1050 LINE SMOOTH",
"1568 1050 OFFCURVE",
"1522 1065 OFFCURVE",
"1522 1095 CURVE SMOOTH",
"1522 1148 LINE SMOOTH",
"1522 1183 OFFCURVE",
"1552 1200 OFFCURVE",
"1612 1200 CURVE SMOOTH",
"1686 1200 OFFCURVE",
"1753 1195 OFFCURVE",
"1812 1186 CURVE SMOOTH",
"1822 1185 OFFCURVE",
"1832 1184 OFFCURVE",
"1842 1184 CURVE SMOOTH",
"1887 1184 OFFCURVE",
"1923 1202 OFFCURVE",
"1950 1239 CURVE",
"1950 1500 LINE",
"1928 1483 OFFCURVE",
"1903 1475 OFFCURVE",
"1875 1475 CURVE SMOOTH",
"1861 1475 OFFCURVE",
"1846 1477 OFFCURVE",
"1830 1481 CURVE SMOOTH",
"1783 1494 OFFCURVE",
"1727 1500 OFFCURVE",
"1663 1500 CURVE SMOOTH",
"1534 1500 LINE SMOOTH",
"1445 1500 OFFCURVE",
"1400 1467 OFFCURVE",
"1400 1400 CURVE SMOOTH",
"1400 1068 LINE SMOOTH",
"1400 1011 OFFCURVE",
"1450 970 OFFCURVE",
"1550 945 CURVE",
"1550 200 LINE SMOOTH",
"1550 133 OFFCURVE",
"1500 100 OFFCURVE",
"1400 100 CURVE SMOOTH",
"1300 100 OFFCURVE",
"1250 133 OFFCURVE",
"1250 200 CURVE SMOOTH",
"1250 1200 LINE SMOOTH",
"1250 1400 OFFCURVE",
"1150 1500 OFFCURVE",
"950 1500 CURVE SMOOTH",
"360 1500 LINE SMOOTH",
"153 1500 OFFCURVE",
"50 1447 OFFCURVE",
"50 1340 CURVE SMOOTH",
"50 1068 LINE SMOOTH",
"50 1022 OFFCURVE",
"83 986 OFFCURVE",
"150 961 CURVE",
"150 100 LINE SMOOTH",
"150 33 OFFCURVE",
"200 0 OFFCURVE",
"300 0 CURVE SMOOTH"
);
},
{
closed = 1;
nodes = (
"583 370 OFFCURVE",
"600 330 OFFCURVE",
"600 250 CURVE SMOOTH",
"600 170 OFFCURVE",
"583 130 OFFCURVE",
"550 130 CURVE",
"550 370 LINE"
);
}
);
width = 2800;
}
);
note = uni1788;
unicode = 1788;
},
{
glyphname = uni1789;
lastChange = "2021-04-16 09:15:25 +0000";
layers = (
{
layerId = "246EC62F-25D4-447A-A2A1-FEFF923DA7D2";
paths = (
{
closed = 1;
nodes = (
"1177 1460 OFFCURVE",
"1105 1500 OFFCURVE",
"1000 1500 CURVE SMOOTH",
"900 1500 LINE SMOOTH",
"809 1500 OFFCURVE",
"728 1454 OFFCURVE",
"657 1363 CURVE",
"582 1454 OFFCURVE",
"497 1500 OFFCURVE",
"400 1500 CURVE SMOOTH",
"300 1500 LINE SMOOTH",
"133 1500 OFFCURVE",
"50 1447 OFFCURVE",
"50 1340 CURVE SMOOTH",
"50 1068 LINE SMOOTH",
"50 1022 OFFCURVE",
"83 986 OFFCURVE",
"150 961 CURVE",
"150 100 LINE SMOOTH",
"150 33 OFFCURVE",
"200 0 OFFCURVE",
"300 0 CURVE SMOOTH",
"550 0 LINE SMOOTH",
"650 0 OFFCURVE",
"700 83 OFFCURVE",
"700 250 CURVE SMOOTH",
"700 417 OFFCURVE",
"650 500 OFFCURVE",
"550 500 CURVE",
"550 950 LINE SMOOTH",
"550 1017 OFFCURVE",
"500 1050 OFFCURVE",
"400 1050 CURVE SMOOTH",
"310 1050 LINE SMOOTH",
"219 1050 OFFCURVE",
"173 1065 OFFCURVE",
"172 1095 CURVE SMOOTH",
"171 1148 LINE",
"171 1149 LINE SMOOTH",
"171 1183 OFFCURVE",
"214 1200 OFFCURVE",
"300 1200 CURVE SMOOTH",
"400 1200 LINE SMOOTH",
"502 1200 OFFCURVE",
"588 1162 OFFCURVE",
"657 1085 CURVE",
"719 1162 OFFCURVE",
"767 1200 OFFCURVE",
"800 1200 CURVE SMOOTH",
"833 1200 OFFCURVE",
"850 1167 OFFCURVE",
"850 1100 CURVE SMOOTH",
"850 0 LINE",
"1250 0 LINE",
"1250 1200 LINE",
"1450 1200 LINE SMOOTH",
"1517 1200 OFFCURVE",
"1551 1171 OFFCURVE",
"1551 1113 CURVE SMOOTH",
"1551 1109 OFFCURVE",
"1551 1105 OFFCURVE",
"1550 1100 CURVE",
"1550 0 LINE",
"1950 0 LINE",
"1950 1200 LINE SMOOTH",
"1950 1400 OFFCURVE",
"1854 1500 OFFCURVE",
"1663 1500 CURVE SMOOTH",
"1450 1500 LINE SMOOTH",
"1381 1500 OFFCURVE",
"1303 1460 OFFCURVE",
"1216 1380 CURVE"
);
},
{
closed = 1;
nodes = (
"583 370 OFFCURVE",
"600 330 OFFCURVE",
"600 250 CURVE SMOOTH",
"600 170 OFFCURVE",
"583 130 OFFCURVE",
"550 130 CURVE",
"550 370 LINE"
);
},
{
closed = 1;
nodes = (
"765 -500 OFFCURVE",
"935 -567 OFFCURVE",
"1112 -700 CURVE",
"1700 -700 LINE SMOOTH",
"1867 -700 OFFCURVE",
"1950 -633 OFFCURVE",
"1950 -500 CURVE SMOOTH",
"1950 -300 LINE SMOOTH",
"1950 -167 OFFCURVE",
"1867 -100 OFFCURVE",
"1700 -100 CURVE SMOOTH",
"1400 -100 LINE",
"1400 -350 LINE",
"1550 -350 LINE",
"1550 -500 LINE",
"1304 -500 LINE",
"1067 -300 OFFCURVE",
"832 -200 OFFCURVE",
"600 -200 CURVE SMOOTH",
"150 -200 LINE",
"150 -500 LINE",
"600 -500 LINE SMOOTH"
);
}
);
width = 2100;
}
);
note = uni1789;
unicode = 1789;
},
{
glyphname = uni178A;
lastChange = "2021-04-16 09:15:25 +0000";
layers = (
{
layerId = "246EC62F-25D4-447A-A2A1-FEFF923DA7D2";
paths = (
{
closed = 1;
nodes = (
"1167 1150 OFFCURVE",
"1250 1200 OFFCURVE",
"1250 1300 CURVE SMOOTH",
"1250 1570 LINE",
"850 1570 LINE",
"850 1300 LINE",
"550 1300 LINE",
"550 1400 LINE",
"650 1400 LINE",
"650 1500 LINE",
"150 1500 LINE",
"150 1150 LINE",
"1000 1150 LINE SMOOTH"
);
},
{
closed = 1;
nodes = (
"150 100 LINE SMOOTH",
"150 33 OFFCURVE",
"199 0 OFFCURVE",
"297 0 CURVE SMOOTH",
"550 0 LINE",
"700 246 LINE",
"850 0 LINE",
"1103 0 LINE SMOOTH",
"1201 0 OFFCURVE",
"1250 33 OFFCURVE",
"1250 100 CURVE SMOOTH",
"1250 1000 LINE",
"850 1000 LINE",
"850 193 LINE",
"700 439 LINE",
"550 193 LINE",
"550 1000 LINE",
"150 1000 LINE"
);
}
);
width = 1400;
}
);
note = uni178A;
unicode = 178A;
},
{
glyphname = uni178B;
lastChange = "2021-04-16 09:15:25 +0000";
layers = (
{
layerId = "246EC62F-25D4-447A-A2A1-FEFF923DA7D2";
paths = (
{
closed = 1;
nodes = (
"850 133 OFFCURVE",
"800 100 OFFCURVE",
"700 100 CURVE SMOOTH",
"600 100 OFFCURVE",
"550 133 OFFCURVE",
"550 200 CURVE SMOOTH",
"550 1350 LINE SMOOTH",
"550 1450 OFFCURVE",
"483 1500 OFFCURVE",
"350 1500 CURVE SMOOTH",
"100 1500 LINE",
"100 1400 LINE",
"133 1400 OFFCURVE",
"150 1367 OFFCURVE",
"150 1300 CURVE SMOOTH",
"150 200 LINE SMOOTH",
"150 67 OFFCURVE",
"267 0 OFFCURVE",
"500 0 CURVE SMOOTH",
"900 0 LINE SMOOTH",
"1133 0 OFFCURVE",
"1250 67 OFFCURVE",
"1250 200 CURVE SMOOTH",
"1250 950 LINE SMOOTH",
"1250 1017 OFFCURVE",
"1200 1050 OFFCURVE",
"1100 1050 CURVE SMOOTH",
"1010 1050 LINE SMOOTH",
"885 1050 OFFCURVE",
"822 1065 OFFCURVE",
"822 1095 CURVE SMOOTH",
"822 1148 LINE SMOOTH",
"822 1183 OFFCURVE",
"841 1200 OFFCURVE",
"880 1200 CURVE SMOOTH",
"931 1200 OFFCURVE",
"970 1195 OFFCURVE",
"996 1185 CURVE SMOOTH",
"1022 1175 OFFCURVE",
"1057 1170 OFFCURVE",
"1100 1170 CURVE SMOOTH",
"1200 1170 OFFCURVE",
"1250 1247 OFFCURVE",
"1250 1400 CURVE SMOOTH",
"1250 1570 LINE",
"1170 1570 LINE",
"1170 1490 OFFCURVE",
"1147 1450 OFFCURVE",
"1100 1450 CURVE SMOOTH",
"1068 1450 OFFCURVE",
"1035 1458 OFFCURVE",
"1000 1475 CURVE SMOOTH",
"965 1492 OFFCURVE",
"932 1500 OFFCURVE",
"900 1500 CURVE SMOOTH",
"834 1500 LINE SMOOTH",
"745 1500 OFFCURVE",
"700 1467 OFFCURVE",
"700 1400 CURVE SMOOTH",
"700 1068 LINE SMOOTH",
"700 1022 OFFCURVE",
"750 986 OFFCURVE",
"850 961 CURVE",
"850 200 LINE SMOOTH"
);
}
);
width = 1400;
}
);
note = uni178B;
unicode = 178B;
},
{
glyphname = uni178C;
lastChange = "2021-04-16 09:15:25 +0000";
layers = (
{
layerId = "246EC62F-25D4-447A-A2A1-FEFF923DA7D2";
paths = (
{
closed = 1;
nodes = (
"1250 680 LINE",
"850 550 LINE",
"850 320 LINE",
"807 173 OFFCURVE",
"737 100 OFFCURVE",
"640 100 CURVE SMOOTH",
"580 100 OFFCURVE",
"550 133 OFFCURVE",
"550 200 CURVE SMOOTH",
"550 500 LINE SMOOTH",
"550 585 OFFCURVE",
"600 651 OFFCURVE",
"700 696 CURVE SMOOTH",
"850 763 LINE",
"1117 853 OFFCURVE",
"1250 932 OFFCURVE",
"1250 1000 CURVE SMOOTH",
"1250 1300 LINE SMOOTH",
"1250 1433 OFFCURVE",
"1195 1500 OFFCURVE",
"1085 1500 CURVE SMOOTH",
"920 1500 LINE SMOOTH",
"820 1500 OFFCURVE",
"747 1470 OFFCURVE",
"700 1410 CURVE",
"653 1470 OFFCURVE",
"580 1500 OFFCURVE",
"480 1500 CURVE SMOOTH",
"315 1500 LINE SMOOTH",
"205 1500 OFFCURVE",
"150 1433 OFFCURVE",
"150 1300 CURVE SMOOTH",
"150 1050 LINE SMOOTH",
"150 950 OFFCURVE",
"211 900 OFFCURVE",
"333 900 CURVE SMOOTH",
"550 900 LINE SMOOTH",
"602 900 OFFCURVE",
"653 928 OFFCURVE",
"680 976 CURVE SMOOTH",
"693 999 OFFCURVE",
"700 1024 OFFCURVE",
"700 1050 CURVE SMOOTH",
"700 1102 OFFCURVE",
"671 1155 OFFCURVE",
"624 1181 CURVE SMOOTH",
"600 1194 OFFCURVE",
"575 1200 OFFCURVE",
"550 1200 CURVE",
"550 1300 LINE SMOOTH",
"550 1340 OFFCURVE",
"569 1360 OFFCURVE",
"608 1360 CURVE SMOOTH",
"633 1360 OFFCURVE",
"663 1337 OFFCURVE",
"700 1290 CURVE",
"737 1337 OFFCURVE",
"768 1360 OFFCURVE",
"793 1360 CURVE SMOOTH",
"831 1360 OFFCURVE",
"850 1340 OFFCURVE",
"850 1300 CURVE SMOOTH",
"850 1000 LINE SMOOTH",
"850 915 OFFCURVE",
"800 849 OFFCURVE",
"700 804 CURVE SMOOTH",
"550 737 LINE",
"283 647 OFFCURVE",
"150 568 OFFCURVE",
"150 500 CURVE SMOOTH",
"150 200 LINE SMOOTH",
"150 67 OFFCURVE",
"267 0 OFFCURVE",
"500 0 CURVE SMOOTH",
"640 0 LINE SMOOTH",
"722 0 OFFCURVE",
"792 25 OFFCURVE",
"850 75 CURVE",
"850 0 LINE",
"1250 0 LINE"
);
},
{
closed = 1;
nodes = (
"577 1100 OFFCURVE",
"600 1077 OFFCURVE",
"600 1050 CURVE SMOOTH",
"600 1022 OFFCURVE",
"578 1000 OFFCURVE",
"550 1000 CURVE",
"550 1100 LINE"
);
}
);
width = 1400;
}
);
note = uni178C;
unicode = 178C;
},
{
glyphname = uni178D;
lastChange = "2021-04-16 09:15:25 +0000";
layers = (
{
layerId = "246EC62F-25D4-447A-A2A1-FEFF923DA7D2";
paths = (
{
closed = 1;
nodes = (
"1950 1017 OFFCURVE",
"1883 1050 OFFCURVE",
"1750 1050 CURVE SMOOTH",
"1660 1050 LINE SMOOTH",
"1569 1050 OFFCURVE",
"1523 1065 OFFCURVE",
"1522 1095 CURVE SMOOTH",
"1521 1148 LINE",
"1521 1149 LINE SMOOTH",
"1521 1183 OFFCURVE",
"1551 1200 OFFCURVE",
"1612 1200 CURVE SMOOTH",
"1686 1200 OFFCURVE",
"1753 1195 OFFCURVE",
"1812 1186 CURVE SMOOTH",
"1822 1185 OFFCURVE",
"1832 1184 OFFCURVE",
"1842 1184 CURVE SMOOTH",
"1887 1184 OFFCURVE",
"1923 1202 OFFCURVE",
"1950 1239 CURVE",
"1950 1500 LINE",
"1928 1483 OFFCURVE",
"1903 1475 OFFCURVE",
"1875 1475 CURVE SMOOTH",
"1861 1475 OFFCURVE",
"1846 1477 OFFCURVE",
"1830 1481 CURVE SMOOTH",
"1783 1494 OFFCURVE",
"1727 1500 OFFCURVE",
"1663 1500 CURVE SMOOTH",
"1534 1500 LINE SMOOTH",
"1445 1500 OFFCURVE",
"1400 1467 OFFCURVE",
"1400 1400 CURVE SMOOTH",
"1400 1068 LINE SMOOTH",
"1400 1011 OFFCURVE",
"1450 970 OFFCURVE",
"1550 945 CURVE",
"1550 341 LINE",
"1481 380 OFFCURVE",
"1398 400 OFFCURVE",
"1300 400 CURVE SMOOTH",
"1250 400 LINE",
"1250 1300 LINE SMOOTH",
"1250 1433 OFFCURVE",
"1167 1500 OFFCURVE",
"1000 1500 CURVE SMOOTH",
"900 1500 LINE SMOOTH",
"809 1500 OFFCURVE",
"728 1454 OFFCURVE",
"657 1363 CURVE",
"582 1454 OFFCURVE",
"497 1500 OFFCURVE",
"400 1500 CURVE SMOOTH",
"300 1500 LINE SMOOTH",
"133 1500 OFFCURVE",
"50 1447 OFFCURVE",
"50 1340 CURVE SMOOTH",
"50 1068 LINE SMOOTH",
"50 1022 OFFCURVE",
"83 986 OFFCURVE",
"150 961 CURVE",
"150 100 LINE SMOOTH",
"150 33 OFFCURVE",
"200 0 OFFCURVE",
"300 0 CURVE SMOOTH",
"550 0 LINE SMOOTH",
"650 0 OFFCURVE",
"700 83 OFFCURVE",
"700 250 CURVE SMOOTH",
"700 417 OFFCURVE",
"650 500 OFFCURVE",
"550 500 CURVE",
"550 950 LINE SMOOTH",
"550 1017 OFFCURVE",
"500 1050 OFFCURVE",
"400 1050 CURVE SMOOTH",
"310 1050 LINE SMOOTH",
"219 1050 OFFCURVE",
"173 1065 OFFCURVE",
"172 1095 CURVE SMOOTH",
"171 1148 LINE",
"171 1149 LINE SMOOTH",
"171 1183 OFFCURVE",
"214 1200 OFFCURVE",
"300 1200 CURVE SMOOTH",
"400 1200 LINE SMOOTH",
"502 1200 OFFCURVE",
"588 1162 OFFCURVE",
"657 1085 CURVE",
"719 1162 OFFCURVE",
"767 1200 OFFCURVE",
"800 1200 CURVE SMOOTH",
"833 1200 OFFCURVE",
"850 1167 OFFCURVE",
"850 1100 CURVE SMOOTH",
"850 450 LINE",
"983 399 LINE",
"955 397 OFFCURVE",
"928 389 OFFCURVE",
"902 374 CURVE SMOOTH",
"838 339 OFFCURVE",
"800 269 OFFCURVE",
"800 200 CURVE SMOOTH",
"800 67 OFFCURVE",
"875 0 OFFCURVE",
"1025 0 CURVE SMOOTH",
"1175 0 OFFCURVE",
"1250 67 OFFCURVE",
"1250 200 CURVE SMOOTH",
"1250 300 LINE",
"1300 300 LINE SMOOTH",
"1428 300 OFFCURVE",
"1550 183 OFFCURVE",
"1550 0 CURVE",
"1800 0 LINE SMOOTH",
"1900 0 OFFCURVE",
"1950 67 OFFCURVE",
"1950 200 CURVE SMOOTH",
"1950 950 LINE SMOOTH"
);
},
{
closed = 1;
nodes = (
"583 370 OFFCURVE",
"600 330 OFFCURVE",
"600 250 CURVE SMOOTH",
"600 170 OFFCURVE",
"583 130 OFFCURVE",
"550 130 CURVE",
"550 370 LINE"
);
}
);
width = 2100;
}
);
note = uni178D;
unicode = 178D;
},
{
glyphname = uni178E;
lastChange = "2021-04-16 09:15:25 +0000";
layers = (
{
layerId = "246EC62F-25D4-447A-A2A1-FEFF923DA7D2";
paths = (
{
closed = 1;
nodes = (
"850 33 OFFCURVE",
"899 0 OFFCURVE",
"997 0 CURVE SMOOTH",
"1250 0 LINE",
"1400 246 LINE",
"1550 0 LINE",
"1803 0 LINE SMOOTH",
"1901 0 OFFCURVE",
"1950 33 OFFCURVE",
"1950 100 CURVE SMOOTH",
"1950 1100 LINE SMOOTH",
"1950 1167 OFFCURVE",
"1983 1200 OFFCURVE",
"2050 1200 CURVE SMOOTH",
"2150 1200 LINE SMOOTH",
"2217 1200 OFFCURVE",
"2250 1167 OFFCURVE",
"2250 1100 CURVE SMOOTH",
"2250 0 LINE",
"2650 0 LINE",
"2650 1200 LINE SMOOTH",
"2650 1400 OFFCURVE",
"2550 1500 OFFCURVE",
"2350 1500 CURVE SMOOTH",
"1860 1500 LINE SMOOTH",
"1653 1500 OFFCURVE",
"1550 1400 OFFCURVE",
"1550 1200 CURVE SMOOTH",
"1550 193 LINE",
"1400 439 LINE",
"1250 193 LINE",
"1250 1200 LINE SMOOTH",
"1250 1400 OFFCURVE",
"1150 1500 OFFCURVE",
"950 1500 CURVE SMOOTH",
"360 1500 LINE SMOOTH",
"153 1500 OFFCURVE",
"50 1447 OFFCURVE",
"50 1340 CURVE SMOOTH",
"50 1068 LINE SMOOTH",
"50 1022 OFFCURVE",
"83 986 OFFCURVE",
"150 961 CURVE",
"150 100 LINE SMOOTH",
"150 33 OFFCURVE",
"200 0 OFFCURVE",
"300 0 CURVE SMOOTH",
"550 0 LINE SMOOTH",
"650 0 OFFCURVE",
"700 83 OFFCURVE",
"700 250 CURVE SMOOTH",
"700 417 OFFCURVE",
"650 500 OFFCURVE",
"550 500 CURVE",
"550 950 LINE SMOOTH",
"550 1017 OFFCURVE",
"500 1050 OFFCURVE",
"400 1050 CURVE SMOOTH",
"310 1050 LINE SMOOTH",
"219 1050 OFFCURVE",
"173 1065 OFFCURVE",
"172 1095 CURVE SMOOTH",
"171 1148 LINE",
"171 1149 LINE SMOOTH",
"171 1183 OFFCURVE",
"234 1200 OFFCURVE",
"360 1200 CURVE SMOOTH",
"750 1200 LINE SMOOTH",
"817 1200 OFFCURVE",
"850 1167 OFFCURVE",
"850 1100 CURVE SMOOTH",
"850 100 LINE SMOOTH"
);
},
{
closed = 1;
nodes = (
"583 370 OFFCURVE",
"600 330 OFFCURVE",
"600 250 CURVE SMOOTH",
"600 170 OFFCURVE",
"583 130 OFFCURVE",
"550 130 CURVE",
"550 370 LINE"
);
}
);
width = 2800;
}
);
note = uni178E;
unicode = 178E;
},
{
glyphname = uni178F;
lastChange = "2021-04-16 09:15:25 +0000";
layers = (
{
layerId = "246EC62F-25D4-447A-A2A1-FEFF923DA7D2";
paths = (
{
closed = 1;
nodes = (
"304 1134 OFFCURVE",
"285 1152 OFFCURVE",
"285 1166 CURVE SMOOTH",
"285 1170 OFFCURVE",
"287 1174 OFFCURVE",
"290 1178 CURVE",
"305 1193 OFFCURVE",
"368 1200 OFFCURVE",
"479 1200 CURVE SMOOTH",
"590 1200 OFFCURVE",
"663 1187 OFFCURVE",
"700 1160 CURVE",
"737 1187 OFFCURVE",
"788 1200 OFFCURVE",
"854 1200 CURVE SMOOTH",
"920 1200 OFFCURVE",
"994 1195 OFFCURVE",
"1077 1186 CURVE SMOOTH",
"1091 1185 OFFCURVE",
"1105 1184 OFFCURVE",
"1118 1184 CURVE SMOOTH",
"1179 1184 OFFCURVE",
"1223 1202 OFFCURVE",
"1250 1239 CURVE",
"1250 1500 LINE",
"1228 1483 OFFCURVE",
"1201 1475 OFFCURVE",
"1168 1475 CURVE SMOOTH",
"1152 1475 OFFCURVE",
"1134 1477 OFFCURVE",
"1115 1481 CURVE SMOOTH",
"1058 1494 OFFCURVE",
"980 1500 OFFCURVE",
"883 1500 CURVE SMOOTH",
"806 1500 OFFCURVE",
"745 1487 OFFCURVE",
"700 1460 CURVE",
"655 1487 OFFCURVE",
"602 1500 OFFCURVE",
"541 1500 CURVE SMOOTH",
"334 1500 LINE SMOOTH",
"211 1500 OFFCURVE",
"150 1467 OFFCURVE",
"150 1400 CURVE SMOOTH",
"150 1198 LINE SMOOTH",
"150 1143 OFFCURVE",
"180 1099 OFFCURVE",
"239 1067 CURVE",
"342 1112 LINE"
);
},
{
closed = 1;
nodes = (
"150 33 OFFCURVE",
"200 0 OFFCURVE",
"300 0 CURVE SMOOTH",
"550 0 LINE SMOOTH",
"650 0 OFFCURVE",
"700 83 OFFCURVE",
"700 250 CURVE SMOOTH",
"700 417 OFFCURVE",
"650 500 OFFCURVE",
"550 500 CURVE",
"550 850 LINE SMOOTH",
"550 917 OFFCURVE",
"600 950 OFFCURVE",
"700 950 CURVE SMOOTH",
"800 950 OFFCURVE",
"850 917 OFFCURVE",
"850 850 CURVE SMOOTH",
"850 0 LINE",
"1250 0 LINE",
"1250 850 LINE SMOOTH",
"1250 983 OFFCURVE",
"1133 1050 OFFCURVE",
"900 1050 CURVE SMOOTH",
"500 1050 LINE SMOOTH",
"267 1050 OFFCURVE",
"150 983 OFFCURVE",
"150 850 CURVE SMOOTH",
"150 100 LINE SMOOTH"
);
},
{
closed = 1;
nodes = (
"583 370 OFFCURVE",
"600 330 OFFCURVE",
"600 250 CURVE SMOOTH",
"600 170 OFFCURVE",
"583 130 OFFCURVE",
"550 130 CURVE",
"550 370 LINE"
);
}
);
width = 1400;
}
);
note = uni178F;
unicode = 178F;
},
{
glyphname = uni1790;
lastChange = "2021-04-16 09:15:25 +0000";
layers = (
{
layerId = "246EC62F-25D4-447A-A2A1-FEFF923DA7D2";
paths = (
{
closed = 1;
nodes = (
"550 1017 OFFCURVE",
"500 1050 OFFCURVE",
"400 1050 CURVE SMOOTH",
"310 1050 LINE SMOOTH",
"219 1050 OFFCURVE",
"173 1065 OFFCURVE",
"172 1095 CURVE SMOOTH",
"171 1148 LINE",
"171 1149 LINE SMOOTH",
"171 1183 OFFCURVE",
"234 1200 OFFCURVE",
"360 1200 CURVE SMOOTH",
"438 1200 OFFCURVE",
"523 1192 OFFCURVE",
"616 1175 CURVE SMOOTH",
"709 1158 OFFCURVE",
"783 1150 OFFCURVE",
"840 1150 CURVE SMOOTH",
"1113 1150 OFFCURVE",
"1250 1233 OFFCURVE",
"1250 1400 CURVE SMOOTH",
"1250 1570 LINE",
"950 1570 LINE",
"950 1490 OFFCURVE",
"913 1450 OFFCURVE",
"840 1450 CURVE SMOOTH",
"761 1450 OFFCURVE",
"690 1458 OFFCURVE",
"625 1475 CURVE SMOOTH",
"560 1492 OFFCURVE",
"472 1500 OFFCURVE",
"360 1500 CURVE SMOOTH",
"153 1500 OFFCURVE",
"50 1447 OFFCURVE",
"50 1340 CURVE SMOOTH",
"50 1068 LINE SMOOTH",
"50 1022 OFFCURVE",
"83 986 OFFCURVE",
"150 961 CURVE",
"150 200 LINE SMOOTH",
"150 67 OFFCURVE",
"267 0 OFFCURVE",
"500 0 CURVE SMOOTH",
"900 0 LINE SMOOTH",
"1133 0 OFFCURVE",
"1250 67 OFFCURVE",
"1250 200 CURVE SMOOTH",
"1250 900 LINE SMOOTH",
"1250 1000 OFFCURVE",
"1189 1050 OFFCURVE",
"1067 1050 CURVE SMOOTH",
"850 1050 LINE SMOOTH",
"798 1050 OFFCURVE",
"747 1022 OFFCURVE",
"720 975 CURVE SMOOTH",
"707 951 OFFCURVE",
"700 926 OFFCURVE",
"700 900 CURVE SMOOTH",
"700 848 OFFCURVE",
"729 796 OFFCURVE",
"777 770 CURVE SMOOTH",
"800 757 OFFCURVE",
"825 750 OFFCURVE",
"850 750 CURVE",
"850 200 LINE SMOOTH",
"850 133 OFFCURVE",
"800 100 OFFCURVE",
"700 100 CURVE SMOOTH",
"600 100 OFFCURVE",
"550 133 OFFCURVE",
"550 200 CURVE SMOOTH",
"550 950 LINE SMOOTH"
);
},
{
closed = 1;
nodes = (
"823 850 OFFCURVE",
"800 873 OFFCURVE",
"800 900 CURVE SMOOTH",
"800 928 OFFCURVE",
"822 950 OFFCURVE",
"850 950 CURVE",
"850 850 LINE"
);
}
);
width = 1400;
}
);
note = uni1790;
unicode = 1790;
},
{
glyphname = uni1791;
lastChange = "2021-04-16 09:15:25 +0000";
layers = (
{
layerId = "246EC62F-25D4-447A-A2A1-FEFF923DA7D2";
paths = (
{
closed = 1;
nodes = (
"1216 561 OFFCURVE",
"1250 596 OFFCURVE",
"1250 644 CURVE SMOOTH",
"1250 716 LINE SMOOTH",
"1250 772 OFFCURVE",
"1217 800 OFFCURVE",
"1150 800 CURVE SMOOTH",
"1050 800 LINE SMOOTH",
"1016 800 OFFCURVE",
"983 793 OFFCURVE",
"952 778 CURVE SMOOTH",
"933 768 OFFCURVE",
"916 755 OFFCURVE",
"903 740 CURVE",
"766 772 LINE SMOOTH",
"622 805 OFFCURVE",
"550 868 OFFCURVE",
"550 960 CURVE SMOOTH",
"550 1300 LINE SMOOTH",
"550 1367 OFFCURVE",
"600 1400 OFFCURVE",
"700 1400 CURVE SMOOTH",
"800 1400 OFFCURVE",
"850 1367 OFFCURVE",
"850 1300 CURVE SMOOTH",
"850 1200 LINE",
"799 1200 OFFCURVE",
"748 1173 OFFCURVE",
"721 1125 CURVE SMOOTH",
"707 1101 OFFCURVE",
"700 1076 OFFCURVE",
"700 1050 CURVE SMOOTH",
"700 998 OFFCURVE",
"728 947 OFFCURVE",
"776 920 CURVE SMOOTH",
"799 907 OFFCURVE",
"824 900 OFFCURVE",
"850 900 CURVE SMOOTH",
"1067 900 LINE SMOOTH",
"1189 900 OFFCURVE",
"1250 950 OFFCURVE",
"1250 1050 CURVE SMOOTH",
"1250 1300 LINE SMOOTH",
"1250 1433 OFFCURVE",
"1133 1500 OFFCURVE",
"900 1500 CURVE SMOOTH",
"500 1500 LINE SMOOTH",
"267 1500 OFFCURVE",
"150 1433 OFFCURVE",
"150 1300 CURVE SMOOTH",
"150 960 LINE SMOOTH",
"150 859 OFFCURVE",
"284 775 OFFCURVE",
"551 710 CURVE SMOOTH",
"850 635 LINE",
"850 200 LINE SMOOTH",
"850 133 OFFCURVE",
"800 100 OFFCURVE",
"700 100 CURVE SMOOTH",
"600 100 OFFCURVE",
"550 133 OFFCURVE",
"550 200 CURVE SMOOTH",
"550 550 LINE",
"150 680 LINE",
"150 200 LINE SMOOTH",
"150 67 OFFCURVE",
"267 0 OFFCURVE",
"500 0 CURVE SMOOTH",
"900 0 LINE SMOOTH",
"1133 0 OFFCURVE",
"1250 67 OFFCURVE",
"1250 200 CURVE SMOOTH",
"1250 490 LINE",
"1147 539 LINE"
);
},
{
closed = 1;
nodes = (
"800 1077 OFFCURVE",
"823 1100 OFFCURVE",
"850 1100 CURVE",
"850 1000 LINE",
"822 1000 OFFCURVE",
"800 1022 OFFCURVE",
"800 1050 CURVE SMOOTH"
);
}
);
width = 1400;
}
);
note = uni1791;
unicode = 1791;
},
{
glyphname = uni1792;
lastChange = "2021-04-16 09:15:25 +0000";
layers = (
{
layerId = "246EC62F-25D4-447A-A2A1-FEFF923DA7D2";
paths = (
{
closed = 1;
nodes = (
"150 33 OFFCURVE",
"199 0 OFFCURVE",
"297 0 CURVE SMOOTH",
"550 0 LINE",
"700 246 LINE",
"850 0 LINE",
"1103 0 LINE SMOOTH",
"1201 0 OFFCURVE",
"1250 33 OFFCURVE",
"1250 100 CURVE SMOOTH",
"1250 900 LINE SMOOTH",
"1250 1000 OFFCURVE",
"1189 1050 OFFCURVE",
"1067 1050 CURVE SMOOTH",
"850 1050 LINE SMOOTH",
"798 1050 OFFCURVE",
"747 1022 OFFCURVE",
"720 975 CURVE SMOOTH",
"707 951 OFFCURVE",
"700 926 OFFCURVE",
"700 900 CURVE SMOOTH",
"700 848 OFFCURVE",
"729 796 OFFCURVE",
"777 770 CURVE SMOOTH",
"800 757 OFFCURVE",
"825 750 OFFCURVE",
"850 750 CURVE",
"850 193 LINE",
"700 439 LINE",
"550 193 LINE",
"550 950 LINE SMOOTH",
"550 1017 OFFCURVE",
"500 1050 OFFCURVE",
"400 1050 CURVE SMOOTH",
"310 1050 LINE SMOOTH",
"219 1050 OFFCURVE",
"173 1065 OFFCURVE",
"172 1095 CURVE SMOOTH",
"171 1148 LINE",
"171 1149 LINE SMOOTH",
"171 1183 OFFCURVE",
"210 1200 OFFCURVE",
"289 1200 CURVE SMOOTH",
"488 1200 LINE SMOOTH",
"593 1200 OFFCURVE",
"663 1187 OFFCURVE",
"700 1160 CURVE",
"737 1187 OFFCURVE",
"788 1200 OFFCURVE",
"854 1200 CURVE SMOOTH",
"920 1200 OFFCURVE",
"994 1195 OFFCURVE",
"1077 1186 CURVE SMOOTH",
"1091 1185 OFFCURVE",
"1105 1184 OFFCURVE",
"1118 1184 CURVE SMOOTH",
"1179 1184 OFFCURVE",
"1223 1202 OFFCURVE",
"1250 1239 CURVE",
"1250 1500 LINE",
"1228 1483 OFFCURVE",
"1201 1475 OFFCURVE",
"1168 1475 CURVE SMOOTH",
"1152 1475 OFFCURVE",
"1134 1477 OFFCURVE",
"1115 1481 CURVE SMOOTH",
"1058 1494 OFFCURVE",
"980 1500 OFFCURVE",
"883 1500 CURVE SMOOTH",
"806 1500 OFFCURVE",
"745 1487 OFFCURVE",
"700 1460 CURVE",
"655 1487 OFFCURVE",
"602 1500 OFFCURVE",
"541 1500 CURVE SMOOTH",
"184 1500 LINE SMOOTH",
"95 1500 OFFCURVE",
"50 1467 OFFCURVE",
"50 1400 CURVE SMOOTH",
"50 1068 LINE SMOOTH",
"50 1022 OFFCURVE",
"83 986 OFFCURVE",
"150 961 CURVE",
"150 100 LINE SMOOTH"
);
},
{
closed = 1;
nodes = (
"823 850 OFFCURVE",
"800 873 OFFCURVE",
"800 900 CURVE SMOOTH",
"800 928 OFFCURVE",
"822 950 OFFCURVE",
"850 950 CURVE",
"850 850 LINE"
);
}
);
width = 1400;
}
);
note = uni1792;
unicode = 1792;
},
{
glyphname = uni1793;
lastChange = "2021-04-16 09:15:25 +0000";
layers = (
{
layerId = "246EC62F-25D4-447A-A2A1-FEFF923DA7D2";
paths = (
{
closed = 1;
nodes = (
"150 33 OFFCURVE",
"199 0 OFFCURVE",
"297 0 CURVE SMOOTH",
"550 0 LINE",
"700 246 LINE",
"850 0 LINE",
"1103 0 LINE SMOOTH",
"1201 0 OFFCURVE",
"1250 33 OFFCURVE",
"1250 100 CURVE SMOOTH",
"1250 550 LINE SMOOTH",
"1250 643 OFFCURVE",
"1133 712 OFFCURVE",
"900 757 CURVE SMOOTH",
"725 791 LINE SMOOTH",
"608 813 OFFCURVE",
"550 866 OFFCURVE",
"550 950 CURVE SMOOTH",
"550 1300 LINE SMOOTH",
"550 1367 OFFCURVE",
"600 1400 OFFCURVE",
"700 1400 CURVE SMOOTH",
"800 1400 OFFCURVE",
"850 1367 OFFCURVE",
"850 1300 CURVE SMOOTH",
"850 1200 LINE",
"799 1200 OFFCURVE",
"748 1173 OFFCURVE",
"721 1125 CURVE SMOOTH",
"707 1101 OFFCURVE",
"700 1076 OFFCURVE",
"700 1050 CURVE SMOOTH",
"700 998 OFFCURVE",
"728 947 OFFCURVE",
"776 920 CURVE SMOOTH",
"799 907 OFFCURVE",
"824 900 OFFCURVE",
"850 900 CURVE SMOOTH",
"1067 900 LINE SMOOTH",
"1189 900 OFFCURVE",
"1250 950 OFFCURVE",
"1250 1050 CURVE SMOOTH",
"1250 1300 LINE SMOOTH",
"1250 1433 OFFCURVE",
"1133 1500 OFFCURVE",
"900 1500 CURVE SMOOTH",
"500 1500 LINE SMOOTH",
"267 1500 OFFCURVE",
"150 1433 OFFCURVE",
"150 1300 CURVE SMOOTH",
"150 950 LINE SMOOTH",
"150 849 OFFCURVE",
"336 763 OFFCURVE",
"708 691 CURVE SMOOTH",
"850 664 LINE",
"850 193 LINE",
"700 439 LINE",
"550 193 LINE",
"550 550 LINE",
"150 680 LINE",
"150 100 LINE SMOOTH"
);
},
{
closed = 1;
nodes = (
"800 1077 OFFCURVE",
"823 1100 OFFCURVE",
"850 1100 CURVE",
"850 1000 LINE",
"822 1000 OFFCURVE",
"800 1022 OFFCURVE",
"800 1050 CURVE SMOOTH"
);
}
);
width = 1400;
}
);
note = uni1793;
unicode = 1793;
},
{
glyphname = uni1794;
lastChange = "2021-04-16 09:15:25 +0000";
layers = (
{
layerId = "246EC62F-25D4-447A-A2A1-FEFF923DA7D2";
paths = (
{
closed = 1;
nodes = (
"850 133 OFFCURVE",
"800 100 OFFCURVE",
"700 100 CURVE SMOOTH",
"600 100 OFFCURVE",
"550 133 OFFCURVE",
"550 200 CURVE SMOOTH",
"550 950 LINE SMOOTH",
"550 1017 OFFCURVE",
"483 1050 OFFCURVE",
"350 1050 CURVE SMOOTH",
"260 1050 LINE SMOOTH",
"168 1050 OFFCURVE",
"122 1065 OFFCURVE",
"122 1095 CURVE SMOOTH",
"122 1148 LINE SMOOTH",
"122 1183 OFFCURVE",
"152 1200 OFFCURVE",
"212 1200 CURVE SMOOTH",
"286 1200 OFFCURVE",
"353 1195 OFFCURVE",
"412 1186 CURVE SMOOTH",
"422 1185 OFFCURVE",
"432 1184 OFFCURVE",
"442 1184 CURVE SMOOTH",
"487 1184 OFFCURVE",
"523 1202 OFFCURVE",
"550 1239 CURVE",
"550 1500 LINE",
"528 1483 OFFCURVE",
"503 1475 OFFCURVE",
"475 1475 CURVE SMOOTH",
"461 1475 OFFCURVE",
"446 1477 OFFCURVE",
"430 1481 CURVE SMOOTH",
"383 1494 OFFCURVE",
"327 1500 OFFCURVE",
"263 1500 CURVE SMOOTH",
"134 1500 LINE SMOOTH",
"45 1500 OFFCURVE",
"0 1467 OFFCURVE",
"0 1400 CURVE SMOOTH",
"0 1068 LINE SMOOTH",
"0 1011 OFFCURVE",
"50 970 OFFCURVE",
"150 945 CURVE",
"150 200 LINE SMOOTH",
"150 67 OFFCURVE",
"267 0 OFFCURVE",
"500 0 CURVE SMOOTH",
"900 0 LINE SMOOTH",
"1133 0 OFFCURVE",
"1250 67 OFFCURVE",
"1250 200 CURVE SMOOTH",
"1250 950 LINE SMOOTH",
"1250 1017 OFFCURVE",
"1183 1050 OFFCURVE",
"1050 1050 CURVE SMOOTH",
"960 1050 LINE SMOOTH",
"868 1050 OFFCURVE",
"822 1065 OFFCURVE",
"822 1095 CURVE SMOOTH",
"822 1148 LINE SMOOTH",
"822 1183 OFFCURVE",
"852 1200 OFFCURVE",
"912 1200 CURVE SMOOTH",
"986 1200 OFFCURVE",
"1053 1195 OFFCURVE",
"1112 1186 CURVE SMOOTH",
"1122 1185 OFFCURVE",
"1132 1184 OFFCURVE",
"1142 1184 CURVE SMOOTH",
"1187 1184 OFFCURVE",
"1223 1202 OFFCURVE",
"1250 1239 CURVE",
"1250 1500 LINE",
"1228 1483 OFFCURVE",
"1203 1475 OFFCURVE",
"1175 1475 CURVE SMOOTH",
"1161 1475 OFFCURVE",
"1146 1477 OFFCURVE",
"1130 1481 CURVE SMOOTH",
"1083 1494 OFFCURVE",
"1027 1500 OFFCURVE",
"963 1500 CURVE SMOOTH",
"834 1500 LINE SMOOTH",
"745 1500 OFFCURVE",
"700 1467 OFFCURVE",
"700 1400 CURVE SMOOTH",
"700 1068 LINE SMOOTH",
"700 1011 OFFCURVE",
"750 970 OFFCURVE",
"850 945 CURVE",
"850 200 LINE SMOOTH"
);
}
);
width = 1400;
}
);
note = uni1794;
unicode = 1794;
},
{
glyphname = uni1795;
lastChange = "2021-04-16 09:15:25 +0000";
layers = (
{
layerId = "246EC62F-25D4-447A-A2A1-FEFF923DA7D2";
paths = (
{
closed = 1;
nodes = (
"1250 1000 OFFCURVE",
"1189 1050 OFFCURVE",
"1067 1050 CURVE SMOOTH",
"850 1050 LINE SMOOTH",
"798 1050 OFFCURVE",
"747 1022 OFFCURVE",
"720 975 CURVE SMOOTH",
"707 951 OFFCURVE",
"700 926 OFFCURVE",
"700 900 CURVE SMOOTH",
"700 848 OFFCURVE",
"729 796 OFFCURVE",
"777 770 CURVE SMOOTH",
"800 757 OFFCURVE",
"825 750 OFFCURVE",
"850 750 CURVE",
"850 193 LINE",
"700 439 LINE",
"550 193 LINE",
"550 950 LINE SMOOTH",
"550 1017 OFFCURVE",
"500 1050 OFFCURVE",
"400 1050 CURVE SMOOTH",
"310 1050 LINE SMOOTH",
"219 1050 OFFCURVE",
"173 1065 OFFCURVE",
"172 1095 CURVE SMOOTH",
"171 1148 LINE",
"171 1149 LINE SMOOTH",
"171 1183 OFFCURVE",
"234 1200 OFFCURVE",
"360 1200 CURVE SMOOTH",
"438 1200 OFFCURVE",
"523 1192 OFFCURVE",
"616 1175 CURVE SMOOTH",
"709 1158 OFFCURVE",
"783 1150 OFFCURVE",
"840 1150 CURVE SMOOTH",
"1113 1150 OFFCURVE",
"1250 1233 OFFCURVE",
"1250 1400 CURVE SMOOTH",
"1250 1570 LINE",
"950 1570 LINE",
"950 1490 OFFCURVE",
"913 1450 OFFCURVE",
"840 1450 CURVE SMOOTH",
"761 1450 OFFCURVE",
"690 1458 OFFCURVE",
"625 1475 CURVE SMOOTH",
"560 1492 OFFCURVE",
"472 1500 OFFCURVE",
"360 1500 CURVE SMOOTH",
"153 1500 OFFCURVE",
"50 1447 OFFCURVE",
"50 1340 CURVE SMOOTH",
"50 1068 LINE SMOOTH",
"50 1022 OFFCURVE",
"83 986 OFFCURVE",
"150 961 CURVE",
"150 100 LINE SMOOTH",
"150 33 OFFCURVE",
"199 0 OFFCURVE",
"297 0 CURVE SMOOTH",
"550 0 LINE",
"700 246 LINE",
"850 0 LINE",
"1103 0 LINE SMOOTH",
"1201 0 OFFCURVE",
"1250 33 OFFCURVE",
"1250 100 CURVE SMOOTH",
"1250 900 LINE SMOOTH"
);
},
{
closed = 1;
nodes = (
"823 850 OFFCURVE",
"800 873 OFFCURVE",
"800 900 CURVE SMOOTH",
"800 928 OFFCURVE",
"822 950 OFFCURVE",
"850 950 CURVE",
"850 850 LINE"
);
}
);
width = 1400;
}
);
note = uni1795;
unicode = 1795;
},
{
glyphname = uni1796;
lastChange = "2021-04-16 09:15:25 +0000";
layers = (
{
layerId = "246EC62F-25D4-447A-A2A1-FEFF923DA7D2";
paths = (
{
closed = 1;
nodes = (
"1250 1300 LINE SMOOTH",
"1250 1433 OFFCURVE",
"1167 1500 OFFCURVE",
"1000 1500 CURVE SMOOTH",
"900 1500 LINE SMOOTH",
"809 1500 OFFCURVE",
"728 1454 OFFCURVE",
"657 1363 CURVE",
"582 1454 OFFCURVE",
"497 1500 OFFCURVE",
"400 1500 CURVE SMOOTH",
"300 1500 LINE SMOOTH",
"133 1500 OFFCURVE",
"50 1447 OFFCURVE",
"50 1340 CURVE SMOOTH",
"50 1068 LINE SMOOTH",
"50 1022 OFFCURVE",
"83 986 OFFCURVE",
"150 961 CURVE",
"150 100 LINE SMOOTH",
"150 33 OFFCURVE",
"200 0 OFFCURVE",
"300 0 CURVE SMOOTH",
"550 0 LINE SMOOTH",
"650 0 OFFCURVE",
"700 83 OFFCURVE",
"700 250 CURVE SMOOTH",
"700 417 OFFCURVE",
"650 500 OFFCURVE",
"550 500 CURVE",
"550 950 LINE SMOOTH",
"550 1017 OFFCURVE",
"500 1050 OFFCURVE",
"400 1050 CURVE SMOOTH",
"310 1050 LINE SMOOTH",
"219 1050 OFFCURVE",
"173 1065 OFFCURVE",
"172 1095 CURVE SMOOTH",
"171 1148 LINE",
"171 1149 LINE SMOOTH",
"171 1183 OFFCURVE",
"214 1200 OFFCURVE",
"300 1200 CURVE SMOOTH",
"400 1200 LINE SMOOTH",
"502 1200 OFFCURVE",
"588 1162 OFFCURVE",
"657 1085 CURVE",
"719 1162 OFFCURVE",
"767 1200 OFFCURVE",
"800 1200 CURVE SMOOTH",
"833 1200 OFFCURVE",
"850 1167 OFFCURVE",
"850 1100 CURVE SMOOTH",
"850 0 LINE",
"1250 0 LINE"
);
},
{
closed = 1;
nodes = (
"583 370 OFFCURVE",
"600 330 OFFCURVE",
"600 250 CURVE SMOOTH",
"600 170 OFFCURVE",
"583 130 OFFCURVE",
"550 130 CURVE",
"550 370 LINE"
);
}
);
width = 1400;
}
);
note = uni1796;
unicode = 1796;
},
{
glyphname = uni1797;
lastChange = "2021-04-16 09:15:25 +0000";
layers = (
{
layerId = "246EC62F-25D4-447A-A2A1-FEFF923DA7D2";
paths = (
{
closed = 1;
nodes = (
"304 1134 OFFCURVE",
"285 1152 OFFCURVE",
"285 1166 CURVE SMOOTH",
"285 1170 OFFCURVE",
"287 1174 OFFCURVE",
"290 1178 CURVE",
"305 1193 OFFCURVE",
"368 1200 OFFCURVE",
"479 1200 CURVE SMOOTH",
"590 1200 OFFCURVE",
"663 1187 OFFCURVE",
"700 1160 CURVE",
"737 1187 OFFCURVE",
"788 1200 OFFCURVE",
"854 1200 CURVE SMOOTH",
"920 1200 OFFCURVE",
"994 1195 OFFCURVE",
"1077 1186 CURVE SMOOTH",
"1091 1185 OFFCURVE",
"1105 1184 OFFCURVE",
"1118 1184 CURVE SMOOTH",
"1179 1184 OFFCURVE",
"1223 1202 OFFCURVE",
"1250 1239 CURVE",
"1250 1500 LINE",
"1228 1483 OFFCURVE",
"1201 1475 OFFCURVE",
"1168 1475 CURVE SMOOTH",
"1152 1475 OFFCURVE",
"1134 1477 OFFCURVE",
"1115 1481 CURVE SMOOTH",
"1058 1494 OFFCURVE",
"980 1500 OFFCURVE",
"883 1500 CURVE SMOOTH",
"806 1500 OFFCURVE",
"745 1487 OFFCURVE",
"700 1460 CURVE",
"655 1487 OFFCURVE",
"602 1500 OFFCURVE",
"541 1500 CURVE SMOOTH",
"334 1500 LINE SMOOTH",
"211 1500 OFFCURVE",
"150 1467 OFFCURVE",
"150 1400 CURVE SMOOTH",
"150 1198 LINE SMOOTH",
"150 1143 OFFCURVE",
"180 1099 OFFCURVE",
"239 1067 CURVE",
"342 1112 LINE"
);
},
{
closed = 1;
nodes = (
"550 917 OFFCURVE",
"600 950 OFFCURVE",
"700 950 CURVE SMOOTH",
"800 950 OFFCURVE",
"850 917 OFFCURVE",
"850 850 CURVE SMOOTH",
"850 0 LINE",
"1250 0 LINE",
"1250 850 LINE SMOOTH",
"1250 983 OFFCURVE",
"1133 1050 OFFCURVE",
"900 1050 CURVE SMOOTH",
"500 1050 LINE SMOOTH",
"267 1050 OFFCURVE",
"150 983 OFFCURVE",
"150 850 CURVE SMOOTH",
"150 492 LINE",
"83 467 OFFCURVE",
"50 386 OFFCURVE",
"50 250 CURVE SMOOTH",
"50 83 OFFCURVE",
"100 0 OFFCURVE",
"200 0 CURVE SMOOTH",
"400 0 LINE SMOOTH",
"500 0 OFFCURVE",
"550 33 OFFCURVE",
"550 100 CURVE SMOOTH",
"550 850 LINE SMOOTH"
);
},
{
closed = 1;
nodes = (
"150 330 OFFCURVE",
"158 370 OFFCURVE",
"175 370 CURVE SMOOTH",
"192 370 OFFCURVE",
"200 330 OFFCURVE",
"200 250 CURVE SMOOTH",
"200 170 OFFCURVE",
"192 130 OFFCURVE",
"175 130 CURVE SMOOTH",
"158 130 OFFCURVE",
"150 170 OFFCURVE",
"150 250 CURVE SMOOTH"
);
}
);
width = 1400;
}
);
note = uni1797;
unicode = 1797;
},
{
glyphname = uni1798;
lastChange = "2021-04-16 09:15:25 +0000";
layers = (
{
layerId = "246EC62F-25D4-447A-A2A1-FEFF923DA7D2";
paths = (
{
closed = 1;
nodes = (
"850 700 LINE",
"850 200 LINE SMOOTH",
"850 133 OFFCURVE",
"800 100 OFFCURVE",
"700 100 CURVE SMOOTH",
"600 100 OFFCURVE",
"550 133 OFFCURVE",
"550 200 CURVE SMOOTH",
"550 950 LINE SMOOTH",
"550 1017 OFFCURVE",
"483 1050 OFFCURVE",
"350 1050 CURVE SMOOTH",
"260 1050 LINE SMOOTH",
"168 1050 OFFCURVE",
"122 1065 OFFCURVE",
"122 1095 CURVE SMOOTH",
"122 1148 LINE SMOOTH",
"122 1183 OFFCURVE",
"152 1200 OFFCURVE",
"212 1200 CURVE SMOOTH",
"286 1200 OFFCURVE",
"353 1195 OFFCURVE",
"412 1186 CURVE SMOOTH",
"422 1185 OFFCURVE",
"432 1184 OFFCURVE",
"442 1184 CURVE SMOOTH",
"487 1184 OFFCURVE",
"523 1202 OFFCURVE",
"550 1239 CURVE",
"550 1500 LINE",
"528 1483 OFFCURVE",
"503 1475 OFFCURVE",
"475 1475 CURVE SMOOTH",
"461 1475 OFFCURVE",
"446 1477 OFFCURVE",
"430 1481 CURVE SMOOTH",
"383 1494 OFFCURVE",
"327 1500 OFFCURVE",
"263 1500 CURVE SMOOTH",
"134 1500 LINE SMOOTH",
"45 1500 OFFCURVE",
"0 1467 OFFCURVE",
"0 1400 CURVE SMOOTH",
"0 1068 LINE SMOOTH",
"0 1011 OFFCURVE",
"50 970 OFFCURVE",
"150 945 CURVE",
"150 200 LINE SMOOTH",
"150 67 OFFCURVE",
"267 0 OFFCURVE",
"500 0 CURVE SMOOTH",
"900 0 LINE SMOOTH",
"1133 0 OFFCURVE",
"1250 67 OFFCURVE",
"1250 200 CURVE SMOOTH",
"1250 950 LINE SMOOTH",
"1250 1017 OFFCURVE",
"1183 1050 OFFCURVE",
"1050 1050 CURVE SMOOTH",
"960 1050 LINE SMOOTH",
"868 1050 OFFCURVE",
"822 1065 OFFCURVE",
"822 1095 CURVE SMOOTH",
"822 1148 LINE SMOOTH",
"822 1183 OFFCURVE",
"852 1200 OFFCURVE",
"912 1200 CURVE SMOOTH",
"986 1200 OFFCURVE",
"1053 1195 OFFCURVE",
"1112 1186 CURVE SMOOTH",
"1122 1185 OFFCURVE",
"1132 1184 OFFCURVE",
"1142 1184 CURVE SMOOTH",
"1187 1184 OFFCURVE",
"1223 1202 OFFCURVE",
"1250 1239 CURVE",
"1250 1500 LINE",
"1228 1483 OFFCURVE",
"1203 1475 OFFCURVE",
"1175 1475 CURVE SMOOTH",
"1161 1475 OFFCURVE",
"1146 1477 OFFCURVE",
"1130 1481 CURVE SMOOTH",
"1083 1494 OFFCURVE",
"1027 1500 OFFCURVE",
"963 1500 CURVE SMOOTH",
"834 1500 LINE SMOOTH",
"745 1500 OFFCURVE",
"700 1467 OFFCURVE",
"700 1400 CURVE SMOOTH",
"700 1068 LINE SMOOTH",
"700 1011 OFFCURVE",
"750 970 OFFCURVE",
"850 945 CURVE",
"850 800 LINE",
"600 800 LINE",
"600 700 LINE"
);
}
);
width = 1400;
}
);
note = uni1798;
unicode = 1798;
},
{
glyphname = uni1799;
lastChange = "2021-04-16 09:15:25 +0000";
layers = (
{
layerId = "246EC62F-25D4-447A-A2A1-FEFF923DA7D2";
paths = (
{
closed = 1;
nodes = (
"150 67 OFFCURVE",
"267 0 OFFCURVE",
"500 0 CURVE SMOOTH",
"1600 0 LINE SMOOTH",
"1833 0 OFFCURVE",
"1950 67 OFFCURVE",
"1950 200 CURVE SMOOTH",
"1950 950 LINE SMOOTH",
"1950 1017 OFFCURVE",
"1883 1050 OFFCURVE",
"1750 1050 CURVE SMOOTH",
"1660 1050 LINE SMOOTH",
"1568 1050 OFFCURVE",
"1522 1065 OFFCURVE",
"1522 1095 CURVE SMOOTH",
"1522 1148 LINE SMOOTH",
"1522 1183 OFFCURVE",
"1552 1200 OFFCURVE",
"1612 1200 CURVE SMOOTH",
"1686 1200 OFFCURVE",
"1753 1195 OFFCURVE",
"1812 1186 CURVE SMOOTH",
"1822 1185 OFFCURVE",
"1832 1184 OFFCURVE",
"1842 1184 CURVE SMOOTH",
"1887 1184 OFFCURVE",
"1923 1202 OFFCURVE",
"1950 1239 CURVE",
"1950 1500 LINE",
"1928 1483 OFFCURVE",
"1903 1475 OFFCURVE",
"1875 1475 CURVE SMOOTH",
"1861 1475 OFFCURVE",
"1846 1477 OFFCURVE",
"1830 1481 CURVE SMOOTH",
"1783 1494 OFFCURVE",
"1727 1500 OFFCURVE",
"1663 1500 CURVE SMOOTH",
"1534 1500 LINE SMOOTH",
"1445 1500 OFFCURVE",
"1400 1467 OFFCURVE",
"1400 1400 CURVE SMOOTH",
"1400 1068 LINE SMOOTH",
"1400 1011 OFFCURVE",
"1450 970 OFFCURVE",
"1550 945 CURVE",
"1550 200 LINE SMOOTH",
"1550 133 OFFCURVE",
"1500 100 OFFCURVE",
"1400 100 CURVE SMOOTH",
"1300 100 OFFCURVE",
"1250 133 OFFCURVE",
"1250 200 CURVE SMOOTH",
"1250 950 LINE SMOOTH",
"1250 1017 OFFCURVE",
"1183 1050 OFFCURVE",
"1050 1050 CURVE SMOOTH",
"960 1050 LINE SMOOTH",
"868 1050 OFFCURVE",
"822 1065 OFFCURVE",
"822 1095 CURVE SMOOTH",
"822 1148 LINE SMOOTH",
"822 1183 OFFCURVE",
"852 1200 OFFCURVE",
"912 1200 CURVE SMOOTH",
"986 1200 OFFCURVE",
"1053 1195 OFFCURVE",
"1112 1186 CURVE SMOOTH",
"1122 1185 OFFCURVE",
"1132 1184 OFFCURVE",
"1142 1184 CURVE SMOOTH",
"1187 1184 OFFCURVE",
"1223 1202 OFFCURVE",
"1250 1239 CURVE",
"1250 1500 LINE",
"1228 1483 OFFCURVE",
"1203 1475 OFFCURVE",
"1175 1475 CURVE SMOOTH",
"1161 1475 OFFCURVE",
"1146 1477 OFFCURVE",
"1130 1481 CURVE SMOOTH",
"1083 1494 OFFCURVE",
"1027 1500 OFFCURVE",
"963 1500 CURVE SMOOTH",
"834 1500 LINE SMOOTH",
"745 1500 OFFCURVE",
"700 1467 OFFCURVE",
"700 1400 CURVE SMOOTH",
"700 1068 LINE SMOOTH",
"700 1011 OFFCURVE",
"750 970 OFFCURVE",
"850 945 CURVE",
"850 200 LINE SMOOTH",
"850 133 OFFCURVE",
"800 100 OFFCURVE",
"700 100 CURVE SMOOTH",
"600 100 OFFCURVE",
"550 133 OFFCURVE",
"550 200 CURVE SMOOTH",
"550 1250 LINE SMOOTH",
"550 1317 OFFCURVE",
"567 1350 OFFCURVE",
"600 1350 CURVE",
"600 1500 LINE",
"350 1500 LINE SMOOTH",
"217 1500 OFFCURVE",
"150 1450 OFFCURVE",
"150 1350 CURVE SMOOTH",
"150 200 LINE SMOOTH"
);
}
);
width = 2100;
}
);
note = uni1799;
unicode = 1799;
},
{
glyphname = uni179A;
lastChange = "2021-04-16 09:15:25 +0000";
layers = (
{
layerId = "246EC62F-25D4-447A-A2A1-FEFF923DA7D2";
paths = (
{
closed = 1;
nodes = (
"50 500 OFFCURVE",
"0 417 OFFCURVE",
"0 250 CURVE SMOOTH",
"0 83 OFFCURVE",
"50 0 OFFCURVE",
"150 0 CURVE SMOOTH",
"400 0 LINE SMOOTH",
"500 0 OFFCURVE",
"550 33 OFFCURVE",
"550 100 CURVE SMOOTH",
"550 950 LINE SMOOTH",
"550 1017 OFFCURVE",
"483 1050 OFFCURVE",
"350 1050 CURVE SMOOTH",
"260 1050 LINE SMOOTH",
"168 1050 OFFCURVE",
"122 1065 OFFCURVE",
"122 1095 CURVE SMOOTH",
"122 1148 LINE SMOOTH",
"122 1183 OFFCURVE",
"152 1200 OFFCURVE",
"212 1200 CURVE SMOOTH",
"286 1200 OFFCURVE",
"353 1195 OFFCURVE",
"412 1186 CURVE SMOOTH",
"422 1185 OFFCURVE",
"432 1184 OFFCURVE",
"442 1184 CURVE SMOOTH",
"487 1184 OFFCURVE",
"523 1202 OFFCURVE",
"550 1239 CURVE",
"550 1500 LINE",
"528 1483 OFFCURVE",
"503 1475 OFFCURVE",
"475 1475 CURVE SMOOTH",
"461 1475 OFFCURVE",
"446 1477 OFFCURVE",
"430 1481 CURVE SMOOTH",
"383 1494 OFFCURVE",
"327 1500 OFFCURVE",
"263 1500 CURVE SMOOTH",
"134 1500 LINE SMOOTH",
"45 1500 OFFCURVE",
"0 1467 OFFCURVE",
"0 1400 CURVE SMOOTH",
"0 1068 LINE SMOOTH",
"0 1011 OFFCURVE",
"50 970 OFFCURVE",
"150 945 CURVE",
"150 500 LINE"
);
},
{
closed = 1;
nodes = (
"150 130 LINE",
"117 130 OFFCURVE",
"100 170 OFFCURVE",
"100 250 CURVE SMOOTH",
"100 330 OFFCURVE",
"117 370 OFFCURVE",
"150 370 CURVE"
);
}
);
width = 700;
}
);
note = uni179A;
unicode = 179A;
},
{
glyphname = uni179B;
lastChange = "2021-04-16 09:15:25 +0000";
layers = (
{
layerId = "246EC62F-25D4-447A-A2A1-FEFF923DA7D2";
paths = (
{
closed = 1;
nodes = (
"550 0 LINE SMOOTH",
"650 0 OFFCURVE",
"700 83 OFFCURVE",
"700 250 CURVE SMOOTH",
"700 417 OFFCURVE",
"650 500 OFFCURVE",
"550 500 CURVE",
"550 950 LINE SMOOTH",
"550 1017 OFFCURVE",
"500 1050 OFFCURVE",
"400 1050 CURVE SMOOTH",
"310 1050 LINE SMOOTH",
"219 1050 OFFCURVE",
"173 1065 OFFCURVE",
"172 1095 CURVE SMOOTH",
"171 1148 LINE",
"171 1149 LINE SMOOTH",
"171 1183 OFFCURVE",
"234 1200 OFFCURVE",
"360 1200 CURVE SMOOTH",
"750 1200 LINE SMOOTH",
"817 1200 OFFCURVE",
"850 1167 OFFCURVE",
"850 1100 CURVE SMOOTH",
"850 200 LINE SMOOTH",
"850 67 OFFCURVE",
"967 0 OFFCURVE",
"1200 0 CURVE SMOOTH",
"1600 0 LINE SMOOTH",
"1833 0 OFFCURVE",
"1950 67 OFFCURVE",
"1950 200 CURVE SMOOTH",
"1950 950 LINE SMOOTH",
"1950 1017 OFFCURVE",
"1883 1050 OFFCURVE",
"1750 1050 CURVE SMOOTH",
"1660 1050 LINE SMOOTH",
"1568 1050 OFFCURVE",
"1522 1065 OFFCURVE",
"1522 1095 CURVE SMOOTH",
"1522 1148 LINE SMOOTH",
"1522 1183 OFFCURVE",
"1552 1200 OFFCURVE",
"1612 1200 CURVE SMOOTH",
"1686 1200 OFFCURVE",
"1753 1195 OFFCURVE",
"1812 1186 CURVE SMOOTH",
"1822 1185 OFFCURVE",
"1832 1184 OFFCURVE",
"1842 1184 CURVE SMOOTH",
"1887 1184 OFFCURVE",
"1923 1202 OFFCURVE",
"1950 1239 CURVE",
"1950 1500 LINE",
"1928 1483 OFFCURVE",
"1903 1475 OFFCURVE",
"1875 1475 CURVE SMOOTH",
"1861 1475 OFFCURVE",
"1846 1477 OFFCURVE",
"1830 1481 CURVE SMOOTH",
"1783 1494 OFFCURVE",
"1727 1500 OFFCURVE",
"1663 1500 CURVE SMOOTH",
"1534 1500 LINE SMOOTH",
"1445 1500 OFFCURVE",
"1400 1467 OFFCURVE",
"1400 1400 CURVE SMOOTH",
"1400 1068 LINE SMOOTH",
"1400 1011 OFFCURVE",
"1450 970 OFFCURVE",
"1550 945 CURVE",
"1550 200 LINE SMOOTH",
"1550 133 OFFCURVE",
"1500 100 OFFCURVE",
"1400 100 CURVE SMOOTH",
"1300 100 OFFCURVE",
"1250 133 OFFCURVE",
"1250 200 CURVE SMOOTH",
"1250 1200 LINE SMOOTH",
"1250 1400 OFFCURVE",
"1150 1500 OFFCURVE",
"950 1500 CURVE SMOOTH",
"360 1500 LINE SMOOTH",
"153 1500 OFFCURVE",
"50 1447 OFFCURVE",
"50 1340 CURVE SMOOTH",
"50 1068 LINE SMOOTH",
"50 1022 OFFCURVE",
"83 986 OFFCURVE",
"150 961 CURVE",
"150 100 LINE SMOOTH",
"150 33 OFFCURVE",
"200 0 OFFCURVE",
"300 0 CURVE SMOOTH"
);
},
{
closed = 1;
nodes = (
"583 370 OFFCURVE",
"600 330 OFFCURVE",
"600 250 CURVE SMOOTH",
"600 170 OFFCURVE",
"583 130 OFFCURVE",
"550 130 CURVE",
"550 370 LINE"
);
}
);
width = 2100;
}
);
note = uni179B;
unicode = 179B;
},
{
glyphname = uni179C;
lastChange = "2021-04-16 09:15:25 +0000";
layers = (
{
layerId = "246EC62F-25D4-447A-A2A1-FEFF923DA7D2";
paths = (
{
closed = 1;
nodes = (
"50 500 OFFCURVE",
"0 417 OFFCURVE",
"0 250 CURVE SMOOTH",
"0 83 OFFCURVE",
"50 0 OFFCURVE",
"150 0 CURVE SMOOTH",
"400 0 LINE SMOOTH",
"500 0 OFFCURVE",
"550 33 OFFCURVE",
"550 100 CURVE SMOOTH",
"550 950 LINE SMOOTH",
"550 1017 OFFCURVE",
"483 1050 OFFCURVE",
"350 1050 CURVE SMOOTH",
"260 1050 LINE SMOOTH",
"168 1050 OFFCURVE",
"122 1065 OFFCURVE",
"122 1095 CURVE SMOOTH",
"122 1148 LINE SMOOTH",
"122 1183 OFFCURVE",
"141 1200 OFFCURVE",
"180 1200 CURVE SMOOTH",
"231 1200 OFFCURVE",
"270 1195 OFFCURVE",
"296 1185 CURVE SMOOTH",
"322 1175 OFFCURVE",
"357 1170 OFFCURVE",
"400 1170 CURVE SMOOTH",
"500 1170 OFFCURVE",
"550 1247 OFFCURVE",
"550 1400 CURVE SMOOTH",
"550 1570 LINE",
"470 1570 LINE",
"470 1490 OFFCURVE",
"447 1450 OFFCURVE",
"400 1450 CURVE SMOOTH",
"368 1450 OFFCURVE",
"335 1458 OFFCURVE",
"300 1475 CURVE SMOOTH",
"265 1492 OFFCURVE",
"232 1500 OFFCURVE",
"200 1500 CURVE SMOOTH",
"134 1500 LINE SMOOTH",
"45 1500 OFFCURVE",
"0 1467 OFFCURVE",
"0 1400 CURVE SMOOTH",
"0 1068 LINE SMOOTH",
"0 1011 OFFCURVE",
"50 970 OFFCURVE",
"150 945 CURVE",
"150 500 LINE"
);
},
{
closed = 1;
nodes = (
"100 330 OFFCURVE",
"117 370 OFFCURVE",
"150 370 CURVE",
"150 130 LINE",
"117 130 OFFCURVE",
"100 170 OFFCURVE",
"100 250 CURVE SMOOTH"
);
}
);
width = 700;
}
);
note = uni179C;
unicode = 179C;
},
{
glyphname = uni179D;
lastChange = "2021-04-16 09:15:25 +0000";
layers = (
{
layerId = "246EC62F-25D4-447A-A2A1-FEFF923DA7D2";
paths = (
{
closed = 1;
nodes = (
"304 1134 OFFCURVE",
"285 1152 OFFCURVE",
"285 1166 CURVE SMOOTH",
"285 1170 OFFCURVE",
"287 1174 OFFCURVE",
"290 1178 CURVE",
"305 1193 OFFCURVE",
"368 1200 OFFCURVE",
"479 1200 CURVE SMOOTH",
"590 1200 OFFCURVE",
"663 1187 OFFCURVE",
"700 1160 CURVE",
"737 1187 OFFCURVE",
"788 1200 OFFCURVE",
"854 1200 CURVE SMOOTH",
"920 1200 OFFCURVE",
"994 1195 OFFCURVE",
"1077 1186 CURVE SMOOTH",
"1091 1185 OFFCURVE",
"1105 1184 OFFCURVE",
"1118 1184 CURVE SMOOTH",
"1179 1184 OFFCURVE",
"1223 1202 OFFCURVE",
"1250 1239 CURVE",
"1250 1500 LINE",
"1228 1483 OFFCURVE",
"1201 1475 OFFCURVE",
"1168 1475 CURVE SMOOTH",
"1152 1475 OFFCURVE",
"1134 1477 OFFCURVE",
"1115 1481 CURVE SMOOTH",
"1058 1494 OFFCURVE",
"980 1500 OFFCURVE",
"883 1500 CURVE SMOOTH",
"806 1500 OFFCURVE",
"745 1487 OFFCURVE",
"700 1460 CURVE",
"655 1487 OFFCURVE",
"602 1500 OFFCURVE",
"541 1500 CURVE SMOOTH",
"334 1500 LINE SMOOTH",
"211 1500 OFFCURVE",
"150 1467 OFFCURVE",
"150 1400 CURVE SMOOTH",
"150 1198 LINE SMOOTH",
"150 1143 OFFCURVE",
"180 1099 OFFCURVE",
"239 1067 CURVE",
"342 1112 LINE"
);
},
{
closed = 1;
nodes = (
"850 400 LINE",
"850 0 LINE",
"1250 0 LINE",
"1250 400 LINE",
"1400 400 LINE",
"1400 500 LINE",
"1250 500 LINE",
"1250 850 LINE SMOOTH",
"1250 983 OFFCURVE",
"1133 1050 OFFCURVE",
"900 1050 CURVE SMOOTH",
"500 1050 LINE SMOOTH",
"267 1050 OFFCURVE",
"150 983 OFFCURVE",
"150 850 CURVE SMOOTH",
"150 0 LINE",
"550 0 LINE",
"610 222 OFFCURVE",
"676 363 OFFCURVE",
"749 424 CURVE",
"674 500 LINE",
"619 457 OFFCURVE",
"578 404 OFFCURVE",
"550 339 CURVE",
"550 850 LINE SMOOTH",
"550 917 OFFCURVE",
"600 950 OFFCURVE",
"700 950 CURVE SMOOTH",
"800 950 OFFCURVE",
"850 917 OFFCURVE",
"850 850 CURVE SMOOTH",
"850 500 LINE",
"800 500 LINE",
"800 400 LINE"
);
}
);
width = 1400;
}
);
note = uni179D;
unicode = 179D;
},
{
glyphname = uni179E;
lastChange = "2021-04-16 09:15:25 +0000";
layers = (
{
layerId = "246EC62F-25D4-447A-A2A1-FEFF923DA7D2";
paths = (
{
closed = 1;
nodes = (
"850 700 LINE",
"850 200 LINE SMOOTH",
"850 133 OFFCURVE",
"800 100 OFFCURVE",
"700 100 CURVE SMOOTH",
"600 100 OFFCURVE",
"550 133 OFFCURVE",
"550 200 CURVE SMOOTH",
"550 950 LINE SMOOTH",
"550 1017 OFFCURVE",
"483 1050 OFFCURVE",
"350 1050 CURVE SMOOTH",
"260 1050 LINE SMOOTH",
"168 1050 OFFCURVE",
"122 1065 OFFCURVE",
"122 1095 CURVE SMOOTH",
"122 1148 LINE SMOOTH",
"122 1183 OFFCURVE",
"152 1200 OFFCURVE",
"212 1200 CURVE SMOOTH",
"286 1200 OFFCURVE",
"353 1195 OFFCURVE",
"412 1186 CURVE SMOOTH",
"422 1185 OFFCURVE",
"432 1184 OFFCURVE",
"442 1184 CURVE SMOOTH",
"487 1184 OFFCURVE",
"523 1202 OFFCURVE",
"550 1239 CURVE",
"550 1500 LINE",
"528 1483 OFFCURVE",
"503 1475 OFFCURVE",
"475 1475 CURVE SMOOTH",
"461 1475 OFFCURVE",
"446 1477 OFFCURVE",
"430 1481 CURVE SMOOTH",
"383 1494 OFFCURVE",
"327 1500 OFFCURVE",
"263 1500 CURVE SMOOTH",
"134 1500 LINE SMOOTH",
"45 1500 OFFCURVE",
"0 1467 OFFCURVE",
"0 1400 CURVE SMOOTH",
"0 1068 LINE SMOOTH",
"0 1011 OFFCURVE",
"50 970 OFFCURVE",
"150 945 CURVE",
"150 200 LINE SMOOTH",
"150 67 OFFCURVE",
"267 0 OFFCURVE",
"500 0 CURVE SMOOTH",
"900 0 LINE SMOOTH",
"1133 0 OFFCURVE",
"1250 67 OFFCURVE",
"1250 200 CURVE SMOOTH",
"1250 700 LINE",
"1400 700 LINE",
"1400 800 LINE",
"1250 800 LINE",
"1250 950 LINE SMOOTH",
"1250 1017 OFFCURVE",
"1183 1050 OFFCURVE",
"1050 1050 CURVE SMOOTH",
"960 1050 LINE SMOOTH",
"868 1050 OFFCURVE",
"822 1065 OFFCURVE",
"822 1095 CURVE SMOOTH",
"822 1148 LINE SMOOTH",
"822 1183 OFFCURVE",
"852 1200 OFFCURVE",
"912 1200 CURVE SMOOTH",
"986 1200 OFFCURVE",
"1053 1195 OFFCURVE",
"1112 1186 CURVE SMOOTH",
"1122 1185 OFFCURVE",
"1132 1184 OFFCURVE",
"1142 1184 CURVE SMOOTH",
"1187 1184 OFFCURVE",
"1223 1202 OFFCURVE",
"1250 1239 CURVE",
"1250 1500 LINE",
"1228 1483 OFFCURVE",
"1203 1475 OFFCURVE",
"1175 1475 CURVE SMOOTH",
"1161 1475 OFFCURVE",
"1146 1477 OFFCURVE",
"1130 1481 CURVE SMOOTH",
"1083 1494 OFFCURVE",
"1027 1500 OFFCURVE",
"963 1500 CURVE SMOOTH",
"834 1500 LINE SMOOTH",
"745 1500 OFFCURVE",
"700 1467 OFFCURVE",
"700 1400 CURVE SMOOTH",
"700 1068 LINE SMOOTH",
"700 1011 OFFCURVE",
"750 970 OFFCURVE",
"850 945 CURVE",
"850 800 LINE",
"700 800 LINE",
"700 700 LINE"
);
}
);
width = 1400;
}
);
note = uni179E;
unicode = 179E;
},
{
glyphname = uni179F;
lastChange = "2021-04-16 09:15:25 +0000";
layers = (
{
layerId = "246EC62F-25D4-447A-A2A1-FEFF923DA7D2";
paths = (
{
closed = 1;
nodes = (
"170 948 OFFCURVE",
"150 905 OFFCURVE",
"150 850 CURVE SMOOTH",
"150 100 LINE SMOOTH",
"150 33 OFFCURVE",
"200 0 OFFCURVE",
"300 0 CURVE SMOOTH",
"550 0 LINE SMOOTH",
"650 0 OFFCURVE",
"700 83 OFFCURVE",
"700 250 CURVE SMOOTH",
"700 417 OFFCURVE",
"650 500 OFFCURVE",
"550 500 CURVE",
"550 850 LINE SMOOTH",
"550 917 OFFCURVE",
"600 950 OFFCURVE",
"700 950 CURVE SMOOTH",
"800 950 OFFCURVE",
"850 917 OFFCURVE",
"850 850 CURVE SMOOTH",
"850 200 LINE SMOOTH",
"850 67 OFFCURVE",
"967 0 OFFCURVE",
"1200 0 CURVE SMOOTH",
"1600 0 LINE SMOOTH",
"1833 0 OFFCURVE",
"1950 67 OFFCURVE",
"1950 200 CURVE SMOOTH",
"1950 950 LINE SMOOTH",
"1950 1017 OFFCURVE",
"1883 1050 OFFCURVE",
"1750 1050 CURVE SMOOTH",
"1660 1050 LINE SMOOTH",
"1568 1050 OFFCURVE",
"1522 1065 OFFCURVE",
"1522 1095 CURVE SMOOTH",
"1522 1148 LINE SMOOTH",
"1522 1183 OFFCURVE",
"1552 1200 OFFCURVE",
"1612 1200 CURVE SMOOTH",
"1686 1200 OFFCURVE",
"1753 1195 OFFCURVE",
"1812 1186 CURVE SMOOTH",
"1822 1185 OFFCURVE",
"1832 1184 OFFCURVE",
"1842 1184 CURVE SMOOTH",
"1887 1184 OFFCURVE",
"1923 1202 OFFCURVE",
"1950 1239 CURVE",
"1950 1500 LINE",
"1928 1483 OFFCURVE",
"1903 1475 OFFCURVE",
"1875 1475 CURVE SMOOTH",
"1861 1475 OFFCURVE",
"1846 1477 OFFCURVE",
"1830 1481 CURVE SMOOTH",
"1783 1494 OFFCURVE",
"1727 1500 OFFCURVE",
"1663 1500 CURVE SMOOTH",
"1534 1500 LINE SMOOTH",
"1445 1500 OFFCURVE",
"1400 1467 OFFCURVE",
"1400 1400 CURVE SMOOTH",
"1400 1068 LINE SMOOTH",
"1400 1011 OFFCURVE",
"1450 970 OFFCURVE",
"1550 945 CURVE",
"1550 200 LINE SMOOTH",
"1550 133 OFFCURVE",
"1500 100 OFFCURVE",
"1400 100 CURVE SMOOTH",
"1300 100 OFFCURVE",
"1250 133 OFFCURVE",
"1250 200 CURVE SMOOTH",
"1250 850 LINE SMOOTH",
"1250 983 OFFCURVE",
"1133 1050 OFFCURVE",
"900 1050 CURVE SMOOTH",
"400 1050 LINE SMOOTH",
"313 1050 OFFCURVE",
"270 1067 OFFCURVE",
"270 1100 CURVE SMOOTH",
"270 1150 LINE SMOOTH",
"270 1183 OFFCURVE",
"324 1200 OFFCURVE",
"432 1200 CURVE SMOOTH",
"546 1200 OFFCURVE",
"644 1195 OFFCURVE",
"727 1186 CURVE SMOOTH",
"741 1185 OFFCURVE",
"755 1184 OFFCURVE",
"768 1184 CURVE SMOOTH",
"829 1184 OFFCURVE",
"873 1202 OFFCURVE",
"900 1239 CURVE",
"900 1500 LINE",
"878 1483 OFFCURVE",
"851 1475 OFFCURVE",
"818 1475 CURVE SMOOTH",
"802 1475 OFFCURVE",
"784 1477 OFFCURVE",
"765 1481 CURVE SMOOTH",
"708 1494 OFFCURVE",
"630 1500 OFFCURVE",
"533 1500 CURVE SMOOTH",
"334 1500 LINE SMOOTH",
"211 1500 OFFCURVE",
"150 1467 OFFCURVE",
"150 1400 CURVE SMOOTH",
"150 1068 LINE SMOOTH",
"150 1029 OFFCURVE",
"170 1000 OFFCURVE",
"210 981 CURVE"
);
},
{
closed = 1;
nodes = (
"583 370 OFFCURVE",
"600 330 OFFCURVE",
"600 250 CURVE SMOOTH",
"600 170 OFFCURVE",
"583 130 OFFCURVE",
"550 130 CURVE",
"550 370 LINE"
);
}
);
width = 2100;
}
);
note = uni179F;
unicode = 179F;
},
{
glyphname = uni17A0;
lastChange = "2021-04-16 09:15:25 +0000";
layers = (
{
layerId = "246EC62F-25D4-447A-A2A1-FEFF923DA7D2";
paths = (
{
closed = 1;
nodes = (
"850 133 OFFCURVE",
"800 100 OFFCURVE",
"700 100 CURVE SMOOTH",
"600 100 OFFCURVE",
"550 133 OFFCURVE",
"550 200 CURVE SMOOTH",
"550 950 LINE SMOOTH",
"550 1017 OFFCURVE",
"483 1050 OFFCURVE",
"350 1050 CURVE SMOOTH",
"260 1050 LINE SMOOTH",
"168 1050 OFFCURVE",
"122 1065 OFFCURVE",
"122 1095 CURVE SMOOTH",
"122 1148 LINE SMOOTH",
"122 1183 OFFCURVE",
"152 1200 OFFCURVE",
"212 1200 CURVE SMOOTH",
"286 1200 OFFCURVE",
"353 1195 OFFCURVE",
"412 1186 CURVE SMOOTH",
"422 1185 OFFCURVE",
"432 1184 OFFCURVE",
"442 1184 CURVE SMOOTH",
"487 1184 OFFCURVE",
"523 1202 OFFCURVE",
"550 1239 CURVE",
"550 1500 LINE",
"528 1483 OFFCURVE",
"503 1475 OFFCURVE",
"475 1475 CURVE SMOOTH",
"461 1475 OFFCURVE",
"446 1477 OFFCURVE",
"430 1481 CURVE SMOOTH",
"383 1494 OFFCURVE",
"327 1500 OFFCURVE",
"263 1500 CURVE SMOOTH",
"134 1500 LINE SMOOTH",
"45 1500 OFFCURVE",
"0 1467 OFFCURVE",
"0 1400 CURVE SMOOTH",
"0 1068 LINE SMOOTH",
"0 1011 OFFCURVE",
"50 970 OFFCURVE",
"150 945 CURVE",
"150 200 LINE SMOOTH",
"150 67 OFFCURVE",
"267 0 OFFCURVE",
"500 0 CURVE SMOOTH",
"900 0 LINE SMOOTH",
"1133 0 OFFCURVE",
"1250 67 OFFCURVE",
"1250 200 CURVE SMOOTH",
"1250 950 LINE SMOOTH",
"1250 1017 OFFCURVE",
"1183 1050 OFFCURVE",
"1050 1050 CURVE SMOOTH",
"960 1050 LINE SMOOTH",
"868 1050 OFFCURVE",
"822 1065 OFFCURVE",
"822 1095 CURVE SMOOTH",
"822 1148 LINE SMOOTH",
"822 1183 OFFCURVE",
"852 1200 OFFCURVE",
"912 1200 CURVE SMOOTH",
"1450 1200 LINE SMOOTH",
"1517 1200 OFFCURVE",
"1550 1167 OFFCURVE",
"1550 1100 CURVE SMOOTH",
"1550 0 LINE",
"1950 0 LINE",
"1950 1200 LINE SMOOTH",
"1950 1400 OFFCURVE",
"1850 1500 OFFCURVE",
"1650 1500 CURVE SMOOTH",
"834 1500 LINE SMOOTH",
"745 1500 OFFCURVE",
"700 1467 OFFCURVE",
"700 1400 CURVE SMOOTH",
"700 1068 LINE SMOOTH",
"700 1011 OFFCURVE",
"750 970 OFFCURVE",
"850 945 CURVE",
"850 200 LINE SMOOTH"
);
}
);
width = 2100;
}
);
note = uni17A0;
unicode = 17A0;
},
{
glyphname = uni17A1;
lastChange = "2021-04-16 09:15:25 +0000";
layers = (
{
layerId = "246EC62F-25D4-447A-A2A1-FEFF923DA7D2";
paths = (
{
closed = 1;
nodes = (
"1216 561 OFFCURVE",
"1250 596 OFFCURVE",
"1250 644 CURVE SMOOTH",
"1250 716 LINE SMOOTH",
"1250 772 OFFCURVE",
"1217 800 OFFCURVE",
"1150 800 CURVE SMOOTH",
"1050 800 LINE SMOOTH",
"1016 800 OFFCURVE",
"983 793 OFFCURVE",
"952 778 CURVE SMOOTH",
"933 768 OFFCURVE",
"916 755 OFFCURVE",
"903 740 CURVE",
"766 772 LINE SMOOTH",
"622 805 OFFCURVE",
"550 868 OFFCURVE",
"550 960 CURVE SMOOTH",
"550 1300 LINE SMOOTH",
"550 1367 OFFCURVE",
"600 1400 OFFCURVE",
"700 1400 CURVE SMOOTH",
"800 1400 OFFCURVE",
"850 1367 OFFCURVE",
"850 1300 CURVE SMOOTH",
"850 1200 LINE",
"799 1200 OFFCURVE",
"748 1173 OFFCURVE",
"721 1125 CURVE SMOOTH",
"707 1101 OFFCURVE",
"700 1076 OFFCURVE",
"700 1050 CURVE SMOOTH",
"700 998 OFFCURVE",
"728 947 OFFCURVE",
"776 920 CURVE SMOOTH",
"799 907 OFFCURVE",
"824 900 OFFCURVE",
"850 900 CURVE SMOOTH",
"1067 900 LINE SMOOTH",
"1189 900 OFFCURVE",
"1250 950 OFFCURVE",
"1250 1050 CURVE SMOOTH",
"1250 1300 LINE SMOOTH",
"1250 1433 OFFCURVE",
"1133 1500 OFFCURVE",
"900 1500 CURVE SMOOTH",
"500 1500 LINE SMOOTH",
"267 1500 OFFCURVE",
"150 1433 OFFCURVE",
"150 1300 CURVE SMOOTH",
"150 960 LINE SMOOTH",
"150 859 OFFCURVE",
"284 775 OFFCURVE",
"551 710 CURVE SMOOTH",
"850 635 LINE",
"850 200 LINE SMOOTH",
"850 133 OFFCURVE",
"800 100 OFFCURVE",
"700 100 CURVE SMOOTH",
"600 100 OFFCURVE",
"550 133 OFFCURVE",
"550 200 CURVE SMOOTH",
"550 550 LINE",
"150 680 LINE",
"150 200 LINE SMOOTH",
"150 67 OFFCURVE",
"267 0 OFFCURVE",
"500 0 CURVE SMOOTH",
"900 0 LINE SMOOTH",
"1133 0 OFFCURVE",
"1250 67 OFFCURVE",
"1250 200 CURVE SMOOTH",
"1250 490 LINE",
"1147 539 LINE"
);
},
{
closed = 1;
nodes = (
"1250 -397 LINE",
"1250 -220 LINE SMOOTH",
"1250 -120 OFFCURVE",
"1183 -70 OFFCURVE",
"1050 -70 CURVE SMOOTH",
"800 -70 LINE",
"800 -170 LINE",
"833 -170 OFFCURVE",
"850 -203 OFFCURVE",
"850 -270 CURVE SMOOTH",
"850 -500 LINE SMOOTH",
"850 -567 OFFCURVE",
"899 -600 OFFCURVE",
"997 -600 CURVE SMOOTH",
"1250 -600 LINE",
"1400 -404 LINE",
"1550 -600 LINE",
"1803 -600 LINE SMOOTH",
"1901 -600 OFFCURVE",
"1950 -567 OFFCURVE",
"1950 -500 CURVE SMOOTH",
"1950 950 LINE SMOOTH",
"1950 1017 OFFCURVE",
"1883 1050 OFFCURVE",
"1750 1050 CURVE SMOOTH",
"1660 1050 LINE SMOOTH",
"1568 1050 OFFCURVE",
"1522 1065 OFFCURVE",
"1522 1095 CURVE SMOOTH",
"1522 1148 LINE SMOOTH",
"1522 1183 OFFCURVE",
"1552 1200 OFFCURVE",
"1612 1200 CURVE SMOOTH",
"1686 1200 OFFCURVE",
"1753 1195 OFFCURVE",
"1812 1186 CURVE SMOOTH",
"1822 1185 OFFCURVE",
"1832 1184 OFFCURVE",
"1842 1184 CURVE SMOOTH",
"1887 1184 OFFCURVE",
"1923 1202 OFFCURVE",
"1950 1239 CURVE",
"1950 1500 LINE",
"1928 1483 OFFCURVE",
"1903 1475 OFFCURVE",
"1875 1475 CURVE SMOOTH",
"1861 1475 OFFCURVE",
"1846 1477 OFFCURVE",
"1830 1481 CURVE SMOOTH",
"1783 1494 OFFCURVE",
"1727 1500 OFFCURVE",
"1663 1500 CURVE SMOOTH",
"1534 1500 LINE SMOOTH",
"1445 1500 OFFCURVE",
"1400 1467 OFFCURVE",
"1400 1400 CURVE SMOOTH",
"1400 1068 LINE SMOOTH",
"1400 1011 OFFCURVE",
"1450 970 OFFCURVE",
"1550 945 CURVE",
"1550 -397 LINE",
"1400 -211 LINE"
);
},
{
closed = 1;
nodes = (
"800 1077 OFFCURVE",
"823 1100 OFFCURVE",
"850 1100 CURVE",
"850 1000 LINE",
"822 1000 OFFCURVE",
"800 1022 OFFCURVE",
"800 1050 CURVE SMOOTH"
);
}
);
width = 2100;
}
);
note = uni17A1;
unicode = 17A1;
},
{
glyphname = uni17A2;
lastChange = "2021-04-16 09:15:25 +0000";
layers = (
{
layerId = "246EC62F-25D4-447A-A2A1-FEFF923DA7D2";
paths = (
{
closed = 1;
nodes = (
"50 500 OFFCURVE",
"0 417 OFFCURVE",
"0 250 CURVE SMOOTH",
"0 83 OFFCURVE",
"50 0 OFFCURVE",
"150 0 CURVE SMOOTH",
"400 0 LINE SMOOTH",
"500 0 OFFCURVE",
"550 33 OFFCURVE",
"550 100 CURVE SMOOTH",
"550 950 LINE SMOOTH",
"550 1017 OFFCURVE",
"483 1050 OFFCURVE",
"350 1050 CURVE SMOOTH",
"260 1050 LINE SMOOTH",
"168 1050 OFFCURVE",
"122 1065 OFFCURVE",
"122 1095 CURVE SMOOTH",
"122 1148 LINE SMOOTH",
"122 1183 OFFCURVE",
"152 1200 OFFCURVE",
"212 1200 CURVE SMOOTH",
"286 1200 OFFCURVE",
"353 1195 OFFCURVE",
"412 1186 CURVE SMOOTH",
"422 1185 OFFCURVE",
"432 1184 OFFCURVE",
"442 1184 CURVE SMOOTH",
"487 1184 OFFCURVE",
"523 1202 OFFCURVE",
"550 1239 CURVE",
"550 1500 LINE",
"528 1483 OFFCURVE",
"503 1475 OFFCURVE",
"475 1475 CURVE SMOOTH",
"461 1475 OFFCURVE",
"446 1477 OFFCURVE",
"430 1481 CURVE SMOOTH",
"383 1494 OFFCURVE",
"327 1500 OFFCURVE",
"263 1500 CURVE SMOOTH",
"134 1500 LINE SMOOTH",
"45 1500 OFFCURVE",
"0 1467 OFFCURVE",
"0 1400 CURVE SMOOTH",
"0 1068 LINE SMOOTH",
"0 1011 OFFCURVE",
"50 970 OFFCURVE",
"150 945 CURVE",
"150 500 LINE"
);
},
{
closed = 1;
nodes = (
"850 700 LINE",
"850 500 LINE",
"750 500 OFFCURVE",
"700 417 OFFCURVE",
"700 250 CURVE SMOOTH",
"700 83 OFFCURVE",
"750 0 OFFCURVE",
"850 0 CURVE SMOOTH",
"1100 0 LINE SMOOTH",
"1200 0 OFFCURVE",
"1250 33 OFFCURVE",
"1250 100 CURVE SMOOTH",
"1250 950 LINE SMOOTH",
"1250 1017 OFFCURVE",
"1183 1050 OFFCURVE",
"1050 1050 CURVE SMOOTH",
"960 1050 LINE SMOOTH",
"868 1050 OFFCURVE",
"822 1065 OFFCURVE",
"822 1095 CURVE SMOOTH",
"822 1148 LINE SMOOTH",
"822 1183 OFFCURVE",
"852 1200 OFFCURVE",
"912 1200 CURVE SMOOTH",
"986 1200 OFFCURVE",
"1053 1195 OFFCURVE",
"1112 1186 CURVE SMOOTH",
"1122 1185 OFFCURVE",
"1132 1184 OFFCURVE",
"1142 1184 CURVE SMOOTH",
"1187 1184 OFFCURVE",
"1223 1202 OFFCURVE",
"1250 1239 CURVE",
"1250 1500 LINE",
"1228 1483 OFFCURVE",
"1203 1475 OFFCURVE",
"1175 1475 CURVE SMOOTH",
"1161 1475 OFFCURVE",
"1146 1477 OFFCURVE",
"1130 1481 CURVE SMOOTH",
"1083 1494 OFFCURVE",
"1027 1500 OFFCURVE",
"963 1500 CURVE SMOOTH",
"834 1500 LINE SMOOTH",
"745 1500 OFFCURVE",
"700 1467 OFFCURVE",
"700 1400 CURVE SMOOTH",
"700 1068 LINE SMOOTH",
"700 1011 OFFCURVE",
"750 970 OFFCURVE",
"850 945 CURVE",
"850 800 LINE",
"600 800 LINE",
"600 700 LINE"
);
},
{
closed = 1;
nodes = (
"100 330 OFFCURVE",
"117 370 OFFCURVE",
"150 370 CURVE",
"150 130 LINE",
"117 130 OFFCURVE",
"100 170 OFFCURVE",
"100 250 CURVE SMOOTH"
);
},
{
closed = 1;
nodes = (
"800 330 OFFCURVE",
"817 370 OFFCURVE",
"850 370 CURVE",
"850 130 LINE",
"817 130 OFFCURVE",
"800 170 OFFCURVE",
"800 250 CURVE SMOOTH"
);
}
);
width = 1400;
}
);
note = uni17A2;
unicode = 17A2;
},
{
glyphname = uni17A5;
lastChange = "2021-04-16 09:15:25 +0000";
layers = (
{
layerId = "246EC62F-25D4-447A-A2A1-FEFF923DA7D2";
paths = (
{
closed = 1;
nodes = (
"304 1134 OFFCURVE",
"285 1152 OFFCURVE",
"285 1166 CURVE SMOOTH",
"285 1170 OFFCURVE",
"287 1174 OFFCURVE",
"290 1178 CURVE",
"305 1193 OFFCURVE",
"342 1200 OFFCURVE",
"399 1200 CURVE SMOOTH",
"460 1200 OFFCURVE",
"534 1192 OFFCURVE",
"623 1175 CURVE SMOOTH",
"711 1158 OFFCURVE",
"783 1150 OFFCURVE",
"840 1150 CURVE SMOOTH",
"1113 1150 OFFCURVE",
"1250 1233 OFFCURVE",
"1250 1400 CURVE SMOOTH",
"1250 1570 LINE",
"950 1570 LINE",
"950 1490 OFFCURVE",
"913 1450 OFFCURVE",
"840 1450 CURVE SMOOTH",
"761 1450 OFFCURVE",
"690 1458 OFFCURVE",
"625 1475 CURVE SMOOTH",
"560 1492 OFFCURVE",
"498 1500 OFFCURVE",
"438 1500 CURVE SMOOTH",
"334 1500 LINE SMOOTH",
"211 1500 OFFCURVE",
"150 1467 OFFCURVE",
"150 1400 CURVE SMOOTH",
"150 1198 LINE SMOOTH",
"150 1143 OFFCURVE",
"180 1099 OFFCURVE",
"239 1067 CURVE",
"342 1112 LINE"
);
},
{
closed = 1;
nodes = (
"150 33 OFFCURVE",
"200 0 OFFCURVE",
"300 0 CURVE SMOOTH",
"550 0 LINE SMOOTH",
"650 0 OFFCURVE",
"700 83 OFFCURVE",
"700 250 CURVE SMOOTH",
"700 417 OFFCURVE",
"650 500 OFFCURVE",
"550 500 CURVE",
"550 850 LINE SMOOTH",
"550 917 OFFCURVE",
"600 950 OFFCURVE",
"700 950 CURVE SMOOTH",
"800 950 OFFCURVE",
"850 917 OFFCURVE",
"850 850 CURVE SMOOTH",
"850 0 LINE",
"1250 0 LINE",
"1250 850 LINE SMOOTH",
"1250 983 OFFCURVE",
"1133 1050 OFFCURVE",
"900 1050 CURVE SMOOTH",
"500 1050 LINE SMOOTH",
"267 1050 OFFCURVE",
"150 983 OFFCURVE",
"150 850 CURVE SMOOTH",
"150 100 LINE SMOOTH"
);
},
{
closed = 1;
nodes = (
"583 370 OFFCURVE",
"600 330 OFFCURVE",
"600 250 CURVE SMOOTH",
"600 170 OFFCURVE",
"583 130 OFFCURVE",
"550 130 CURVE",
"550 370 LINE"
);
}
);
width = 1400;
}
);
note = uni17A5;
unicode = 17A5;
},
{
glyphname = uni17A6;
lastChange = "2021-04-16 09:15:25 +0000";
layers = (
{
layerId = "246EC62F-25D4-447A-A2A1-FEFF923DA7D2";
paths = (
{
closed = 1;
nodes = (
"1675 -700 LINE SMOOTH",
"1858 -700 OFFCURVE",
"1950 -633 OFFCURVE",
"1950 -500 CURVE SMOOTH",
"1950 1650 LINE SMOOTH",
"1950 1783 OFFCURVE",
"1833 1850 OFFCURVE",
"1600 1850 CURVE SMOOTH",
"1250 1850 LINE",
"1250 2150 LINE SMOOTH",
"1250 2250 OFFCURVE",
"1183 2300 OFFCURVE",
"1050 2300 CURVE SMOOTH",
"800 2300 LINE",
"800 2150 LINE",
"833 2150 OFFCURVE",
"850 2117 OFFCURVE",
"850 2050 CURVE SMOOTH",
"850 1650 LINE",
"1250 1650 LINE",
"1250 1717 OFFCURVE",
"1300 1750 OFFCURVE",
"1400 1750 CURVE SMOOTH",
"1500 1750 OFFCURVE",
"1550 1717 OFFCURVE",
"1550 1650 CURVE SMOOTH",
"1550 -500 LINE SMOOTH",
"1550 -567 OFFCURVE",
"1500 -600 OFFCURVE",
"1400 -600 CURVE SMOOTH",
"1300 -600 OFFCURVE",
"1250 -567 OFFCURVE",
"1250 -500 CURVE SMOOTH",
"1250 -300 LINE SMOOTH",
"1250 -167 OFFCURVE",
"1133 -100 OFFCURVE",
"900 -100 CURVE SMOOTH",
"500 -100 LINE SMOOTH",
"267 -100 OFFCURVE",
"150 -167 OFFCURVE",
"150 -300 CURVE SMOOTH",
"150 -600 LINE SMOOTH",
"150 -667 OFFCURVE",
"200 -700 OFFCURVE",
"300 -700 CURVE SMOOTH",
"550 -700 LINE SMOOTH",
"650 -700 OFFCURVE",
"700 -645 OFFCURVE",
"700 -535 CURVE SMOOTH",
"700 -425 OFFCURVE",
"650 -370 OFFCURVE",
"550 -370 CURVE",
"550 -300 LINE SMOOTH",
"550 -233 OFFCURVE",
"600 -200 OFFCURVE",
"700 -200 CURVE SMOOTH",
"800 -200 OFFCURVE",
"850 -233 OFFCURVE",
"850 -300 CURVE SMOOTH",
"850 -500 LINE SMOOTH",
"850 -633 OFFCURVE",
"942 -700 OFFCURVE",
"1125 -700 CURVE SMOOTH"
);
},
{
closed = 1;
nodes = (
"550 1367 OFFCURVE",
"600 1400 OFFCURVE",
"700 1400 CURVE SMOOTH",
"800 1400 OFFCURVE",
"850 1367 OFFCURVE",
"850 1300 CURVE SMOOTH",
"850 0 LINE",
"1250 0 LINE",
"1250 1300 LINE SMOOTH",
"1250 1433 OFFCURVE",
"1133 1500 OFFCURVE",
"900 1500 CURVE SMOOTH",
"500 1500 LINE SMOOTH",
"267 1500 OFFCURVE",
"150 1433 OFFCURVE",
"150 1300 CURVE SMOOTH",
"150 100 LINE SMOOTH",
"150 33 OFFCURVE",
"200 0 OFFCURVE",
"300 0 CURVE SMOOTH",
"550 0 LINE SMOOTH",
"650 0 OFFCURVE",
"700 83 OFFCURVE",
"700 250 CURVE SMOOTH",
"700 417 OFFCURVE",
"650 500 OFFCURVE",
"550 500 CURVE",
"550 1300 LINE SMOOTH"
);
},
{
closed = 1;
nodes = (
"583 370 OFFCURVE",
"600 330 OFFCURVE",
"600 250 CURVE SMOOTH",
"600 170 OFFCURVE",
"583 130 OFFCURVE",
"550 130 CURVE",
"550 370 LINE"
);
},
{
closed = 1;
nodes = (
"583 -500 OFFCURVE",
"600 -512 OFFCURVE",
"600 -535 CURVE SMOOTH",
"600 -558 OFFCURVE",
"583 -570 OFFCURVE",
"550 -570 CURVE",
"550 -500 LINE"
);
}
);
width = 2100;
}
);
note = uni17A6;
unicode = 17A6;
},
{
glyphname = uni17A7;
lastChange = "2021-04-16 09:15:25 +0000";
layers = (
{
layerId = "246EC62F-25D4-447A-A2A1-FEFF923DA7D2";
paths = (
{
closed = 1;
nodes = (
"150 67 OFFCURVE",
"267 0 OFFCURVE",
"500 0 CURVE SMOOTH",
"640 0 LINE SMOOTH",
"722 0 OFFCURVE",
"792 25 OFFCURVE",
"850 75 CURVE",
"850 0 LINE",
"1250 0 LINE",
"1250 680 LINE",
"850 550 LINE",
"850 320 LINE",
"807 173 OFFCURVE",
"737 100 OFFCURVE",
"640 100 CURVE SMOOTH",
"580 100 OFFCURVE",
"550 133 OFFCURVE",
"550 200 CURVE SMOOTH",
"550 500 LINE SMOOTH",
"550 585 OFFCURVE",
"600 651 OFFCURVE",
"700 696 CURVE SMOOTH",
"850 763 LINE",
"1117 853 OFFCURVE",
"1250 932 OFFCURVE",
"1250 1000 CURVE SMOOTH",
"1250 1300 LINE SMOOTH",
"1250 1433 OFFCURVE",
"1133 1500 OFFCURVE",
"900 1500 CURVE SMOOTH",
"500 1500 LINE SMOOTH",
"267 1500 OFFCURVE",
"150 1433 OFFCURVE",
"150 1300 CURVE SMOOTH",
"150 1050 LINE SMOOTH",
"150 950 OFFCURVE",
"211 900 OFFCURVE",
"333 900 CURVE SMOOTH",
"550 900 LINE SMOOTH",
"602 900 OFFCURVE",
"653 928 OFFCURVE",
"680 976 CURVE SMOOTH",
"693 999 OFFCURVE",
"700 1024 OFFCURVE",
"700 1050 CURVE SMOOTH",
"700 1102 OFFCURVE",
"671 1155 OFFCURVE",
"624 1181 CURVE SMOOTH",
"600 1194 OFFCURVE",
"575 1200 OFFCURVE",
"550 1200 CURVE",
"550 1300 LINE SMOOTH",
"550 1367 OFFCURVE",
"600 1400 OFFCURVE",
"700 1400 CURVE SMOOTH",
"800 1400 OFFCURVE",
"850 1367 OFFCURVE",
"850 1300 CURVE SMOOTH",
"850 1000 LINE SMOOTH",
"850 915 OFFCURVE",
"800 849 OFFCURVE",
"700 804 CURVE SMOOTH",
"550 737 LINE",
"283 647 OFFCURVE",
"150 568 OFFCURVE",
"150 500 CURVE SMOOTH",
"150 200 LINE SMOOTH"
);
},
{
closed = 1;
nodes = (
"577 1100 OFFCURVE",
"600 1077 OFFCURVE",
"600 1050 CURVE SMOOTH",
"600 1022 OFFCURVE",
"578 1000 OFFCURVE",
"550 1000 CURVE",
"550 1100 LINE"
);
}
);
width = 1400;
}
);
note = uni17A7;
unicode = 17A7;
},
{
glyphname = uni17A8;
lastChange = "2021-04-16 09:15:25 +0000";
layers = (
{
layerId = "246EC62F-25D4-447A-A2A1-FEFF923DA7D2";
paths = (
{
closed = 1;
nodes = (
"304 1584 OFFCURVE",
"285 1602 OFFCURVE",
"285 1616 CURVE SMOOTH",
"285 1620 OFFCURVE",
"287 1624 OFFCURVE",
"290 1628 CURVE",
"305 1643 OFFCURVE",
"368 1650 OFFCURVE",
"479 1650 CURVE SMOOTH",
"590 1650 OFFCURVE",
"663 1637 OFFCURVE",
"700 1610 CURVE",
"737 1637 OFFCURVE",
"788 1650 OFFCURVE",
"854 1650 CURVE SMOOTH",
"920 1650 OFFCURVE",
"994 1645 OFFCURVE",
"1077 1636 CURVE SMOOTH",
"1091 1635 OFFCURVE",
"1105 1634 OFFCURVE",
"1118 1634 CURVE SMOOTH",
"1179 1634 OFFCURVE",
"1223 1652 OFFCURVE",
"1250 1689 CURVE",
"1250 1950 LINE",
"1228 1933 OFFCURVE",
"1201 1925 OFFCURVE",
"1168 1925 CURVE SMOOTH",
"1152 1925 OFFCURVE",
"1134 1927 OFFCURVE",
"1115 1931 CURVE SMOOTH",
"1058 1944 OFFCURVE",
"980 1950 OFFCURVE",
"883 1950 CURVE SMOOTH",
"806 1950 OFFCURVE",
"745 1937 OFFCURVE",
"700 1910 CURVE",
"655 1937 OFFCURVE",
"602 1950 OFFCURVE",
"541 1950 CURVE SMOOTH",
"334 1950 LINE SMOOTH",
"211 1950 OFFCURVE",
"150 1917 OFFCURVE",
"150 1850 CURVE SMOOTH",
"150 1648 LINE SMOOTH",
"150 1593 OFFCURVE",
"180 1549 OFFCURVE",
"239 1517 CURVE",
"342 1562 LINE"
);
},
{
closed = 1;
nodes = (
"150 67 OFFCURVE",
"267 0 OFFCURVE",
"500 0 CURVE SMOOTH",
"640 0 LINE SMOOTH",
"722 0 OFFCURVE",
"792 25 OFFCURVE",
"850 75 CURVE",
"850 0 LINE",
"1250 0 LINE",
"1250 680 LINE",
"850 550 LINE",
"850 320 LINE",
"807 173 OFFCURVE",
"737 100 OFFCURVE",
"640 100 CURVE SMOOTH",
"580 100 OFFCURVE",
"550 133 OFFCURVE",
"550 200 CURVE SMOOTH",
"550 500 LINE SMOOTH",
"550 585 OFFCURVE",
"600 651 OFFCURVE",
"700 696 CURVE SMOOTH",
"850 763 LINE",
"1117 853 OFFCURVE",
"1250 932 OFFCURVE",
"1250 1000 CURVE SMOOTH",
"1250 1300 LINE SMOOTH",
"1250 1433 OFFCURVE",
"1133 1500 OFFCURVE",
"900 1500 CURVE SMOOTH",
"500 1500 LINE SMOOTH",
"267 1500 OFFCURVE",
"150 1433 OFFCURVE",
"150 1300 CURVE SMOOTH",
"150 1050 LINE SMOOTH",
"150 950 OFFCURVE",
"211 900 OFFCURVE",
"333 900 CURVE SMOOTH",
"550 900 LINE SMOOTH",
"602 900 OFFCURVE",
"653 928 OFFCURVE",
"680 976 CURVE SMOOTH",
"693 999 OFFCURVE",
"700 1024 OFFCURVE",
"700 1050 CURVE SMOOTH",
"700 1102 OFFCURVE",
"671 1155 OFFCURVE",
"624 1181 CURVE SMOOTH",
"600 1194 OFFCURVE",
"575 1200 OFFCURVE",
"550 1200 CURVE",
"550 1300 LINE SMOOTH",
"550 1367 OFFCURVE",
"600 1400 OFFCURVE",
"700 1400 CURVE SMOOTH",
"800 1400 OFFCURVE",
"850 1367 OFFCURVE",
"850 1300 CURVE SMOOTH",
"850 1000 LINE SMOOTH",
"850 915 OFFCURVE",
"800 849 OFFCURVE",
"700 804 CURVE SMOOTH",
"550 737 LINE",
"283 647 OFFCURVE",
"150 568 OFFCURVE",
"150 500 CURVE SMOOTH",
"150 200 LINE SMOOTH"
);
},
{
closed = 1;
nodes = (
"577 1100 OFFCURVE",
"600 1077 OFFCURVE",
"600 1050 CURVE SMOOTH",
"600 1022 OFFCURVE",
"578 1000 OFFCURVE",
"550 1000 CURVE",
"550 1100 LINE"
);
}
);
width = 1400;
}
);
note = uni17A8;
unicode = 17A8;
},
{
glyphname = uni17A9;
lastChange = "2021-04-16 09:15:25 +0000";
layers = (
{
layerId = "246EC62F-25D4-447A-A2A1-FEFF923DA7D2";
paths = (
{
closed = 1;
nodes = (
"850 320 LINE",
"807 173 OFFCURVE",
"737 100 OFFCURVE",
"640 100 CURVE SMOOTH",
"580 100 OFFCURVE",
"550 133 OFFCURVE",
"550 200 CURVE SMOOTH",
"550 500 LINE SMOOTH",
"550 585 OFFCURVE",
"600 651 OFFCURVE",
"700 696 CURVE SMOOTH",
"850 763 LINE",
"1117 853 OFFCURVE",
"1250 932 OFFCURVE",
"1250 1000 CURVE SMOOTH",
"1250 1300 LINE SMOOTH",
"1250 1433 OFFCURVE",
"1133 1500 OFFCURVE",
"900 1500 CURVE SMOOTH",
"500 1500 LINE SMOOTH",
"267 1500 OFFCURVE",
"150 1433 OFFCURVE",
"150 1300 CURVE SMOOTH",
"150 1050 LINE SMOOTH",
"150 950 OFFCURVE",
"211 900 OFFCURVE",
"333 900 CURVE SMOOTH",
"550 900 LINE SMOOTH",
"602 900 OFFCURVE",
"653 928 OFFCURVE",
"680 976 CURVE SMOOTH",
"693 999 OFFCURVE",
"700 1024 OFFCURVE",
"700 1050 CURVE SMOOTH",
"700 1102 OFFCURVE",
"671 1155 OFFCURVE",
"624 1181 CURVE SMOOTH",
"600 1194 OFFCURVE",
"575 1200 OFFCURVE",
"550 1200 CURVE",
"550 1300 LINE SMOOTH",
"550 1367 OFFCURVE",
"600 1400 OFFCURVE",
"700 1400 CURVE SMOOTH",
"800 1400 OFFCURVE",
"850 1367 OFFCURVE",
"850 1300 CURVE SMOOTH",
"850 1000 LINE SMOOTH",
"850 915 OFFCURVE",
"800 849 OFFCURVE",
"700 804 CURVE SMOOTH",
"550 737 LINE",
"283 647 OFFCURVE",
"150 568 OFFCURVE",
"150 500 CURVE SMOOTH",
"150 200 LINE SMOOTH",
"150 67 OFFCURVE",
"267 0 OFFCURVE",
"500 0 CURVE SMOOTH",
"640 0 LINE SMOOTH",
"722 0 OFFCURVE",
"792 25 OFFCURVE",
"850 75 CURVE",
"850 0 LINE",
"1052 0 LINE",
"1052 616 LINE",
"850 550 LINE"
);
},
{
closed = 1;
nodes = (
"577 1100 OFFCURVE",
"600 1077 OFFCURVE",
"600 1050 CURVE SMOOTH",
"600 1022 OFFCURVE",
"578 1000 OFFCURVE",
"550 1000 CURVE",
"550 1100 LINE"
);
},
{
closed = 1;
nodes = (
"1350 680 LINE",
"1152 616 LINE",
"1152 0 LINE",
"1350 0 LINE"
);
}
);
width = 1400;
}
);
note = uni17A9;
unicode = 17A9;
},
{
glyphname = uni17AA;
lastChange = "2021-04-16 09:15:25 +0000";
layers = (
{
layerId = "246EC62F-25D4-447A-A2A1-FEFF923DA7D2";
paths = (
{
closed = 1;
nodes = (
"304 1584 OFFCURVE",
"285 1602 OFFCURVE",
"285 1616 CURVE SMOOTH",
"285 1620 OFFCURVE",
"287 1624 OFFCURVE",
"290 1628 CURVE",
"305 1643 OFFCURVE",
"342 1650 OFFCURVE",
"399 1650 CURVE SMOOTH",
"460 1650 OFFCURVE",
"534 1642 OFFCURVE",
"623 1625 CURVE SMOOTH",
"711 1608 OFFCURVE",
"783 1600 OFFCURVE",
"840 1600 CURVE SMOOTH",
"1113 1600 OFFCURVE",
"1250 1683 OFFCURVE",
"1250 1850 CURVE SMOOTH",
"1250 2020 LINE",
"950 2020 LINE",
"950 1940 OFFCURVE",
"913 1900 OFFCURVE",
"840 1900 CURVE SMOOTH",
"761 1900 OFFCURVE",
"690 1908 OFFCURVE",
"625 1925 CURVE SMOOTH",
"560 1942 OFFCURVE",
"498 1950 OFFCURVE",
"438 1950 CURVE SMOOTH",
"334 1950 LINE SMOOTH",
"211 1950 OFFCURVE",
"150 1917 OFFCURVE",
"150 1850 CURVE SMOOTH",
"150 1648 LINE SMOOTH",
"150 1593 OFFCURVE",
"180 1549 OFFCURVE",
"239 1517 CURVE",
"342 1562 LINE"
);
},
{
closed = 1;
nodes = (
"150 67 OFFCURVE",
"267 0 OFFCURVE",
"500 0 CURVE SMOOTH",
"640 0 LINE SMOOTH",
"722 0 OFFCURVE",
"792 25 OFFCURVE",
"850 75 CURVE",
"850 0 LINE",
"1250 0 LINE",
"1250 680 LINE",
"850 550 LINE",
"850 320 LINE",
"807 173 OFFCURVE",
"737 100 OFFCURVE",
"640 100 CURVE SMOOTH",
"580 100 OFFCURVE",
"550 133 OFFCURVE",
"550 200 CURVE SMOOTH",
"550 500 LINE SMOOTH",
"550 585 OFFCURVE",
"600 651 OFFCURVE",
"700 696 CURVE SMOOTH",
"850 763 LINE",
"1117 853 OFFCURVE",
"1250 932 OFFCURVE",
"1250 1000 CURVE SMOOTH",
"1250 1300 LINE SMOOTH",
"1250 1433 OFFCURVE",
"1133 1500 OFFCURVE",
"900 1500 CURVE SMOOTH",
"500 1500 LINE SMOOTH",
"267 1500 OFFCURVE",
"150 1433 OFFCURVE",
"150 1300 CURVE SMOOTH",
"150 1050 LINE SMOOTH",
"150 950 OFFCURVE",
"211 900 OFFCURVE",
"333 900 CURVE SMOOTH",
"550 900 LINE SMOOTH",
"602 900 OFFCURVE",
"653 928 OFFCURVE",
"680 976 CURVE SMOOTH",
"693 999 OFFCURVE",
"700 1024 OFFCURVE",
"700 1050 CURVE SMOOTH",
"700 1102 OFFCURVE",
"671 1155 OFFCURVE",
"624 1181 CURVE SMOOTH",
"600 1194 OFFCURVE",
"575 1200 OFFCURVE",
"550 1200 CURVE",
"550 1300 LINE SMOOTH",
"550 1367 OFFCURVE",
"600 1400 OFFCURVE",
"700 1400 CURVE SMOOTH",
"800 1400 OFFCURVE",
"850 1367 OFFCURVE",
"850 1300 CURVE SMOOTH",
"850 1000 LINE SMOOTH",
"850 915 OFFCURVE",
"800 849 OFFCURVE",
"700 804 CURVE SMOOTH",
"550 737 LINE",
"283 647 OFFCURVE",
"150 568 OFFCURVE",
"150 500 CURVE SMOOTH",
"150 200 LINE SMOOTH"
);
},
{
closed = 1;
nodes = (
"577 1100 OFFCURVE",
"600 1077 OFFCURVE",
"600 1050 CURVE SMOOTH",
"600 1022 OFFCURVE",
"578 1000 OFFCURVE",
"550 1000 CURVE",
"550 1100 LINE"
);
}
);
width = 1400;
}
);
note = uni17AA;
unicode = 17AA;
},
{
glyphname = uni17AB;
lastChange = "2021-04-16 09:15:25 +0000";
layers = (
{
layerId = "246EC62F-25D4-447A-A2A1-FEFF923DA7D2";
paths = (
{
closed = 1;
nodes = (
"850 133 OFFCURVE",
"800 100 OFFCURVE",
"700 100 CURVE SMOOTH",
"600 100 OFFCURVE",
"550 133 OFFCURVE",
"550 200 CURVE SMOOTH",
"550 950 LINE SMOOTH",
"550 1017 OFFCURVE",
"483 1050 OFFCURVE",
"350 1050 CURVE SMOOTH",
"260 1050 LINE SMOOTH",
"168 1050 OFFCURVE",
"122 1065 OFFCURVE",
"122 1095 CURVE SMOOTH",
"122 1148 LINE SMOOTH",
"122 1183 OFFCURVE",
"152 1200 OFFCURVE",
"212 1200 CURVE SMOOTH",
"286 1200 OFFCURVE",
"353 1195 OFFCURVE",
"412 1186 CURVE SMOOTH",
"422 1185 OFFCURVE",
"432 1184 OFFCURVE",
"442 1184 CURVE SMOOTH",
"487 1184 OFFCURVE",
"523 1202 OFFCURVE",
"550 1239 CURVE",
"550 1500 LINE",
"528 1483 OFFCURVE",
"503 1475 OFFCURVE",
"475 1475 CURVE SMOOTH",
"461 1475 OFFCURVE",
"446 1477 OFFCURVE",
"430 1481 CURVE SMOOTH",
"383 1494 OFFCURVE",
"327 1500 OFFCURVE",
"263 1500 CURVE SMOOTH",
"134 1500 LINE SMOOTH",
"45 1500 OFFCURVE",
"0 1467 OFFCURVE",
"0 1400 CURVE SMOOTH",
"0 1068 LINE SMOOTH",
"0 1011 OFFCURVE",
"50 970 OFFCURVE",
"150 945 CURVE",
"150 200 LINE SMOOTH",
"150 67 OFFCURVE",
"267 0 OFFCURVE",
"500 0 CURVE SMOOTH",
"900 0 LINE SMOOTH",
"1133 0 OFFCURVE",
"1250 67 OFFCURVE",
"1250 200 CURVE SMOOTH",
"1250 950 LINE SMOOTH",
"1250 1017 OFFCURVE",
"1183 1050 OFFCURVE",
"1050 1050 CURVE SMOOTH",
"960 1050 LINE SMOOTH",
"868 1050 OFFCURVE",
"822 1065 OFFCURVE",
"822 1095 CURVE SMOOTH",
"822 1148 LINE SMOOTH",
"822 1183 OFFCURVE",
"852 1200 OFFCURVE",
"912 1200 CURVE SMOOTH",
"986 1200 OFFCURVE",
"1053 1195 OFFCURVE",
"1112 1186 CURVE SMOOTH",
"1122 1185 OFFCURVE",
"1132 1184 OFFCURVE",
"1142 1184 CURVE SMOOTH",
"1187 1184 OFFCURVE",
"1223 1202 OFFCURVE",
"1250 1239 CURVE",
"1250 1500 LINE",
"1228 1483 OFFCURVE",
"1203 1475 OFFCURVE",
"1175 1475 CURVE SMOOTH",
"1161 1475 OFFCURVE",
"1146 1477 OFFCURVE",
"1130 1481 CURVE SMOOTH",
"1083 1494 OFFCURVE",
"1027 1500 OFFCURVE",
"963 1500 CURVE SMOOTH",
"834 1500 LINE SMOOTH",
"745 1500 OFFCURVE",
"700 1467 OFFCURVE",
"700 1400 CURVE SMOOTH",
"700 1068 LINE SMOOTH",
"700 1011 OFFCURVE",
"750 970 OFFCURVE",
"850 945 CURVE",
"850 200 LINE SMOOTH"
);
},
{
closed = 1;
nodes = (
"1000 -700 OFFCURVE",
"1250 -583 OFFCURVE",
"1250 -350 CURVE SMOOTH",
"1250 -100 LINE",
"700 -100 LINE",
"700 -350 LINE",
"850 -350 LINE",
"850 -450 OFFCURVE",
"733 -500 OFFCURVE",
"500 -500 CURVE SMOOTH",
"150 -500 LINE",
"150 -700 LINE",
"500 -700 LINE SMOOTH"
);
}
);
width = 1400;
}
);
note = uni17AB;
unicode = 17AB;
},
{
glyphname = uni17AC;
lastChange = "2021-04-16 09:15:25 +0000";
layers = (
{
layerId = "246EC62F-25D4-447A-A2A1-FEFF923DA7D2";
paths = (
{
closed = 1;
nodes = (
"850 133 OFFCURVE",
"800 100 OFFCURVE",
"700 100 CURVE SMOOTH",
"600 100 OFFCURVE",
"550 133 OFFCURVE",
"550 200 CURVE SMOOTH",
"550 950 LINE SMOOTH",
"550 1017 OFFCURVE",
"483 1050 OFFCURVE",
"350 1050 CURVE SMOOTH",
"260 1050 LINE SMOOTH",
"168 1050 OFFCURVE",
"122 1065 OFFCURVE",
"122 1095 CURVE SMOOTH",
"122 1148 LINE SMOOTH",
"122 1183 OFFCURVE",
"152 1200 OFFCURVE",
"212 1200 CURVE SMOOTH",
"286 1200 OFFCURVE",
"353 1195 OFFCURVE",
"412 1186 CURVE SMOOTH",
"422 1185 OFFCURVE",
"432 1184 OFFCURVE",
"442 1184 CURVE SMOOTH",
"487 1184 OFFCURVE",
"523 1202 OFFCURVE",
"550 1239 CURVE",
"550 1500 LINE",
"528 1483 OFFCURVE",
"503 1475 OFFCURVE",
"475 1475 CURVE SMOOTH",
"461 1475 OFFCURVE",
"446 1477 OFFCURVE",
"430 1481 CURVE SMOOTH",
"383 1494 OFFCURVE",
"327 1500 OFFCURVE",
"263 1500 CURVE SMOOTH",
"134 1500 LINE SMOOTH",
"45 1500 OFFCURVE",
"0 1467 OFFCURVE",
"0 1400 CURVE SMOOTH",
"0 1068 LINE SMOOTH",
"0 1011 OFFCURVE",
"50 970 OFFCURVE",
"150 945 CURVE",
"150 200 LINE SMOOTH",
"150 67 OFFCURVE",
"267 0 OFFCURVE",
"500 0 CURVE SMOOTH",
"900 0 LINE SMOOTH",
"1133 0 OFFCURVE",
"1250 67 OFFCURVE",
"1250 200 CURVE SMOOTH",
"1250 950 LINE SMOOTH",
"1250 1017 OFFCURVE",
"1183 1050 OFFCURVE",
"1050 1050 CURVE SMOOTH",
"960 1050 LINE SMOOTH",
"868 1050 OFFCURVE",
"822 1065 OFFCURVE",
"822 1095 CURVE SMOOTH",
"822 1148 LINE SMOOTH",
"822 1183 OFFCURVE",
"852 1200 OFFCURVE",
"912 1200 CURVE SMOOTH",
"986 1200 OFFCURVE",
"1053 1195 OFFCURVE",
"1112 1186 CURVE SMOOTH",
"1122 1185 OFFCURVE",
"1132 1184 OFFCURVE",
"1142 1184 CURVE SMOOTH",
"1187 1184 OFFCURVE",
"1223 1202 OFFCURVE",
"1250 1239 CURVE",
"1250 1500 LINE",
"1228 1483 OFFCURVE",
"1203 1475 OFFCURVE",
"1175 1475 CURVE SMOOTH",
"1161 1475 OFFCURVE",
"1146 1477 OFFCURVE",
"1130 1481 CURVE SMOOTH",
"1083 1494 OFFCURVE",
"1027 1500 OFFCURVE",
"963 1500 CURVE SMOOTH",
"834 1500 LINE SMOOTH",
"745 1500 OFFCURVE",
"700 1467 OFFCURVE",
"700 1400 CURVE SMOOTH",
"700 1068 LINE SMOOTH",
"700 1011 OFFCURVE",
"750 970 OFFCURVE",
"850 945 CURVE",
"850 200 LINE SMOOTH"
);
},
{
closed = 1;
nodes = (
"1049 -660 OFFCURVE",
"1135 -700 OFFCURVE",
"1250 -700 CURVE SMOOTH",
"1350 -700 LINE",
"1350 -500 LINE",
"1250 -500 LINE SMOOTH",
"1203 -500 OFFCURVE",
"1168 -478 OFFCURVE",
"1143 -435 CURVE",
"1191 -369 OFFCURVE",
"1227 -291 OFFCURVE",
"1250 -200 CURVE",
"1250 -100 LINE",
"700 -100 LINE",
"700 -350 LINE",
"850 -350 LINE",
"850 -450 OFFCURVE",
"733 -500 OFFCURVE",
"500 -500 CURVE SMOOTH",
"150 -500 LINE",
"150 -700 LINE",
"500 -700 LINE SMOOTH",
"703 -700 OFFCURVE",
"866 -660 OFFCURVE",
"991 -579 CURVE"
);
}
);
width = 1400;
}
);
note = uni17AC;
unicode = 17AC;
},
{
glyphname = uni17AD;
lastChange = "2021-04-16 09:15:25 +0000";
layers = (
{
layerId = "246EC62F-25D4-447A-A2A1-FEFF923DA7D2";
paths = (
{
closed = 1;
nodes = (
"1250 1300 LINE SMOOTH",
"1250 1433 OFFCURVE",
"1167 1500 OFFCURVE",
"1000 1500 CURVE SMOOTH",
"900 1500 LINE SMOOTH",
"809 1500 OFFCURVE",
"728 1454 OFFCURVE",
"657 1363 CURVE",
"582 1454 OFFCURVE",
"497 1500 OFFCURVE",
"400 1500 CURVE SMOOTH",
"300 1500 LINE SMOOTH",
"133 1500 OFFCURVE",
"50 1447 OFFCURVE",
"50 1340 CURVE SMOOTH",
"50 1068 LINE SMOOTH",
"50 1022 OFFCURVE",
"83 986 OFFCURVE",
"150 961 CURVE",
"150 100 LINE SMOOTH",
"150 33 OFFCURVE",
"200 0 OFFCURVE",
"300 0 CURVE SMOOTH",
"550 0 LINE SMOOTH",
"650 0 OFFCURVE",
"700 83 OFFCURVE",
"700 250 CURVE SMOOTH",
"700 417 OFFCURVE",
"650 500 OFFCURVE",
"550 500 CURVE",
"550 950 LINE SMOOTH",
"550 1017 OFFCURVE",
"500 1050 OFFCURVE",
"400 1050 CURVE SMOOTH",
"310 1050 LINE SMOOTH",
"219 1050 OFFCURVE",
"173 1065 OFFCURVE",
"172 1095 CURVE SMOOTH",
"171 1148 LINE",
"171 1149 LINE SMOOTH",
"171 1183 OFFCURVE",
"214 1200 OFFCURVE",
"300 1200 CURVE SMOOTH",
"400 1200 LINE SMOOTH",
"502 1200 OFFCURVE",
"588 1162 OFFCURVE",
"657 1085 CURVE",
"719 1162 OFFCURVE",
"767 1200 OFFCURVE",
"800 1200 CURVE SMOOTH",
"833 1200 OFFCURVE",
"850 1167 OFFCURVE",
"850 1100 CURVE SMOOTH",
"850 0 LINE",
"1250 0 LINE"
);
},
{
closed = 1;
nodes = (
"583 370 OFFCURVE",
"600 330 OFFCURVE",
"600 250 CURVE SMOOTH",
"600 170 OFFCURVE",
"583 130 OFFCURVE",
"550 130 CURVE",
"550 370 LINE"
);
},
{
closed = 1;
nodes = (
"1000 -700 OFFCURVE",
"1250 -583 OFFCURVE",
"1250 -350 CURVE SMOOTH",
"1250 -100 LINE",
"700 -100 LINE",
"700 -350 LINE",
"850 -350 LINE",
"850 -450 OFFCURVE",
"733 -500 OFFCURVE",
"500 -500 CURVE SMOOTH",
"150 -500 LINE",
"150 -700 LINE",
"500 -700 LINE SMOOTH"
);
}
);
width = 1400;
}
);
note = uni17AD;
unicode = 17AD;
},
{
glyphname = uni17AE;
lastChange = "2021-04-16 09:15:25 +0000";
layers = (
{
layerId = "246EC62F-25D4-447A-A2A1-FEFF923DA7D2";
paths = (
{
closed = 1;
nodes = (
"1250 1300 LINE SMOOTH",
"1250 1433 OFFCURVE",
"1167 1500 OFFCURVE",
"1000 1500 CURVE SMOOTH",
"900 1500 LINE SMOOTH",
"809 1500 OFFCURVE",
"728 1454 OFFCURVE",
"657 1363 CURVE",
"582 1454 OFFCURVE",
"497 1500 OFFCURVE",
"400 1500 CURVE SMOOTH",
"300 1500 LINE SMOOTH",
"133 1500 OFFCURVE",
"50 1447 OFFCURVE",
"50 1340 CURVE SMOOTH",
"50 1068 LINE SMOOTH",
"50 1022 OFFCURVE",
"83 986 OFFCURVE",
"150 961 CURVE",
"150 100 LINE SMOOTH",
"150 33 OFFCURVE",
"200 0 OFFCURVE",
"300 0 CURVE SMOOTH",
"550 0 LINE SMOOTH",
"650 0 OFFCURVE",
"700 83 OFFCURVE",
"700 250 CURVE SMOOTH",
"700 417 OFFCURVE",
"650 500 OFFCURVE",
"550 500 CURVE",
"550 950 LINE SMOOTH",
"550 1017 OFFCURVE",
"500 1050 OFFCURVE",
"400 1050 CURVE SMOOTH",
"310 1050 LINE SMOOTH",
"219 1050 OFFCURVE",
"173 1065 OFFCURVE",
"172 1095 CURVE SMOOTH",
"171 1148 LINE",
"171 1149 LINE SMOOTH",
"171 1183 OFFCURVE",
"214 1200 OFFCURVE",
"300 1200 CURVE SMOOTH",
"400 1200 LINE SMOOTH",
"502 1200 OFFCURVE",
"588 1162 OFFCURVE",
"657 1085 CURVE",
"719 1162 OFFCURVE",
"767 1200 OFFCURVE",
"800 1200 CURVE SMOOTH",
"833 1200 OFFCURVE",
"850 1167 OFFCURVE",
"850 1100 CURVE SMOOTH",
"850 0 LINE",
"1250 0 LINE"
);
},
{
closed = 1;
nodes = (
"583 370 OFFCURVE",
"600 330 OFFCURVE",
"600 250 CURVE SMOOTH",
"600 170 OFFCURVE",
"583 130 OFFCURVE",
"550 130 CURVE",
"550 370 LINE"
);
},
{
closed = 1;
nodes = (
"1049 -660 OFFCURVE",
"1135 -700 OFFCURVE",
"1250 -700 CURVE SMOOTH",
"1350 -700 LINE",
"1350 -500 LINE",
"1250 -500 LINE SMOOTH",
"1203 -500 OFFCURVE",
"1168 -478 OFFCURVE",
"1143 -435 CURVE",
"1191 -369 OFFCURVE",
"1227 -291 OFFCURVE",
"1250 -200 CURVE",
"1250 -100 LINE",
"700 -100 LINE",
"700 -350 LINE",
"850 -350 LINE",
"850 -450 OFFCURVE",
"733 -500 OFFCURVE",
"500 -500 CURVE SMOOTH",
"150 -500 LINE",
"150 -700 LINE",
"500 -700 LINE SMOOTH",
"703 -700 OFFCURVE",
"866 -660 OFFCURVE",
"991 -579 CURVE"
);
}
);
width = 1400;
}
);
note = uni17AE;
unicode = 17AE;
},
{
glyphname = uni17AF;
lastChange = "2021-04-16 09:15:25 +0000";
layers = (
{
layerId = "246EC62F-25D4-447A-A2A1-FEFF923DA7D2";
paths = (
{
closed = 1;
nodes = (
"1250 1433 OFFCURVE",
"1133 1500 OFFCURVE",
"900 1500 CURVE SMOOTH",
"550 1500 LINE",
"550 1700 LINE SMOOTH",
"550 1800 OFFCURVE",
"483 1850 OFFCURVE",
"350 1850 CURVE SMOOTH",
"100 1850 LINE",
"100 1700 LINE",
"133 1700 OFFCURVE",
"150 1667 OFFCURVE",
"150 1600 CURVE SMOOTH",
"150 1300 LINE",
"550 1300 LINE",
"550 1367 OFFCURVE",
"600 1400 OFFCURVE",
"700 1400 CURVE SMOOTH",
"800 1400 OFFCURVE",
"850 1367 OFFCURVE",
"850 1300 CURVE SMOOTH",
"850 193 LINE",
"700 439 LINE",
"550 193 LINE",
"550 950 LINE SMOOTH",
"550 1050 OFFCURVE",
"483 1100 OFFCURVE",
"350 1100 CURVE SMOOTH",
"100 1100 LINE",
"100 1000 LINE",
"133 1000 OFFCURVE",
"150 967 OFFCURVE",
"150 900 CURVE SMOOTH",
"150 100 LINE SMOOTH",
"150 33 OFFCURVE",
"199 0 OFFCURVE",
"297 0 CURVE SMOOTH",
"550 0 LINE",
"700 246 LINE",
"850 0 LINE",
"1103 0 LINE SMOOTH",
"1201 0 OFFCURVE",
"1250 33 OFFCURVE",
"1250 100 CURVE SMOOTH",
"1250 1300 LINE SMOOTH"
);
}
);
width = 1400;
}
);
note = uni17AF;
unicode = 17AF;
},
{
glyphname = uni17B0;
lastChange = "2021-04-16 09:15:25 +0000";
layers = (
{
layerId = "246EC62F-25D4-447A-A2A1-FEFF923DA7D2";
paths = (
{
closed = 1;
nodes = (
"1250 1300 LINE SMOOTH",
"1250 1433 OFFCURVE",
"1167 1500 OFFCURVE",
"1000 1500 CURVE SMOOTH",
"900 1500 LINE SMOOTH",
"809 1500 OFFCURVE",
"728 1454 OFFCURVE",
"657 1363 CURVE",
"582 1454 OFFCURVE",
"497 1500 OFFCURVE",
"400 1500 CURVE SMOOTH",
"300 1500 LINE SMOOTH",
"133 1500 OFFCURVE",
"50 1447 OFFCURVE",
"50 1340 CURVE SMOOTH",
"50 1068 LINE SMOOTH",
"50 1022 OFFCURVE",
"83 986 OFFCURVE",
"150 961 CURVE",
"150 100 LINE SMOOTH",
"150 33 OFFCURVE",
"200 0 OFFCURVE",
"300 0 CURVE SMOOTH",
"550 0 LINE SMOOTH",
"650 0 OFFCURVE",
"700 83 OFFCURVE",
"700 250 CURVE SMOOTH",
"700 417 OFFCURVE",
"650 500 OFFCURVE",
"550 500 CURVE",
"550 950 LINE SMOOTH",
"550 1017 OFFCURVE",
"500 1050 OFFCURVE",
"400 1050 CURVE SMOOTH",
"310 1050 LINE SMOOTH",
"219 1050 OFFCURVE",
"173 1065 OFFCURVE",
"172 1095 CURVE SMOOTH",
"171 1148 LINE",
"171 1149 LINE SMOOTH",
"171 1183 OFFCURVE",
"214 1200 OFFCURVE",
"300 1200 CURVE SMOOTH",
"400 1200 LINE SMOOTH",
"502 1200 OFFCURVE",
"588 1162 OFFCURVE",
"657 1085 CURVE",
"719 1162 OFFCURVE",
"767 1200 OFFCURVE",
"800 1200 CURVE SMOOTH",
"833 1200 OFFCURVE",
"850 1167 OFFCURVE",
"850 1100 CURVE SMOOTH",
"850 0 LINE",
"1250 0 LINE"
);
},
{
closed = 1;
nodes = (
"583 370 OFFCURVE",
"600 330 OFFCURVE",
"600 250 CURVE SMOOTH",
"600 170 OFFCURVE",
"583 130 OFFCURVE",
"550 130 CURVE",
"550 370 LINE"
);
},
{
closed = 1;
nodes = (
"679 -217 OFFCURVE",
"446 -300 OFFCURVE",
"150 -300 CURVE",
"150 -500 LINE SMOOTH",
"150 -633 OFFCURVE",
"228 -700 OFFCURVE",
"385 -700 CURVE SMOOTH",
"542 -700 OFFCURVE",
"653 -660 OFFCURVE",
"718 -580 CURVE",
"796 -660 OFFCURVE",
"890 -700 OFFCURVE",
"1000 -700 CURVE SMOOTH",
"1167 -700 OFFCURVE",
"1250 -600 OFFCURVE",
"1250 -400 CURVE SMOOTH",
"1250 -50 LINE",
"850 -50 LINE"
);
},
{
closed = 1;
nodes = (
"764 -274 OFFCURVE",
"823 -241 OFFCURVE",
"881 -203 CURVE",
"894 -245 OFFCURVE",
"900 -301 OFFCURVE",
"900 -370 CURVE SMOOTH",
"900 -423 OFFCURVE",
"886 -450 OFFCURVE",
"859 -450 CURVE SMOOTH",
"832 -450 OFFCURVE",
"780 -401 OFFCURVE",
"703 -303 CURVE"
);
},
{
closed = 1;
nodes = (
"628 -417 OFFCURVE",
"567 -470 OFFCURVE",
"501 -470 CURVE SMOOTH",
"430 -470 OFFCURVE",
"395 -448 OFFCURVE",
"395 -404 CURVE",
"494 -385 OFFCURVE",
"591 -354 OFFCURVE",
"684 -312 CURVE"
);
}
);
width = 1400;
}
);
note = uni17B0;
unicode = 17B0;
},
{
glyphname = uni17B1;
lastChange = "2021-04-16 09:15:25 +0000";
layers = (
{
layerId = "246EC62F-25D4-447A-A2A1-FEFF923DA7D2";
paths = (
{
closed = 1;
nodes = (
"304 1584 OFFCURVE",
"285 1602 OFFCURVE",
"285 1616 CURVE SMOOTH",
"285 1620 OFFCURVE",
"287 1624 OFFCURVE",
"290 1628 CURVE",
"305 1643 OFFCURVE",
"420 1650 OFFCURVE",
"633 1650 CURVE SMOOTH",
"846 1650 OFFCURVE",
"989 1645 OFFCURVE",
"1062 1636 CURVE SMOOTH",
"1135 1627 OFFCURVE",
"1197 1608 OFFCURVE",
"1250 1579 CURVE",
"1250 1840 LINE",
"1131 1936 OFFCURVE",
"1011 1950 OFFCURVE",
"883 1950 CURVE SMOOTH",
"334 1950 LINE SMOOTH",
"211 1950 OFFCURVE",
"150 1917 OFFCURVE",
"150 1850 CURVE SMOOTH",
"150 1648 LINE SMOOTH",
"150 1593 OFFCURVE",
"180 1549 OFFCURVE",
"239 1517 CURVE",
"342 1562 LINE"
);
},
{
closed = 1;
nodes = (
"150 67 OFFCURVE",
"267 0 OFFCURVE",
"500 0 CURVE SMOOTH",
"640 0 LINE SMOOTH",
"722 0 OFFCURVE",
"792 25 OFFCURVE",
"850 75 CURVE",
"850 0 LINE",
"1250 0 LINE",
"1250 680 LINE",
"850 550 LINE",
"850 320 LINE",
"807 173 OFFCURVE",
"737 100 OFFCURVE",
"640 100 CURVE SMOOTH",
"580 100 OFFCURVE",
"550 133 OFFCURVE",
"550 200 CURVE SMOOTH",
"550 500 LINE SMOOTH",
"550 585 OFFCURVE",
"600 651 OFFCURVE",
"700 696 CURVE SMOOTH",
"850 763 LINE",
"1117 853 OFFCURVE",
"1250 932 OFFCURVE",
"1250 1000 CURVE SMOOTH",
"1250 1300 LINE SMOOTH",
"1250 1433 OFFCURVE",
"1133 1500 OFFCURVE",
"900 1500 CURVE SMOOTH",
"500 1500 LINE SMOOTH",
"267 1500 OFFCURVE",
"150 1433 OFFCURVE",
"150 1300 CURVE SMOOTH",
"150 1050 LINE SMOOTH",
"150 950 OFFCURVE",
"211 900 OFFCURVE",
"333 900 CURVE SMOOTH",
"550 900 LINE SMOOTH",
"602 900 OFFCURVE",
"653 928 OFFCURVE",
"680 976 CURVE SMOOTH",
"693 999 OFFCURVE",
"700 1024 OFFCURVE",
"700 1050 CURVE SMOOTH",
"700 1102 OFFCURVE",
"671 1155 OFFCURVE",
"624 1181 CURVE SMOOTH",
"600 1194 OFFCURVE",
"575 1200 OFFCURVE",
"550 1200 CURVE",
"550 1300 LINE SMOOTH",
"550 1367 OFFCURVE",
"600 1400 OFFCURVE",
"700 1400 CURVE SMOOTH",
"800 1400 OFFCURVE",
"850 1367 OFFCURVE",
"850 1300 CURVE SMOOTH",
"850 1000 LINE SMOOTH",
"850 915 OFFCURVE",
"800 849 OFFCURVE",
"700 804 CURVE SMOOTH",
"550 737 LINE",
"283 647 OFFCURVE",
"150 568 OFFCURVE",
"150 500 CURVE SMOOTH",
"150 200 LINE SMOOTH"
);
},
{
closed = 1;
nodes = (
"577 1100 OFFCURVE",
"600 1077 OFFCURVE",
"600 1050 CURVE SMOOTH",
"600 1022 OFFCURVE",
"578 1000 OFFCURVE",
"550 1000 CURVE",
"550 1100 LINE"
);
}
);
width = 1400;
}
);
note = uni17B1;
unicode = 17B1;
},
{
glyphname = uni17B2;
lastChange = "2021-04-16 09:15:25 +0000";
layers = (
{
layerId = "246EC62F-25D4-447A-A2A1-FEFF923DA7D2";
paths = (
{
closed = 1;
nodes = (
"850 200 LINE SMOOTH",
"850 133 OFFCURVE",
"800 100 OFFCURVE",
"700 100 CURVE SMOOTH",
"600 100 OFFCURVE",
"550 133 OFFCURVE",
"550 200 CURVE SMOOTH",
"550 1400 LINE SMOOTH",
"550 1467 OFFCURVE",
"567 1500 OFFCURVE",
"600 1500 CURVE",
"600 1650 LINE",
"350 1650 LINE SMOOTH",
"217 1650 OFFCURVE",
"150 1600 OFFCURVE",
"150 1500 CURVE SMOOTH",
"150 200 LINE SMOOTH",
"150 67 OFFCURVE",
"267 0 OFFCURVE",
"500 0 CURVE SMOOTH",
"900 0 LINE SMOOTH",
"1133 0 OFFCURVE",
"1250 67 OFFCURVE",
"1250 200 CURVE SMOOTH",
"1250 570 LINE",
"1062 700 LINE",
"1187 704 OFFCURVE",
"1250 771 OFFCURVE",
"1250 900 CURVE SMOOTH",
"1250 1250 LINE SMOOTH",
"1250 1417 OFFCURVE",
"1183 1500 OFFCURVE",
"1050 1500 CURVE SMOOTH",
"820 1500 LINE SMOOTH",
"720 1500 OFFCURVE",
"670 1439 OFFCURVE",
"670 1317 CURVE SMOOTH",
"670 1100 LINE SMOOTH",
"670 1048 OFFCURVE",
"698 997 OFFCURVE",
"746 970 CURVE SMOOTH",
"769 957 OFFCURVE",
"794 950 OFFCURVE",
"820 950 CURVE SMOOTH",
"872 950 OFFCURVE",
"925 979 OFFCURVE",
"951 1027 CURVE SMOOTH",
"964 1050 OFFCURVE",
"970 1075 OFFCURVE",
"970 1100 CURVE",
"1020 1100 LINE SMOOTH",
"1087 1100 OFFCURVE",
"1120 1058 OFFCURVE",
"1120 975 CURVE SMOOTH",
"1120 892 OFFCURVE",
"1087 850 OFFCURVE",
"1020 850 CURVE SMOOTH",
"670 850 LINE",
"670 700 LINE",
"790 700 OFFCURVE",
"850 657 OFFCURVE",
"850 570 CURVE SMOOTH"
);
},
{
closed = 1;
nodes = (
"870 1073 OFFCURVE",
"847 1050 OFFCURVE",
"820 1050 CURVE SMOOTH",
"792 1050 OFFCURVE",
"770 1072 OFFCURVE",
"770 1100 CURVE",
"870 1100 LINE"
);
}
);
width = 1400;
}
);
note = uni17B2;
unicode = 17B2;
},
{
glyphname = uni17B3;
lastChange = "2021-04-16 09:15:25 +0000";
layers = (
{
layerId = "246EC62F-25D4-447A-A2A1-FEFF923DA7D2";
paths = (
{
closed = 1;
nodes = (
"304 1584 OFFCURVE",
"285 1602 OFFCURVE",
"285 1616 CURVE SMOOTH",
"285 1620 OFFCURVE",
"287 1624 OFFCURVE",
"290 1628 CURVE",
"305 1643 OFFCURVE",
"342 1650 OFFCURVE",
"399 1650 CURVE SMOOTH",
"506 1650 OFFCURVE",
"727 1633 OFFCURVE",
"1060 1600 CURVE",
"1099 1731 OFFCURVE",
"1162 1815 OFFCURVE",
"1250 1850 CURVE",
"1250 2020 LINE",
"1010 2020 LINE",
"971 1999 OFFCURVE",
"935 1959 OFFCURVE",
"900 1900 CURVE",
"679 1933 OFFCURVE",
"525 1950 OFFCURVE",
"438 1950 CURVE SMOOTH",
"334 1950 LINE SMOOTH",
"211 1950 OFFCURVE",
"150 1917 OFFCURVE",
"150 1850 CURVE SMOOTH",
"150 1648 LINE SMOOTH",
"150 1593 OFFCURVE",
"180 1549 OFFCURVE",
"239 1517 CURVE",
"342 1562 LINE"
);
},
{
closed = 1;
nodes = (
"150 67 OFFCURVE",
"267 0 OFFCURVE",
"500 0 CURVE SMOOTH",
"640 0 LINE SMOOTH",
"722 0 OFFCURVE",
"792 25 OFFCURVE",
"850 75 CURVE",
"850 0 LINE",
"1250 0 LINE",
"1250 680 LINE",
"850 550 LINE",
"850 320 LINE",
"807 173 OFFCURVE",
"737 100 OFFCURVE",
"640 100 CURVE SMOOTH",
"580 100 OFFCURVE",
"550 133 OFFCURVE",
"550 200 CURVE SMOOTH",
"550 500 LINE SMOOTH",
"550 585 OFFCURVE",
"600 651 OFFCURVE",
"700 696 CURVE SMOOTH",
"850 763 LINE",
"1117 853 OFFCURVE",
"1250 932 OFFCURVE",
"1250 1000 CURVE SMOOTH",
"1250 1300 LINE SMOOTH",
"1250 1433 OFFCURVE",
"1133 1500 OFFCURVE",
"900 1500 CURVE SMOOTH",
"500 1500 LINE SMOOTH",
"267 1500 OFFCURVE",
"150 1433 OFFCURVE",
"150 1300 CURVE SMOOTH",
"150 1050 LINE SMOOTH",
"150 950 OFFCURVE",
"211 900 OFFCURVE",
"333 900 CURVE SMOOTH",
"550 900 LINE SMOOTH",
"602 900 OFFCURVE",
"653 928 OFFCURVE",
"680 976 CURVE SMOOTH",
"693 999 OFFCURVE",
"700 1024 OFFCURVE",
"700 1050 CURVE SMOOTH",
"700 1102 OFFCURVE",
"671 1155 OFFCURVE",
"624 1181 CURVE SMOOTH",
"600 1194 OFFCURVE",
"575 1200 OFFCURVE",
"550 1200 CURVE",
"550 1300 LINE SMOOTH",
"550 1367 OFFCURVE",
"600 1400 OFFCURVE",
"700 1400 CURVE SMOOTH",
"800 1400 OFFCURVE",
"850 1367 OFFCURVE",
"850 1300 CURVE SMOOTH",
"850 1000 LINE SMOOTH",
"850 915 OFFCURVE",
"800 849 OFFCURVE",
"700 804 CURVE SMOOTH",
"550 737 LINE",
"283 647 OFFCURVE",
"150 568 OFFCURVE",
"150 500 CURVE SMOOTH",
"150 200 LINE SMOOTH"
);
},
{
closed = 1;
nodes = (
"577 1100 OFFCURVE",
"600 1077 OFFCURVE",
"600 1050 CURVE SMOOTH",
"600 1022 OFFCURVE",
"578 1000 OFFCURVE",
"550 1000 CURVE",
"550 1100 LINE"
);
}
);
width = 1400;
}
);
note = uni17B3;
unicode = 17B3;
},
{
glyphname = uni17A3;
lastChange = "2021-04-16 09:15:25 +0000";
layers = (
{
layerId = "246EC62F-25D4-447A-A2A1-FEFF923DA7D2";
paths = (
{
closed = 1;
nodes = (
"50 500 OFFCURVE",
"0 417 OFFCURVE",
"0 250 CURVE SMOOTH",
"0 83 OFFCURVE",
"50 0 OFFCURVE",
"150 0 CURVE SMOOTH",
"400 0 LINE SMOOTH",
"500 0 OFFCURVE",
"550 33 OFFCURVE",
"550 100 CURVE SMOOTH",
"550 950 LINE SMOOTH",
"550 1017 OFFCURVE",
"483 1050 OFFCURVE",
"350 1050 CURVE SMOOTH",
"260 1050 LINE SMOOTH",
"168 1050 OFFCURVE",
"122 1065 OFFCURVE",
"122 1095 CURVE SMOOTH",
"122 1148 LINE SMOOTH",
"122 1183 OFFCURVE",
"152 1200 OFFCURVE",
"212 1200 CURVE SMOOTH",
"286 1200 OFFCURVE",
"353 1195 OFFCURVE",
"412 1186 CURVE SMOOTH",
"422 1185 OFFCURVE",
"432 1184 OFFCURVE",
"442 1184 CURVE SMOOTH",
"487 1184 OFFCURVE",
"523 1202 OFFCURVE",
"550 1239 CURVE",
"550 1500 LINE",
"528 1483 OFFCURVE",
"503 1475 OFFCURVE",
"475 1475 CURVE SMOOTH",
"461 1475 OFFCURVE",
"446 1477 OFFCURVE",
"430 1481 CURVE SMOOTH",
"383 1494 OFFCURVE",
"327 1500 OFFCURVE",
"263 1500 CURVE SMOOTH",
"134 1500 LINE SMOOTH",
"45 1500 OFFCURVE",
"0 1467 OFFCURVE",
"0 1400 CURVE SMOOTH",
"0 1068 LINE SMOOTH",
"0 1011 OFFCURVE",
"50 970 OFFCURVE",
"150 945 CURVE",
"150 500 LINE"
);
},
{
closed = 1;
nodes = (
"850 700 LINE",
"850 500 LINE",
"750 500 OFFCURVE",
"700 417 OFFCURVE",
"700 250 CURVE SMOOTH",
"700 83 OFFCURVE",
"750 0 OFFCURVE",
"850 0 CURVE SMOOTH",
"1100 0 LINE SMOOTH",
"1200 0 OFFCURVE",
"1250 33 OFFCURVE",
"1250 100 CURVE SMOOTH",
"1250 950 LINE SMOOTH",
"1250 1017 OFFCURVE",
"1183 1050 OFFCURVE",
"1050 1050 CURVE SMOOTH",
"960 1050 LINE SMOOTH",
"868 1050 OFFCURVE",
"822 1065 OFFCURVE",
"822 1095 CURVE SMOOTH",
"822 1148 LINE SMOOTH",
"822 1183 OFFCURVE",
"852 1200 OFFCURVE",
"912 1200 CURVE SMOOTH",
"986 1200 OFFCURVE",
"1053 1195 OFFCURVE",
"1112 1186 CURVE SMOOTH",
"1122 1185 OFFCURVE",
"1132 1184 OFFCURVE",
"1142 1184 CURVE SMOOTH",
"1187 1184 OFFCURVE",
"1223 1202 OFFCURVE",
"1250 1239 CURVE",
"1250 1500 LINE",
"1228 1483 OFFCURVE",
"1203 1475 OFFCURVE",
"1175 1475 CURVE SMOOTH",
"1161 1475 OFFCURVE",
"1146 1477 OFFCURVE",
"1130 1481 CURVE SMOOTH",
"1083 1494 OFFCURVE",
"1027 1500 OFFCURVE",
"963 1500 CURVE SMOOTH",
"834 1500 LINE SMOOTH",
"745 1500 OFFCURVE",
"700 1467 OFFCURVE",
"700 1400 CURVE SMOOTH",
"700 1068 LINE SMOOTH",
"700 1011 OFFCURVE",
"750 970 OFFCURVE",
"850 945 CURVE",
"850 800 LINE",
"600 800 LINE",
"600 700 LINE"
);
},
{
closed = 1;
nodes = (
"100 330 OFFCURVE",
"117 370 OFFCURVE",
"150 370 CURVE",
"150 130 LINE",
"117 130 OFFCURVE",
"100 170 OFFCURVE",
"100 250 CURVE SMOOTH"
);
},
{
closed = 1;
nodes = (
"800 330 OFFCURVE",
"817 370 OFFCURVE",
"850 370 CURVE",
"850 130 LINE",
"817 130 OFFCURVE",
"800 170 OFFCURVE",
"800 250 CURVE SMOOTH"
);
}
);
width = 1400;
}
);
note = uni17A3;
unicode = 17A3;
},
{
glyphname = uni17A4;
lastChange = "2021-04-16 09:15:25 +0000";
layers = (
{
layerId = "246EC62F-25D4-447A-A2A1-FEFF923DA7D2";
paths = (
{
closed = 1;
nodes = (
"50 500 OFFCURVE",
"0 417 OFFCURVE",
"0 250 CURVE SMOOTH",
"0 83 OFFCURVE",
"50 0 OFFCURVE",
"150 0 CURVE SMOOTH",
"400 0 LINE SMOOTH",
"500 0 OFFCURVE",
"550 33 OFFCURVE",
"550 100 CURVE SMOOTH",
"550 950 LINE SMOOTH",
"550 1017 OFFCURVE",
"483 1050 OFFCURVE",
"350 1050 CURVE SMOOTH",
"260 1050 LINE SMOOTH",
"168 1050 OFFCURVE",
"122 1065 OFFCURVE",
"122 1095 CURVE SMOOTH",
"122 1148 LINE SMOOTH",
"122 1183 OFFCURVE",
"152 1200 OFFCURVE",
"212 1200 CURVE SMOOTH",
"286 1200 OFFCURVE",
"353 1195 OFFCURVE",
"412 1186 CURVE SMOOTH",
"422 1185 OFFCURVE",
"432 1184 OFFCURVE",
"442 1184 CURVE SMOOTH",
"487 1184 OFFCURVE",
"523 1202 OFFCURVE",
"550 1239 CURVE",
"550 1500 LINE",
"528 1483 OFFCURVE",
"503 1475 OFFCURVE",
"475 1475 CURVE SMOOTH",
"461 1475 OFFCURVE",
"446 1477 OFFCURVE",
"430 1481 CURVE SMOOTH",
"383 1494 OFFCURVE",
"327 1500 OFFCURVE",
"263 1500 CURVE SMOOTH",
"134 1500 LINE SMOOTH",
"45 1500 OFFCURVE",
"0 1467 OFFCURVE",
"0 1400 CURVE SMOOTH",
"0 1068 LINE SMOOTH",
"0 1011 OFFCURVE",
"50 970 OFFCURVE",
"150 945 CURVE",
"150 500 LINE"
);
},
{
closed = 1;
nodes = (
"1250 1017 OFFCURVE",
"1183 1050 OFFCURVE",
"1050 1050 CURVE SMOOTH",
"960 1050 LINE SMOOTH",
"868 1050 OFFCURVE",
"822 1065 OFFCURVE",
"822 1095 CURVE SMOOTH",
"822 1148 LINE SMOOTH",
"822 1183 OFFCURVE",
"852 1200 OFFCURVE",
"912 1200 CURVE SMOOTH",
"1450 1200 LINE SMOOTH",
"1517 1200 OFFCURVE",
"1550 1167 OFFCURVE",
"1550 1100 CURVE SMOOTH",
"1550 0 LINE",
"1950 0 LINE",
"1950 1200 LINE SMOOTH",
"1950 1400 OFFCURVE",
"1850 1500 OFFCURVE",
"1650 1500 CURVE SMOOTH",
"834 1500 LINE SMOOTH",
"745 1500 OFFCURVE",
"700 1467 OFFCURVE",
"700 1400 CURVE SMOOTH",
"700 1068 LINE SMOOTH",
"700 1011 OFFCURVE",
"750 970 OFFCURVE",
"850 945 CURVE",
"850 800 LINE",
"600 800 LINE",
"600 700 LINE",
"850 700 LINE",
"850 500 LINE",
"750 500 OFFCURVE",
"700 417 OFFCURVE",
"700 250 CURVE SMOOTH",
"700 83 OFFCURVE",
"750 0 OFFCURVE",
"850 0 CURVE SMOOTH",
"1100 0 LINE SMOOTH",
"1200 0 OFFCURVE",
"1250 33 OFFCURVE",
"1250 100 CURVE SMOOTH",
"1250 950 LINE SMOOTH"
);
},
{
closed = 1;
nodes = (
"100 330 OFFCURVE",
"117 370 OFFCURVE",
"150 370 CURVE",
"150 130 LINE",
"117 130 OFFCURVE",
"100 170 OFFCURVE",
"100 250 CURVE SMOOTH"
);
},
{
closed = 1;
nodes = (
"800 330 OFFCURVE",
"817 370 OFFCURVE",
"850 370 CURVE",
"850 130 LINE",
"817 130 OFFCURVE",
"800 170 OFFCURVE",
"800 250 CURVE SMOOTH"
);
}
);
width = 2100;
}
);
note = uni17A4;
unicode = 17A4;
},
{
glyphname = uni17B6;
lastChange = "2021-04-16 09:15:25 +0000";
layers = (
{
layerId = "246EC62F-25D4-447A-A2A1-FEFF923DA7D2";
paths = (
{
closed = 1;
nodes = (
"-3 1500 OFFCURVE",
"-70 1467 OFFCURVE",
"-150 1400 CURVE",
"-150 1200 LINE",
"50 1200 LINE SMOOTH",
"117 1200 OFFCURVE",
"150 1167 OFFCURVE",
"150 1100 CURVE SMOOTH",
"150 0 LINE",
"550 0 LINE",
"550 1200 LINE SMOOTH",
"550 1400 OFFCURVE",
"450 1500 OFFCURVE",
"250 1500 CURVE SMOOTH",
"50 1500 LINE SMOOTH"
);
}
);
width = 700;
}
);
note = uni17B6;
unicode = 17B6;
},
{
glyphname = uni17BF;
lastChange = "2021-04-16 09:15:25 +0000";
layers = (
{
layerId = "246EC62F-25D4-447A-A2A1-FEFF923DA7D2";
paths = (
{
closed = 1;
nodes = (
"100 1700 OFFCURVE",
"150 1667 OFFCURVE",
"150 1600 CURVE SMOOTH",
"150 -500 LINE SMOOTH",
"150 -567 OFFCURVE",
"100 -600 OFFCURVE",
"0 -600 CURVE SMOOTH",
"-100 -600 OFFCURVE",
"-150 -567 OFFCURVE",
"-150 -500 CURVE SMOOTH",
"-150 -100 LINE",
"-550 -100 LINE",
"-550 -500 LINE SMOOTH",
"-550 -633 OFFCURVE",
"-458 -700 OFFCURVE",
"-275 -700 CURVE SMOOTH",
"275 -700 LINE SMOOTH",
"458 -700 OFFCURVE",
"550 -633 OFFCURVE",
"550 -500 CURVE SMOOTH",
"550 1600 LINE SMOOTH",
"550 1713 OFFCURVE",
"467 1778 OFFCURVE",
"300 1795 CURVE",
"300 2150 LINE",
"150 2150 LINE",
"150 1895 LINE",
"115 1917 OFFCURVE",
"81 1937 OFFCURVE",
"50 1954 CURVE",
"50 2150 LINE",
"-100 2150 LINE",
"-100 2026 LINE",
"-141 2042 OFFCURVE",
"-175 2050 OFFCURVE",
"-200 2050 CURVE SMOOTH",
"-500 2050 LINE SMOOTH",
"-633 2050 OFFCURVE",
"-700 2000 OFFCURVE",
"-700 1900 CURVE SMOOTH",
"-700 1700 LINE",
"0 1700 LINE SMOOTH"
);
}
);
width = 700;
}
);
note = uni17BF;
unicode = 17BF;
},
{
glyphname = uni17C0;
lastChange = "2021-04-16 09:15:25 +0000";
layers = (
{
layerId = "246EC62F-25D4-447A-A2A1-FEFF923DA7D2";
paths = (
{
closed = 1;
nodes = (
"550 1783 OFFCURVE",
"433 1850 OFFCURVE",
"200 1850 CURVE SMOOTH",
"-150 1850 LINE",
"-150 2150 LINE SMOOTH",
"-150 2250 OFFCURVE",
"-217 2300 OFFCURVE",
"-350 2300 CURVE SMOOTH",
"-600 2300 LINE",
"-600 2150 LINE",
"-567 2150 OFFCURVE",
"-550 2117 OFFCURVE",
"-550 2050 CURVE SMOOTH",
"-550 1650 LINE",
"-150 1650 LINE",
"-150 1717 OFFCURVE",
"-100 1750 OFFCURVE",
"0 1750 CURVE SMOOTH",
"100 1750 OFFCURVE",
"150 1717 OFFCURVE",
"150 1650 CURVE SMOOTH",
"150 -500 LINE SMOOTH",
"150 -567 OFFCURVE",
"100 -600 OFFCURVE",
"0 -600 CURVE SMOOTH",
"-100 -600 OFFCURVE",
"-150 -567 OFFCURVE",
"-150 -500 CURVE SMOOTH",
"-150 -100 LINE",
"-550 -100 LINE",
"-550 -500 LINE SMOOTH",
"-550 -633 OFFCURVE",
"-458 -700 OFFCURVE",
"-275 -700 CURVE SMOOTH",
"275 -700 LINE SMOOTH",
"458 -700 OFFCURVE",
"550 -633 OFFCURVE",
"550 -500 CURVE SMOOTH",
"550 1650 LINE SMOOTH"
);
}
);
width = 700;
}
);
note = uni17C0;
unicode = 17C0;
},
{
glyphname = uni17C1;
lastChange = "2021-04-16 09:15:25 +0000";
layers = (
{
layerId = "246EC62F-25D4-447A-A2A1-FEFF923DA7D2";
paths = (
{
closed = 1;
nodes = (
"150 50 OFFCURVE",
"217 0 OFFCURVE",
"350 0 CURVE SMOOTH",
"650 0 LINE",
"650 150 LINE",
"583 150 OFFCURVE",
"550 183 OFFCURVE",
"550 250 CURVE SMOOTH",
"550 950 LINE SMOOTH",
"550 1017 OFFCURVE",
"483 1050 OFFCURVE",
"350 1050 CURVE SMOOTH",
"260 1050 LINE SMOOTH",
"168 1050 OFFCURVE",
"122 1065 OFFCURVE",
"122 1095 CURVE SMOOTH",
"122 1148 LINE SMOOTH",
"122 1183 OFFCURVE",
"152 1200 OFFCURVE",
"212 1200 CURVE SMOOTH",
"286 1200 OFFCURVE",
"353 1195 OFFCURVE",
"412 1186 CURVE SMOOTH",
"422 1185 OFFCURVE",
"432 1184 OFFCURVE",
"442 1184 CURVE SMOOTH",
"487 1184 OFFCURVE",
"523 1202 OFFCURVE",
"550 1239 CURVE",
"550 1500 LINE",
"528 1483 OFFCURVE",
"503 1475 OFFCURVE",
"475 1475 CURVE SMOOTH",
"461 1475 OFFCURVE",
"446 1477 OFFCURVE",
"430 1481 CURVE SMOOTH",
"383 1494 OFFCURVE",
"327 1500 OFFCURVE",
"263 1500 CURVE SMOOTH",
"134 1500 LINE SMOOTH",
"45 1500 OFFCURVE",
"0 1467 OFFCURVE",
"0 1400 CURVE SMOOTH",
"0 1068 LINE SMOOTH",
"0 1011 OFFCURVE",
"50 970 OFFCURVE",
"150 945 CURVE",
"150 150 LINE SMOOTH"
);
}
);
width = 700;
}
);
note = uni17C1;
unicode = 17C1;
},
{
glyphname = uni17C2;
lastChange = "2021-04-16 09:15:25 +0000";
layers = (
{
layerId = "246EC62F-25D4-447A-A2A1-FEFF923DA7D2";
paths = (
{
closed = 1;
nodes = (
"517 1650 OFFCURVE",
"600 1750 OFFCURVE",
"600 1950 CURVE SMOOTH",
"600 2049 LINE",
"450 2049 LINE",
"450 1950 LINE SMOOTH",
"450 1851 OFFCURVE",
"417 1801 OFFCURVE",
"350 1801 CURVE SMOOTH",
"251 1801 LINE",
"251 1901 LINE",
"351 1901 LINE",
"351 2050 LINE",
"0 2050 LINE",
"0 1650 LINE",
"350 1650 LINE SMOOTH"
);
},
{
closed = 1;
nodes = (
"150 50 OFFCURVE",
"217 0 OFFCURVE",
"350 0 CURVE SMOOTH",
"650 0 LINE",
"650 150 LINE",
"583 150 OFFCURVE",
"550 183 OFFCURVE",
"550 250 CURVE SMOOTH",
"550 950 LINE SMOOTH",
"550 1017 OFFCURVE",
"483 1050 OFFCURVE",
"350 1050 CURVE SMOOTH",
"260 1050 LINE SMOOTH",
"168 1050 OFFCURVE",
"122 1065 OFFCURVE",
"122 1095 CURVE SMOOTH",
"122 1148 LINE SMOOTH",
"122 1183 OFFCURVE",
"152 1200 OFFCURVE",
"212 1200 CURVE SMOOTH",
"286 1200 OFFCURVE",
"353 1195 OFFCURVE",
"412 1186 CURVE SMOOTH",
"422 1185 OFFCURVE",
"432 1184 OFFCURVE",
"442 1184 CURVE SMOOTH",
"487 1184 OFFCURVE",
"523 1202 OFFCURVE",
"550 1239 CURVE",
"550 1500 LINE",
"528 1483 OFFCURVE",
"503 1475 OFFCURVE",
"475 1475 CURVE SMOOTH",
"461 1475 OFFCURVE",
"446 1477 OFFCURVE",
"430 1481 CURVE SMOOTH",
"383 1494 OFFCURVE",
"327 1500 OFFCURVE",
"263 1500 CURVE SMOOTH",
"134 1500 LINE SMOOTH",
"45 1500 OFFCURVE",
"0 1467 OFFCURVE",
"0 1400 CURVE SMOOTH",
"0 1068 LINE SMOOTH",
"0 1011 OFFCURVE",
"50 970 OFFCURVE",
"150 945 CURVE",
"150 150 LINE SMOOTH"
);
}
);
width = 700;
}
);
note = uni17C2;
unicode = 17C2;
},
{
glyphname = uni17C3;
lastChange = "2021-04-16 09:15:25 +0000";
layers = (
{
layerId = "246EC62F-25D4-447A-A2A1-FEFF923DA7D2";
paths = (
{
closed = 1;
nodes = (
"550 1650 LINE",
"550 2000 LINE",
"200 2000 LINE",
"200 2150 LINE SMOOTH",
"200 2217 OFFCURVE",
"167 2250 OFFCURVE",
"100 2250 CURVE SMOOTH",
"-50 2250 LINE",
"-50 2110 LINE",
"-17 2110 OFFCURVE",
"0 2093 OFFCURVE",
"0 2060 CURVE SMOOTH",
"0 1875 LINE",
"200 1875 LINE",
"200 1900 LINE",
"251 1900 LINE",
"251 1800 LINE",
"0 1800 LINE",
"0 1650 LINE"
);
},
{
closed = 1;
nodes = (
"150 50 OFFCURVE",
"217 0 OFFCURVE",
"350 0 CURVE SMOOTH",
"650 0 LINE",
"650 150 LINE",
"583 150 OFFCURVE",
"550 183 OFFCURVE",
"550 250 CURVE SMOOTH",
"550 950 LINE SMOOTH",
"550 1017 OFFCURVE",
"483 1050 OFFCURVE",
"350 1050 CURVE SMOOTH",
"260 1050 LINE SMOOTH",
"168 1050 OFFCURVE",
"122 1065 OFFCURVE",
"122 1095 CURVE SMOOTH",
"122 1148 LINE SMOOTH",
"122 1183 OFFCURVE",
"152 1200 OFFCURVE",
"212 1200 CURVE SMOOTH",
"286 1200 OFFCURVE",
"353 1195 OFFCURVE",
"412 1186 CURVE SMOOTH",
"422 1185 OFFCURVE",
"432 1184 OFFCURVE",
"442 1184 CURVE SMOOTH",
"487 1184 OFFCURVE",
"523 1202 OFFCURVE",
"550 1239 CURVE",
"550 1500 LINE",
"528 1483 OFFCURVE",
"503 1475 OFFCURVE",
"475 1475 CURVE SMOOTH",
"461 1475 OFFCURVE",
"446 1477 OFFCURVE",
"430 1481 CURVE SMOOTH",
"383 1494 OFFCURVE",
"327 1500 OFFCURVE",
"263 1500 CURVE SMOOTH",
"134 1500 LINE SMOOTH",
"45 1500 OFFCURVE",
"0 1467 OFFCURVE",
"0 1400 CURVE SMOOTH",
"0 1068 LINE SMOOTH",
"0 1011 OFFCURVE",
"50 970 OFFCURVE",
"150 945 CURVE",
"150 150 LINE SMOOTH"
);
}
);
width = 700;
}
);
note = uni17C3;
unicode = 17C3;
},
{
glyphname = uni17C4;
lastChange = "2021-04-16 09:15:25 +0000";
layers = (
{
layerId = "246EC62F-25D4-447A-A2A1-FEFF923DA7D2";
paths = (
{
closed = 1;
nodes = (
"-3 1500 OFFCURVE",
"-70 1467 OFFCURVE",
"-150 1400 CURVE",
"-150 1200 LINE",
"50 1200 LINE SMOOTH",
"117 1200 OFFCURVE",
"150 1167 OFFCURVE",
"150 1100 CURVE SMOOTH",
"150 0 LINE",
"550 0 LINE",
"550 1200 LINE SMOOTH",
"550 1400 OFFCURVE",
"450 1500 OFFCURVE",
"250 1500 CURVE SMOOTH",
"50 1500 LINE SMOOTH"
);
}
);
width = 700;
}
);
note = uni17C4;
unicode = 17C4;
},
{
glyphname = uni17C5;
lastChange = "2021-04-16 09:15:25 +0000";
layers = (
{
layerId = "246EC62F-25D4-447A-A2A1-FEFF923DA7D2";
paths = (
{
closed = 1;
nodes = (
"507 1465 OFFCURVE",
"550 1510 OFFCURVE",
"550 1600 CURVE SMOOTH",
"550 1950 LINE SMOOTH",
"550 2050 OFFCURVE",
"483 2100 OFFCURVE",
"350 2100 CURVE SMOOTH",
"50 2100 LINE",
"50 1950 LINE",
"117 1950 OFFCURVE",
"150 1917 OFFCURVE",
"150 1850 CURVE SMOOTH",
"150 1500 LINE",
"50 1500 LINE SMOOTH",
"-3 1500 OFFCURVE",
"-70 1467 OFFCURVE",
"-150 1400 CURVE",
"-150 1200 LINE",
"50 1200 LINE SMOOTH",
"117 1200 OFFCURVE",
"150 1167 OFFCURVE",
"150 1100 CURVE SMOOTH",
"150 0 LINE",
"550 0 LINE",
"550 1200 LINE SMOOTH",
"550 1332 OFFCURVE",
"507 1420 OFFCURVE",
"420 1465 CURVE"
);
}
);
width = 700;
}
);
note = uni17C5;
unicode = 17C5;
},
{
glyphname = uni17C7;
lastChange = "2021-04-16 09:15:25 +0000";
layers = (
{
layerId = "246EC62F-25D4-447A-A2A1-FEFF923DA7D2";
paths = (
{
closed = 1;
nodes = (
"349 1500 OFFCURVE",
"245 1447 OFFCURVE",
"191 1351 CURVE SMOOTH",
"164 1302 OFFCURVE",
"150 1252 OFFCURVE",
"150 1200 CURVE SMOOTH",
"150 1096 OFFCURVE",
"205 992 OFFCURVE",
"301 940 CURVE SMOOTH",
"348 913 OFFCURVE",
"398 900 OFFCURVE",
"450 900 CURVE SMOOTH",
"554 900 OFFCURVE",
"658 955 OFFCURVE",
"711 1051 CURVE SMOOTH",
"737 1098 OFFCURVE",
"750 1148 OFFCURVE",
"750 1200 CURVE SMOOTH",
"750 1304 OFFCURVE",
"693 1410 OFFCURVE",
"597 1462 CURVE SMOOTH",
"549 1487 OFFCURVE",
"500 1500 OFFCURVE",
"450 1500 CURVE SMOOTH"
);
},
{
closed = 1;
nodes = (
"504 1300 OFFCURVE",
"550 1255 OFFCURVE",
"550 1200 CURVE SMOOTH",
"550 1144 OFFCURVE",
"506 1100 OFFCURVE",
"450 1100 CURVE SMOOTH",
"394 1100 OFFCURVE",
"350 1144 OFFCURVE",
"350 1200 CURVE SMOOTH",
"350 1255 OFFCURVE",
"396 1300 OFFCURVE",
"450 1300 CURVE SMOOTH"
);
},
{
closed = 1;
nodes = (
"349 600 OFFCURVE",
"245 547 OFFCURVE",
"191 451 CURVE SMOOTH",
"164 402 OFFCURVE",
"150 352 OFFCURVE",
"150 300 CURVE SMOOTH",
"150 196 OFFCURVE",
"205 92 OFFCURVE",
"301 40 CURVE SMOOTH",
"348 13 OFFCURVE",
"398 0 OFFCURVE",
"450 0 CURVE SMOOTH",
"554 0 OFFCURVE",
"658 55 OFFCURVE",
"711 151 CURVE SMOOTH",
"737 198 OFFCURVE",
"750 248 OFFCURVE",
"750 300 CURVE SMOOTH",
"750 404 OFFCURVE",
"693 510 OFFCURVE",
"597 562 CURVE SMOOTH",
"549 587 OFFCURVE",
"500 600 OFFCURVE",
"450 600 CURVE SMOOTH"
);
},
{
closed = 1;
nodes = (
"504 400 OFFCURVE",
"550 355 OFFCURVE",
"550 300 CURVE SMOOTH",
"550 244 OFFCURVE",
"506 200 OFFCURVE",
"450 200 CURVE SMOOTH",
"394 200 OFFCURVE",
"350 244 OFFCURVE",
"350 300 CURVE SMOOTH",
"350 355 OFFCURVE",
"396 400 OFFCURVE",
"450 400 CURVE SMOOTH"
);
}
);
width = 900;
}
);
note = uni17C7;
unicode = 17C7;
},
{
glyphname = uni17C8;
lastChange = "2021-04-16 09:15:25 +0000";
layers = (
{
layerId = "246EC62F-25D4-447A-A2A1-FEFF923DA7D2";
paths = (
{
closed = 1;
nodes = (
"249 1350 OFFCURVE",
"197 1323 OFFCURVE",
"170 1275 CURVE SMOOTH",
"157 1251 OFFCURVE",
"150 1226 OFFCURVE",
"150 1200 CURVE SMOOTH",
"150 1148 OFFCURVE",
"178 1097 OFFCURVE",
"226 1070 CURVE SMOOTH",
"249 1057 OFFCURVE",
"274 1050 OFFCURVE",
"300 1050 CURVE SMOOTH",
"352 1050 OFFCURVE",
"403 1078 OFFCURVE",
"430 1126 CURVE SMOOTH",
"443 1149 OFFCURVE",
"450 1174 OFFCURVE",
"450 1200 CURVE SMOOTH",
"450 1252 OFFCURVE",
"421 1305 OFFCURVE",
"374 1331 CURVE SMOOTH",
"350 1344 OFFCURVE",
"325 1350 OFFCURVE",
"300 1350 CURVE SMOOTH"
);
},
{
closed = 1;
nodes = (
"249 450 OFFCURVE",
"197 423 OFFCURVE",
"170 375 CURVE SMOOTH",
"157 351 OFFCURVE",
"150 326 OFFCURVE",
"150 300 CURVE SMOOTH",
"150 248 OFFCURVE",
"178 197 OFFCURVE",
"226 170 CURVE SMOOTH",
"249 157 OFFCURVE",
"274 150 OFFCURVE",
"300 150 CURVE SMOOTH",
"352 150 OFFCURVE",
"403 178 OFFCURVE",
"430 226 CURVE SMOOTH",
"443 249 OFFCURVE",
"450 274 OFFCURVE",
"450 300 CURVE SMOOTH",
"450 352 OFFCURVE",
"421 405 OFFCURVE",
"374 431 CURVE SMOOTH",
"350 444 OFFCURVE",
"325 450 OFFCURVE",
"300 450 CURVE SMOOTH"
);
}
);
width = 600;
}
);
note = uni17C8;
unicode = 17C8;
},
{
glyphname = uni17DC;
lastChange = "2021-04-16 09:15:25 +0000";
layers = (
{
layerId = "246EC62F-25D4-447A-A2A1-FEFF923DA7D2";
paths = (
{
closed = 1;
nodes = (
"988 -10 OFFCURVE",
"1150 123 OFFCURVE",
"1150 359 CURVE SMOOTH",
"1150 564 OFFCURVE",
"994 658 OFFCURVE",
"675 658 CURVE SMOOTH",
"543 658 OFFCURVE",
"466 671 OFFCURVE",
"422 724 CURVE SMOOTH",
"399 751 OFFCURVE",
"388 790 OFFCURVE",
"388 842 CURVE SMOOTH",
"388 974 OFFCURVE",
"487 1055 OFFCURVE",
"675 1055 CURVE SMOOTH",
"864 1055 OFFCURVE",
"963 1002 OFFCURVE",
"963 910 CURVE SMOOTH",
"963 871 OFFCURVE",
"949 851 OFFCURVE",
"922 851 CURVE SMOOTH",
"882 851 OFFCURVE",
"862 832 OFFCURVE",
"862 793 CURVE SMOOTH",
"862 754 OFFCURVE",
"882 734 OFFCURVE",
"922 734 CURVE SMOOTH",
"1027 734 OFFCURVE",
"1091 750 OFFCURVE",
"1125 802 CURVE SMOOTH",
"1142 827 OFFCURVE",
"1150 863 OFFCURVE",
"1150 910 CURVE SMOOTH",
"1150 1106 OFFCURVE",
"990 1210 OFFCURVE",
"675 1210 CURVE SMOOTH",
"362 1210 OFFCURVE",
"200 1078 OFFCURVE",
"200 842 CURVE SMOOTH",
"200 637 OFFCURVE",
"356 543 OFFCURVE",
"675 543 CURVE SMOOTH",
"808 543 OFFCURVE",
"884 531 OFFCURVE",
"929 478 CURVE SMOOTH",
"952 451 OFFCURVE",
"963 412 OFFCURVE",
"963 360 CURVE SMOOTH",
"963 227 OFFCURVE",
"864 146 OFFCURVE",
"675 146 CURVE SMOOTH",
"486 146 OFFCURVE",
"388 199 OFFCURVE",
"388 292 CURVE SMOOTH",
"388 331 OFFCURVE",
"402 350 OFFCURVE",
"429 350 CURVE SMOOTH",
"468 350 OFFCURVE",
"489 371 OFFCURVE",
"489 408 CURVE SMOOTH",
"489 448 OFFCURVE",
"469 468 OFFCURVE",
"429 468 CURVE SMOOTH",
"324 468 OFFCURVE",
"260 452 OFFCURVE",
"226 401 CURVE SMOOTH",
"209 376 OFFCURVE",
"200 340 OFFCURVE",
"200 293 CURVE SMOOTH",
"200 96 OFFCURVE",
"359 -10 OFFCURVE",
"675 -10 CURVE SMOOTH"
);
}
);
userData = {
assembly = "NPUSHB[ ]	/* 71 values pushed */\0120 5 0 8 7 5 8 105 0 7 0 6 9 7 6 105 0 9 0 4 1 9 4 105 0 1 0 2 3 1 2 105 0 3 3 0 97 10 1 0 0 19 0 78 2 0 55 53 48 46 43 41 39 37 32 30 26 24 19 17 14 12 9 7 0 62 2 59 11 7 22 \012CALL[ ]	/* CallFunction */";
};
width = 1350;
}
);
note = uni17DC;
unicode = 17DC;
},
{
glyphname = uni1789.a;
lastChange = "2021-04-16 09:15:25 +0000";
layers = (
{
layerId = "246EC62F-25D4-447A-A2A1-FEFF923DA7D2";
paths = (
{
closed = 1;
nodes = (
"1177 1460 OFFCURVE",
"1105 1500 OFFCURVE",
"1000 1500 CURVE SMOOTH",
"900 1500 LINE SMOOTH",
"809 1500 OFFCURVE",
"728 1454 OFFCURVE",
"657 1363 CURVE",
"582 1454 OFFCURVE",
"497 1500 OFFCURVE",
"400 1500 CURVE SMOOTH",
"300 1500 LINE SMOOTH",
"133 1500 OFFCURVE",
"50 1447 OFFCURVE",
"50 1340 CURVE SMOOTH",
"50 1068 LINE SMOOTH",
"50 1022 OFFCURVE",
"83 986 OFFCURVE",
"150 961 CURVE",
"150 100 LINE SMOOTH",
"150 33 OFFCURVE",
"200 0 OFFCURVE",
"300 0 CURVE SMOOTH",
"550 0 LINE SMOOTH",
"650 0 OFFCURVE",
"700 83 OFFCURVE",
"700 250 CURVE SMOOTH",
"700 417 OFFCURVE",
"650 500 OFFCURVE",
"550 500 CURVE",
"550 950 LINE SMOOTH",
"550 1017 OFFCURVE",
"500 1050 OFFCURVE",
"400 1050 CURVE SMOOTH",
"310 1050 LINE SMOOTH",
"219 1050 OFFCURVE",
"173 1065 OFFCURVE",
"172 1095 CURVE SMOOTH",
"171 1148 LINE",
"171 1149 LINE SMOOTH",
"171 1183 OFFCURVE",
"214 1200 OFFCURVE",
"300 1200 CURVE SMOOTH",
"400 1200 LINE SMOOTH",
"502 1200 OFFCURVE",
"588 1162 OFFCURVE",
"657 1085 CURVE",
"719 1162 OFFCURVE",
"767 1200 OFFCURVE",
"800 1200 CURVE SMOOTH",
"833 1200 OFFCURVE",
"850 1167 OFFCURVE",
"850 1100 CURVE SMOOTH",
"850 0 LINE",
"1250 0 LINE",
"1250 1200 LINE",
"1450 1200 LINE SMOOTH",
"1517 1200 OFFCURVE",
"1551 1171 OFFCURVE",
"1551 1113 CURVE SMOOTH",
"1551 1109 OFFCURVE",
"1551 1105 OFFCURVE",
"1550 1100 CURVE",
"1550 0 LINE",
"1950 0 LINE",
"1950 1200 LINE SMOOTH",
"1950 1400 OFFCURVE",
"1854 1500 OFFCURVE",
"1663 1500 CURVE SMOOTH",
"1450 1500 LINE SMOOTH",
"1381 1500 OFFCURVE",
"1303 1460 OFFCURVE",
"1216 1380 CURVE"
);
},
{
closed = 1;
nodes = (
"583 370 OFFCURVE",
"600 330 OFFCURVE",
"600 250 CURVE SMOOTH",
"600 170 OFFCURVE",
"583 130 OFFCURVE",
"550 130 CURVE",
"550 370 LINE"
);
}
);
width = 2100;
}
);
note = uni1789.a;
},
{
glyphname = uni1794.a;
lastChange = "2021-04-16 09:15:25 +0000";
layers = (
{
layerId = "246EC62F-25D4-447A-A2A1-FEFF923DA7D2";
paths = (
{
closed = 1;
nodes = (
"1250 1050 LINE",
"850 1050 LINE",
"850 200 LINE SMOOTH",
"850 133 OFFCURVE",
"800 100 OFFCURVE",
"700 100 CURVE SMOOTH",
"600 100 OFFCURVE",
"550 133 OFFCURVE",
"550 200 CURVE SMOOTH",
"550 950 LINE SMOOTH",
"550 1017 OFFCURVE",
"500 1050 OFFCURVE",
"400 1050 CURVE SMOOTH",
"310 1050 LINE SMOOTH",
"219 1050 OFFCURVE",
"173 1065 OFFCURVE",
"172 1095 CURVE SMOOTH",
"171 1148 LINE",
"171 1149 LINE SMOOTH",
"171 1183 OFFCURVE",
"210 1200 OFFCURVE",
"289 1200 CURVE SMOOTH",
"738 1200 LINE SMOOTH",
"843 1200 OFFCURVE",
"913 1187 OFFCURVE",
"950 1160 CURVE",
"987 1187 OFFCURVE",
"1038 1200 OFFCURVE",
"1104 1200 CURVE SMOOTH",
"1300 1200 LINE",
"1300 1500 LINE",
"1133 1500 LINE SMOOTH",
"1056 1500 OFFCURVE",
"995 1487 OFFCURVE",
"950 1460 CURVE",
"905 1487 OFFCURVE",
"852 1500 OFFCURVE",
"791 1500 CURVE SMOOTH",
"184 1500 LINE SMOOTH",
"95 1500 OFFCURVE",
"50 1467 OFFCURVE",
"50 1400 CURVE SMOOTH",
"50 1068 LINE SMOOTH",
"50 1022 OFFCURVE",
"83 986 OFFCURVE",
"150 961 CURVE",
"150 200 LINE SMOOTH",
"150 67 OFFCURVE",
"267 0 OFFCURVE",
"500 0 CURVE SMOOTH",
"850 0 LINE",
"850 -100 LINE",
"1250 -100 LINE"
);
}
);
width = 1400;
}
);
note = uni1794.a;
},
{
glyphname = uni17BF.b;
lastChange = "2021-04-16 09:15:25 +0000";
layers = (
{
layerId = "246EC62F-25D4-447A-A2A1-FEFF923DA7D2";
paths = (
{
closed = 1;
nodes = (
"550 1713 OFFCURVE",
"467 1778 OFFCURVE",
"300 1795 CURVE",
"300 2150 LINE",
"150 2150 LINE",
"150 1895 LINE",
"115 1917 OFFCURVE",
"81 1937 OFFCURVE",
"50 1954 CURVE",
"50 2150 LINE",
"-100 2150 LINE",
"-100 2026 LINE",
"-141 2042 OFFCURVE",
"-175 2050 OFFCURVE",
"-200 2050 CURVE SMOOTH",
"-500 2050 LINE SMOOTH",
"-633 2050 OFFCURVE",
"-700 2000 OFFCURVE",
"-700 1900 CURVE SMOOTH",
"-700 1700 LINE",
"0 1700 LINE SMOOTH",
"100 1700 OFFCURVE",
"150 1667 OFFCURVE",
"150 1600 CURVE SMOOTH",
"150 -930 LINE SMOOTH",
"150 -997 OFFCURVE",
"100 -1030 OFFCURVE",
"0 -1030 CURVE SMOOTH",
"-100 -1030 OFFCURVE",
"-150 -997 OFFCURVE",
"-150 -930 CURVE SMOOTH",
"-150 -680 LINE",
"-550 -680 LINE",
"-550 -930 LINE SMOOTH",
"-550 -1063 OFFCURVE",
"-458 -1130 OFFCURVE",
"-275 -1130 CURVE SMOOTH",
"275 -1130 LINE SMOOTH",
"458 -1130 OFFCURVE",
"550 -1063 OFFCURVE",
"550 -930 CURVE SMOOTH",
"550 1600 LINE SMOOTH"
);
}
);
width = 700;
}
);
note = uni17BF.b;
},
{
glyphname = uni17C0.b;
lastChange = "2021-04-16 09:15:25 +0000";
layers = (
{
layerId = "246EC62F-25D4-447A-A2A1-FEFF923DA7D2";
paths = (
{
closed = 1;
nodes = (
"550 1783 OFFCURVE",
"433 1850 OFFCURVE",
"200 1850 CURVE SMOOTH",
"-150 1850 LINE",
"-150 2150 LINE SMOOTH",
"-150 2250 OFFCURVE",
"-217 2300 OFFCURVE",
"-350 2300 CURVE SMOOTH",
"-600 2300 LINE",
"-600 2150 LINE",
"-567 2150 OFFCURVE",
"-550 2117 OFFCURVE",
"-550 2050 CURVE SMOOTH",
"-550 1650 LINE",
"-150 1650 LINE",
"-150 1717 OFFCURVE",
"-100 1750 OFFCURVE",
"0 1750 CURVE SMOOTH",
"100 1750 OFFCURVE",
"150 1717 OFFCURVE",
"150 1650 CURVE SMOOTH",
"150 -930 LINE SMOOTH",
"150 -997 OFFCURVE",
"100 -1030 OFFCURVE",
"0 -1030 CURVE SMOOTH",
"-100 -1030 OFFCURVE",
"-150 -997 OFFCURVE",
"-150 -930 CURVE SMOOTH",
"-150 -680 LINE",
"-550 -680 LINE",
"-550 -930 LINE SMOOTH",
"-550 -1063 OFFCURVE",
"-458 -1130 OFFCURVE",
"-275 -1130 CURVE SMOOTH",
"275 -1130 LINE SMOOTH",
"458 -1130 OFFCURVE",
"550 -1063 OFFCURVE",
"550 -930 CURVE SMOOTH",
"550 1650 LINE SMOOTH"
);
}
);
width = 700;
}
);
note = uni17C0.b;
},
{
glyphname = uni17D21783;
lastChange = "2021-04-16 09:15:47 +0000";
layers = (
{
layerId = "246EC62F-25D4-447A-A2A1-FEFF923DA7D2";
paths = (
{
closed = 1;
nodes = (
"-150 -110 OFFCURVE",
"-217 -70 OFFCURVE",
"-350 -70 CURVE SMOOTH",
"-650 -70 LINE",
"-650 -190 LINE",
"-583 -190 OFFCURVE",
"-550 -217 OFFCURVE",
"-550 -270 CURVE SMOOTH",
"-550 -440 LINE SMOOTH",
"-550 -480 OFFCURVE",
"-600 -500 OFFCURVE",
"-700 -500 CURVE SMOOTH",
"-800 -500 OFFCURVE",
"-850 -480 OFFCURVE",
"-850 -440 CURVE SMOOTH",
"-850 -190 LINE SMOOTH",
"-850 -110 OFFCURVE",
"-917 -70 OFFCURVE",
"-1050 -70 CURVE SMOOTH",
"-1350 -70 LINE",
"-1350 -190 LINE",
"-1283 -190 OFFCURVE",
"-1250 -217 OFFCURVE",
"-1250 -270 CURVE SMOOTH",
"-1250 -440 LINE SMOOTH",
"-1250 -547 OFFCURVE",
"-1133 -600 OFFCURVE",
"-900 -600 CURVE SMOOTH",
"200 -600 LINE SMOOTH",
"433 -600 OFFCURVE",
"550 -547 OFFCURVE",
"550 -440 CURVE SMOOTH",
"550 950 LINE SMOOTH",
"550 1017 OFFCURVE",
"483 1050 OFFCURVE",
"350 1050 CURVE SMOOTH",
"260 1050 LINE SMOOTH",
"168 1050 OFFCURVE",
"122 1065 OFFCURVE",
"122 1095 CURVE SMOOTH",
"122 1148 LINE SMOOTH",
"122 1183 OFFCURVE",
"152 1200 OFFCURVE",
"212 1200 CURVE SMOOTH",
"286 1200 OFFCURVE",
"353 1195 OFFCURVE",
"412 1186 CURVE SMOOTH",
"422 1185 OFFCURVE",
"432 1184 OFFCURVE",
"442 1184 CURVE SMOOTH",
"487 1184 OFFCURVE",
"523 1202 OFFCURVE",
"550 1239 CURVE",
"550 1500 LINE",
"528 1483 OFFCURVE",
"503 1475 OFFCURVE",
"475 1475 CURVE SMOOTH",
"461 1475 OFFCURVE",
"446 1477 OFFCURVE",
"430 1481 CURVE SMOOTH",
"383 1494 OFFCURVE",
"327 1500 OFFCURVE",
"263 1500 CURVE SMOOTH",
"134 1500 LINE SMOOTH",
"45 1500 OFFCURVE",
"0 1467 OFFCURVE",
"0 1400 CURVE SMOOTH",
"0 1068 LINE SMOOTH",
"0 1011 OFFCURVE",
"50 970 OFFCURVE",
"150 945 CURVE",
"150 -440 LINE SMOOTH",
"150 -480 OFFCURVE",
"100 -500 OFFCURVE",
"0 -500 CURVE SMOOTH",
"-100 -500 OFFCURVE",
"-150 -480 OFFCURVE",
"-150 -440 CURVE SMOOTH",
"-150 -190 LINE SMOOTH"
);
}
);
width = 700;
}
);
note = uni17D21783;
category = Letter;
},
{
glyphname = uni17D21788;
lastChange = "2021-04-16 09:15:47 +0000";
layers = (
{
layerId = "246EC62F-25D4-447A-A2A1-FEFF923DA7D2";
paths = (
{
closed = 1;
nodes = (
"-550 -137 OFFCURVE",
"-633 -70 OFFCURVE",
"-800 -70 CURVE SMOOTH",
"-1100 -70 LINE SMOOTH",
"-1267 -70 OFFCURVE",
"-1350 -137 OFFCURVE",
"-1350 -270 CURVE SMOOTH",
"-1350 -500 LINE SMOOTH",
"-1350 -567 OFFCURVE",
"-1300 -600 OFFCURVE",
"-1200 -600 CURVE SMOOTH",
"-1050 -600 LINE SMOOTH",
"-983 -600 OFFCURVE",
"-950 -562 OFFCURVE",
"-950 -485 CURVE SMOOTH",
"-950 -408 OFFCURVE",
"-983 -370 OFFCURVE",
"-1050 -370 CURVE",
"-1050 -270 LINE SMOOTH",
"-1050 -203 OFFCURVE",
"-1017 -170 OFFCURVE",
"-950 -170 CURVE SMOOTH",
"-883 -170 OFFCURVE",
"-850 -203 OFFCURVE",
"-850 -270 CURVE SMOOTH",
"-850 -440 LINE SMOOTH",
"-850 -547 OFFCURVE",
"-767 -600 OFFCURVE",
"-600 -600 CURVE SMOOTH",
"200 -600 LINE SMOOTH",
"433 -600 OFFCURVE",
"550 -547 OFFCURVE",
"550 -440 CURVE SMOOTH",
"550 950 LINE SMOOTH",
"550 1017 OFFCURVE",
"483 1050 OFFCURVE",
"350 1050 CURVE SMOOTH",
"260 1050 LINE SMOOTH",
"168 1050 OFFCURVE",
"122 1065 OFFCURVE",
"122 1095 CURVE SMOOTH",
"122 1148 LINE SMOOTH",
"122 1183 OFFCURVE",
"152 1200 OFFCURVE",
"212 1200 CURVE SMOOTH",
"286 1200 OFFCURVE",
"353 1195 OFFCURVE",
"412 1186 CURVE SMOOTH",
"422 1185 OFFCURVE",
"432 1184 OFFCURVE",
"442 1184 CURVE SMOOTH",
"487 1184 OFFCURVE",
"523 1202 OFFCURVE",
"550 1239 CURVE",
"550 1500 LINE",
"528 1483 OFFCURVE",
"503 1475 OFFCURVE",
"475 1475 CURVE SMOOTH",
"461 1475 OFFCURVE",
"446 1477 OFFCURVE",
"430 1481 CURVE SMOOTH",
"383 1494 OFFCURVE",
"327 1500 OFFCURVE",
"263 1500 CURVE SMOOTH",
"134 1500 LINE SMOOTH",
"45 1500 OFFCURVE",
"0 1467 OFFCURVE",
"0 1400 CURVE SMOOTH",
"0 1068 LINE SMOOTH",
"0 1011 OFFCURVE",
"50 970 OFFCURVE",
"150 945 CURVE",
"150 -440 LINE SMOOTH",
"150 -480 OFFCURVE",
"117 -500 OFFCURVE",
"50 -500 CURVE SMOOTH",
"-17 -500 OFFCURVE",
"-50 -480 OFFCURVE",
"-50 -440 CURVE SMOOTH",
"-50 -190 LINE SMOOTH",
"-50 -110 OFFCURVE",
"-117 -70 OFFCURVE",
"-250 -70 CURVE SMOOTH",
"-450 -70 LINE",
"-450 -190 LINE",
"-383 -190 OFFCURVE",
"-350 -217 OFFCURVE",
"-350 -270 CURVE SMOOTH",
"-350 -440 LINE SMOOTH",
"-350 -480 OFFCURVE",
"-383 -500 OFFCURVE",
"-450 -500 CURVE SMOOTH",
"-517 -500 OFFCURVE",
"-550 -480 OFFCURVE",
"-550 -440 CURVE SMOOTH",
"-550 -270 LINE SMOOTH"
);
}
);
width = 700;
}
);
note = uni17D21788;
category = Letter;
},
{
glyphname = uni17D2178D;
lastChange = "2021-04-16 09:15:47 +0000";
layers = (
{
layerId = "246EC62F-25D4-447A-A2A1-FEFF923DA7D2";
paths = (
{
closed = 1;
nodes = (
"81 -417 OFFCURVE",
"-2 -407 OFFCURVE",
"-100 -407 CURVE SMOOTH",
"-150 -407 LINE",
"-150 -142 LINE SMOOTH",
"-150 -94 OFFCURVE",
"-233 -70 OFFCURVE",
"-400 -70 CURVE SMOOTH",
"-500 -70 LINE SMOOTH",
"-591 -70 OFFCURVE",
"-672 -84 OFFCURVE",
"-743 -112 CURVE",
"-818 -84 OFFCURVE",
"-903 -70 OFFCURVE",
"-1000 -70 CURVE SMOOTH",
"-1100 -70 LINE SMOOTH",
"-1267 -70 OFFCURVE",
"-1350 -88 OFFCURVE",
"-1350 -123 CURVE SMOOTH",
"-1350 -254 LINE SMOOTH",
"-1350 -276 OFFCURVE",
"-1317 -293 OFFCURVE",
"-1250 -305 CURVE",
"-1250 -551 LINE SMOOTH",
"-1250 -584 OFFCURVE",
"-1200 -600 OFFCURVE",
"-1100 -600 CURVE SMOOTH",
"-850 -600 LINE SMOOTH",
"-750 -600 OFFCURVE",
"-700 -560 OFFCURVE",
"-700 -479 CURVE SMOOTH",
"-700 -399 OFFCURVE",
"-750 -359 OFFCURVE",
"-850 -359 CURVE",
"-850 -310 LINE SMOOTH",
"-850 -279 OFFCURVE",
"-900 -263 OFFCURVE",
"-1000 -263 CURVE SMOOTH",
"-1090 -263 LINE SMOOTH",
"-1181 -263 OFFCURVE",
"-1227 -255 OFFCURVE",
"-1228 -240 CURVE SMOOTH",
"-1229 -215 LINE SMOOTH",
"-1229 -198 OFFCURVE",
"-1186 -190 OFFCURVE",
"-1100 -190 CURVE SMOOTH",
"-1000 -190 LINE SMOOTH",
"-898 -190 OFFCURVE",
"-812 -209 OFFCURVE",
"-743 -246 CURVE",
"-681 -209 OFFCURVE",
"-633 -190 OFFCURVE",
"-600 -190 CURVE SMOOTH",
"-567 -190 OFFCURVE",
"-550 -206 OFFCURVE",
"-550 -238 CURVE SMOOTH",
"-550 -383 LINE",
"-417 -407 LINE",
"-445 -408 OFFCURVE",
"-472 -413 OFFCURVE",
"-498 -420 CURVE SMOOTH",
"-562 -436 OFFCURVE",
"-600 -470 OFFCURVE",
"-600 -503 CURVE SMOOTH",
"-600 -568 OFFCURVE",
"-525 -600 OFFCURVE",
"-375 -600 CURVE SMOOTH",
"-225 -600 OFFCURVE",
"-150 -571 OFFCURVE",
"-150 -512 CURVE",
"-100 -512 LINE SMOOTH",
"28 -512 OFFCURVE",
"150 -512 OFFCURVE",
"150 -600 CURVE",
"400 -600 LINE SMOOTH",
"500 -600 OFFCURVE",
"550 -568 OFFCURVE",
"550 -503 CURVE SMOOTH",
"550 950 LINE SMOOTH",
"550 1017 OFFCURVE",
"483 1050 OFFCURVE",
"350 1050 CURVE SMOOTH",
"260 1050 LINE SMOOTH",
"169 1050 OFFCURVE",
"123 1065 OFFCURVE",
"122 1095 CURVE SMOOTH",
"121 1148 LINE",
"121 1149 LINE SMOOTH",
"121 1183 OFFCURVE",
"151 1200 OFFCURVE",
"212 1200 CURVE SMOOTH",
"286 1200 OFFCURVE",
"353 1195 OFFCURVE",
"412 1186 CURVE SMOOTH",
"422 1185 OFFCURVE",
"432 1184 OFFCURVE",
"442 1184 CURVE SMOOTH",
"487 1184 OFFCURVE",
"523 1202 OFFCURVE",
"550 1239 CURVE",
"550 1500 LINE",
"528 1483 OFFCURVE",
"503 1475 OFFCURVE",
"475 1475 CURVE SMOOTH",
"461 1475 OFFCURVE",
"446 1477 OFFCURVE",
"430 1481 CURVE SMOOTH",
"383 1494 OFFCURVE",
"327 1500 OFFCURVE",
"263 1500 CURVE SMOOTH",
"134 1500 LINE SMOOTH",
"45 1500 OFFCURVE",
"0 1467 OFFCURVE",
"0 1400 CURVE SMOOTH",
"0 1068 LINE SMOOTH",
"0 1011 OFFCURVE",
"50 970 OFFCURVE",
"150 945 CURVE",
"150 -436 LINE"
);
},
{
closed = 1;
nodes = (
"-817 -430 OFFCURVE",
"-800 -446 OFFCURVE",
"-800 -479 CURVE SMOOTH",
"-800 -512 OFFCURVE",
"-817 -528 OFFCURVE",
"-850 -528 CURVE",
"-850 -430 LINE"
);
}
);
width = 700;
}
);
note = uni17D2178D;
category = Letter;
},
{
glyphname = uni17D21794;
lastChange = "2021-04-16 09:15:47 +0000";
layers = (
{
layerId = "246EC62F-25D4-447A-A2A1-FEFF923DA7D2";
paths = (
{
closed = 1;
nodes = (
"-150 -430 LINE",
"-150 -246 LINE SMOOTH",
"-150 -187 OFFCURVE",
"-133 -158 OFFCURVE",
"-100 -158 CURVE",
"-100 -70 LINE",
"-350 -70 LINE SMOOTH",
"-483 -70 OFFCURVE",
"-550 -114 OFFCURVE",
"-550 -202 CURVE SMOOTH",
"-550 -512 LINE SMOOTH",
"-550 -571 OFFCURVE",
"-501 -600 OFFCURVE",
"-403 -600 CURVE SMOOTH",
"-150 -600 LINE",
"0 -383 LINE",
"150 -600 LINE",
"403 -600 LINE SMOOTH",
"501 -600 OFFCURVE",
"550 -571 OFFCURVE",
"550 -512 CURVE SMOOTH",
"550 950 LINE SMOOTH",
"550 1017 OFFCURVE",
"483 1050 OFFCURVE",
"350 1050 CURVE SMOOTH",
"260 1050 LINE SMOOTH",
"168 1050 OFFCURVE",
"122 1065 OFFCURVE",
"122 1095 CURVE SMOOTH",
"122 1148 LINE SMOOTH",
"122 1183 OFFCURVE",
"152 1200 OFFCURVE",
"212 1200 CURVE SMOOTH",
"286 1200 OFFCURVE",
"353 1195 OFFCURVE",
"412 1186 CURVE SMOOTH",
"422 1185 OFFCURVE",
"432 1184 OFFCURVE",
"442 1184 CURVE SMOOTH",
"487 1184 OFFCURVE",
"523 1202 OFFCURVE",
"550 1239 CURVE",
"550 1500 LINE",
"528 1483 OFFCURVE",
"503 1475 OFFCURVE",
"475 1475 CURVE SMOOTH",
"461 1475 OFFCURVE",
"446 1477 OFFCURVE",
"430 1481 CURVE SMOOTH",
"383 1494 OFFCURVE",
"327 1500 OFFCURVE",
"263 1500 CURVE SMOOTH",
"134 1500 LINE SMOOTH",
"45 1500 OFFCURVE",
"0 1467 OFFCURVE",
"0 1400 CURVE SMOOTH",
"0 1068 LINE SMOOTH",
"0 1011 OFFCURVE",
"50 970 OFFCURVE",
"150 945 CURVE",
"150 -430 LINE",
"0 -213 LINE"
);
}
);
width = 700;
}
);
note = uni17D21794;
category = Letter;
},
{
glyphname = uni17D21799;
lastChange = "2021-04-16 09:15:47 +0000";
layers = (
{
layerId = "246EC62F-25D4-447A-A2A1-FEFF923DA7D2";
paths = (
{
closed = 1;
nodes = (
"550 1017 OFFCURVE",
"483 1050 OFFCURVE",
"350 1050 CURVE SMOOTH",
"260 1050 LINE SMOOTH",
"168 1050 OFFCURVE",
"122 1065 OFFCURVE",
"122 1095 CURVE SMOOTH",
"122 1148 LINE SMOOTH",
"122 1183 OFFCURVE",
"152 1200 OFFCURVE",
"212 1200 CURVE SMOOTH",
"286 1200 OFFCURVE",
"353 1195 OFFCURVE",
"412 1186 CURVE SMOOTH",
"422 1185 OFFCURVE",
"432 1184 OFFCURVE",
"442 1184 CURVE SMOOTH",
"487 1184 OFFCURVE",
"523 1202 OFFCURVE",
"550 1239 CURVE",
"550 1500 LINE",
"528 1483 OFFCURVE",
"503 1475 OFFCURVE",
"475 1475 CURVE SMOOTH",
"461 1475 OFFCURVE",
"446 1477 OFFCURVE",
"430 1481 CURVE SMOOTH",
"383 1494 OFFCURVE",
"327 1500 OFFCURVE",
"263 1500 CURVE SMOOTH",
"134 1500 LINE SMOOTH",
"45 1500 OFFCURVE",
"0 1467 OFFCURVE",
"0 1400 CURVE SMOOTH",
"0 1068 LINE SMOOTH",
"0 1011 OFFCURVE",
"50 970 OFFCURVE",
"150 945 CURVE",
"150 -414 LINE SMOOTH",
"150 -476 OFFCURVE",
"100 -507 OFFCURVE",
"0 -507 CURVE SMOOTH",
"-100 -507 OFFCURVE",
"-150 -476 OFFCURVE",
"-150 -414 CURVE SMOOTH",
"-150 -377 LINE",
"-50 -377 OFFCURVE",
"0 -326 OFFCURVE",
"0 -223 CURVE SMOOTH",
"0 -121 OFFCURVE",
"-50 -70 OFFCURVE",
"-150 -70 CURVE SMOOTH",
"-400 -70 LINE SMOOTH",
"-500 -70 OFFCURVE",
"-550 -101 OFFCURVE",
"-550 -163 CURVE SMOOTH",
"-550 -414 LINE SMOOTH",
"-550 -538 OFFCURVE",
"-433 -600 OFFCURVE",
"-200 -600 CURVE SMOOTH",
"200 -600 LINE SMOOTH",
"433 -600 OFFCURVE",
"550 -538 OFFCURVE",
"550 -414 CURVE SMOOTH",
"550 950 LINE SMOOTH"
);
},
{
closed = 1;
nodes = (
"-100 -245 OFFCURVE",
"-117 -256 OFFCURVE",
"-150 -256 CURVE",
"-150 -191 LINE",
"-117 -191 OFFCURVE",
"-100 -202 OFFCURVE",
"-100 -223 CURVE SMOOTH"
);
}
);
width = 700;
}
);
note = uni17D21799;
category = Letter;
},
{
glyphname = uni17D2179A;
lastChange = "2021-04-16 09:15:47 +0000";
layers = (
{
layerId = "246EC62F-25D4-447A-A2A1-FEFF923DA7D2";
paths = (
{
closed = 1;
nodes = (
"550 1017 OFFCURVE",
"483 1050 OFFCURVE",
"350 1050 CURVE SMOOTH",
"260 1050 LINE SMOOTH",
"168 1050 OFFCURVE",
"122 1065 OFFCURVE",
"122 1095 CURVE SMOOTH",
"122 1148 LINE SMOOTH",
"122 1183 OFFCURVE",
"152 1200 OFFCURVE",
"212 1200 CURVE SMOOTH",
"286 1200 OFFCURVE",
"353 1195 OFFCURVE",
"412 1186 CURVE SMOOTH",
"422 1185 OFFCURVE",
"432 1184 OFFCURVE",
"442 1184 CURVE SMOOTH",
"487 1184 OFFCURVE",
"523 1202 OFFCURVE",
"550 1239 CURVE",
"550 1500 LINE",
"528 1483 OFFCURVE",
"503 1475 OFFCURVE",
"475 1475 CURVE SMOOTH",
"461 1475 OFFCURVE",
"446 1477 OFFCURVE",
"430 1481 CURVE SMOOTH",
"383 1494 OFFCURVE",
"327 1500 OFFCURVE",
"263 1500 CURVE SMOOTH",
"134 1500 LINE SMOOTH",
"45 1500 OFFCURVE",
"0 1467 OFFCURVE",
"0 1400 CURVE SMOOTH",
"0 1068 LINE SMOOTH",
"0 1011 OFFCURVE",
"50 970 OFFCURVE",
"150 945 CURVE",
"150 -400 LINE SMOOTH",
"150 -533 OFFCURVE",
"267 -600 OFFCURVE",
"500 -600 CURVE SMOOTH",
"900 -600 LINE SMOOTH",
"1133 -600 OFFCURVE",
"1250 -533 OFFCURVE",
"1250 -400 CURVE SMOOTH",
"1250 -70 LINE",
"850 -70 LINE",
"850 -400 LINE SMOOTH",
"850 -467 OFFCURVE",
"800 -500 OFFCURVE",
"700 -500 CURVE SMOOTH",
"600 -500 OFFCURVE",
"550 -467 OFFCURVE",
"550 -400 CURVE SMOOTH",
"550 950 LINE SMOOTH"
);
}
);
width = 700;
}
);
note = uni17D2179A;
category = Letter;
},
{
glyphname = uni17D2179F;
lastChange = "2021-04-16 09:15:47 +0000";
layers = (
{
layerId = "246EC62F-25D4-447A-A2A1-FEFF923DA7D2";
paths = (
{
closed = 1;
nodes = (
"150 0 LINE",
"150 -400 LINE SMOOTH",
"150 -467 OFFCURVE",
"100 -500 OFFCURVE",
"0 -500 CURVE SMOOTH",
"-100 -500 OFFCURVE",
"-150 -467 OFFCURVE",
"-150 -400 CURVE SMOOTH",
"-150 -219 LINE SMOOTH",
"-150 -119 OFFCURVE",
"-217 -69 OFFCURVE",
"-350 -69 CURVE SMOOTH",
"-600 -69 LINE",
"-600 -169 LINE",
"-567 -169 OFFCURVE",
"-550 -202 OFFCURVE",
"-550 -269 CURVE SMOOTH",
"-550 -400 LINE SMOOTH",
"-550 -533 OFFCURVE",
"-433 -600 OFFCURVE",
"-200 -600 CURVE SMOOTH",
"200 -600 LINE SMOOTH",
"433 -600 OFFCURVE",
"550 -533 OFFCURVE",
"550 -400 CURVE SMOOTH",
"550 0 LINE",
"700 0 LINE",
"700 100 LINE",
"550 100 LINE",
"550 950 LINE SMOOTH",
"550 1017 OFFCURVE",
"483 1050 OFFCURVE",
"350 1050 CURVE SMOOTH",
"260 1050 LINE SMOOTH",
"168 1050 OFFCURVE",
"122 1065 OFFCURVE",
"122 1095 CURVE SMOOTH",
"122 1148 LINE SMOOTH",
"122 1183 OFFCURVE",
"152 1200 OFFCURVE",
"212 1200 CURVE SMOOTH",
"286 1200 OFFCURVE",
"353 1195 OFFCURVE",
"412 1186 CURVE SMOOTH",
"422 1185 OFFCURVE",
"432 1184 OFFCURVE",
"442 1184 CURVE SMOOTH",
"487 1184 OFFCURVE",
"523 1202 OFFCURVE",
"550 1239 CURVE",
"550 1500 LINE",
"528 1483 OFFCURVE",
"503 1475 OFFCURVE",
"475 1475 CURVE SMOOTH",
"461 1475 OFFCURVE",
"446 1477 OFFCURVE",
"430 1481 CURVE SMOOTH",
"383 1494 OFFCURVE",
"327 1500 OFFCURVE",
"263 1500 CURVE SMOOTH",
"134 1500 LINE SMOOTH",
"45 1500 OFFCURVE",
"0 1467 OFFCURVE",
"0 1400 CURVE SMOOTH",
"0 1068 LINE SMOOTH",
"0 1011 OFFCURVE",
"50 970 OFFCURVE",
"150 945 CURVE",
"150 100 LINE",
"0 100 LINE",
"0 0 LINE"
);
}
);
width = 700;
}
);
note = uni17D2179F;
category = Letter;
},
{
glyphname = uni17D2179A.b;
lastChange = "2021-04-16 09:15:47 +0000";
layers = (
{
layerId = "246EC62F-25D4-447A-A2A1-FEFF923DA7D2";
paths = (
{
closed = 1;
nodes = (
"550 1017 OFFCURVE",
"483 1050 OFFCURVE",
"350 1050 CURVE SMOOTH",
"260 1050 LINE SMOOTH",
"168 1050 OFFCURVE",
"122 1065 OFFCURVE",
"122 1095 CURVE SMOOTH",
"122 1148 LINE SMOOTH",
"122 1183 OFFCURVE",
"152 1200 OFFCURVE",
"212 1200 CURVE SMOOTH",
"286 1200 OFFCURVE",
"353 1195 OFFCURVE",
"412 1186 CURVE SMOOTH",
"422 1185 OFFCURVE",
"432 1184 OFFCURVE",
"442 1184 CURVE SMOOTH",
"487 1184 OFFCURVE",
"523 1202 OFFCURVE",
"550 1239 CURVE",
"550 1500 LINE",
"528 1483 OFFCURVE",
"503 1475 OFFCURVE",
"475 1475 CURVE SMOOTH",
"461 1475 OFFCURVE",
"446 1477 OFFCURVE",
"430 1481 CURVE SMOOTH",
"383 1494 OFFCURVE",
"327 1500 OFFCURVE",
"263 1500 CURVE SMOOTH",
"134 1500 LINE SMOOTH",
"45 1500 OFFCURVE",
"0 1467 OFFCURVE",
"0 1400 CURVE SMOOTH",
"0 1068 LINE SMOOTH",
"0 1011 OFFCURVE",
"50 970 OFFCURVE",
"150 945 CURVE",
"150 -920 LINE SMOOTH",
"150 -1053 OFFCURVE",
"267 -1120 OFFCURVE",
"500 -1120 CURVE SMOOTH",
"900 -1120 LINE SMOOTH",
"1133 -1120 OFFCURVE",
"1250 -1053 OFFCURVE",
"1250 -920 CURVE SMOOTH",
"1250 -670 LINE",
"850 -670 LINE",
"850 -920 LINE SMOOTH",
"850 -987 OFFCURVE",
"800 -1020 OFFCURVE",
"700 -1020 CURVE SMOOTH",
"600 -1020 OFFCURVE",
"550 -987 OFFCURVE",
"550 -920 CURVE SMOOTH",
"550 950 LINE SMOOTH"
);
}
);
width = 700;
}
);
note = uni17D2179A.b;
category = Letter;
},
{
glyphname = zero;
lastChange = "2021-04-16 09:15:25 +0000";
layers = (
{
layerId = "246EC62F-25D4-447A-A2A1-FEFF923DA7D2";
paths = (
{
closed = 1;
nodes = (
"948 -27 OFFCURVE",
"1137 91 OFFCURVE",
"1235 307 CURVE SMOOTH",
"1284 415 OFFCURVE",
"1308 544 OFFCURVE",
"1308 694 CURVE SMOOTH",
"1308 1123 OFFCURVE",
"1080 1374 OFFCURVE",
"689 1374 CURVE SMOOTH",
"300 1374 OFFCURVE",
"71 1123 OFFCURVE",
"71 694 CURVE SMOOTH",
"71 241 OFFCURVE",
"301 -27 OFFCURVE",
"692 -27 CURVE SMOOTH"
);
},
{
closed = 1;
nodes = (
"819 532 OFFCURVE",
"808 423 OFFCURVE",
"767 378 CURVE SMOOTH",
"748 358 OFFCURVE",
"722 348 OFFCURVE",
"687 348 CURVE SMOOTH",
"622 348 OFFCURVE",
"585 385 OFFCURVE",
"569 477 CURVE SMOOTH",
"560 522 OFFCURVE",
"556 586 OFFCURVE",
"556 668 CURVE SMOOTH",
"556 806 OFFCURVE",
"566 919 OFFCURVE",
"611 965 CURVE SMOOTH",
"630 985 OFFCURVE",
"657 995 OFFCURVE",
"692 995 CURVE SMOOTH",
"757 995 OFFCURVE",
"792 958 OFFCURVE",
"808 864 CURVE SMOOTH",
"815 817 OFFCURVE",
"819 751 OFFCURVE",
"819 666 CURVE SMOOTH"
);
}
);
width = 1382;
}
);
note = zero;
unicode = 0030;
},
{
glyphname = one;
lastChange = "2021-04-16 09:15:25 +0000";
layers = (
{
layerId = "246EC62F-25D4-447A-A2A1-FEFF923DA7D2";
paths = (
{
closed = 1;
nodes = (
"737 324 LINE",
"731 1374 LINE",
"69 1208 LINE",
"69 950 LINE",
"233 950 LINE",
"233 324 LINE",
"143 326 LINE",
"143 0 LINE",
"833 0 LINE",
"833 324 LINE"
);
}
);
width = 903;
}
);
note = one;
unicode = 0031;
},
{
glyphname = two;
lastChange = "2021-04-16 09:15:25 +0000";
layers = (
{
layerId = "246EC62F-25D4-447A-A2A1-FEFF923DA7D2";
paths = (
{
closed = 1;
nodes = (
"1251 465 LINE",
"1079 465 LINE",
"1079 348 OFFCURVE",
"995 320 OFFCURVE",
"864 317 CURVE SMOOTH",
"702 317 LINE",
"741 344 LINE SMOOTH",
"890 453 OFFCURVE",
"1003 541 OFFCURVE",
"1098 689 CURVE SMOOTH",
"1145 762 OFFCURVE",
"1169 840 OFFCURVE",
"1169 922 CURVE SMOOTH",
"1169 1097 OFFCURVE",
"1073 1241 OFFCURVE",
"910 1317 CURVE SMOOTH",
"829 1355 OFFCURVE",
"736 1374 OFFCURVE",
"632 1374 CURVE SMOOTH",
"413 1374 OFFCURVE",
"236 1297 OFFCURVE",
"142 1167 CURVE SMOOTH",
"95 1102 OFFCURVE",
"72 1027 OFFCURVE",
"73 944 CURVE",
"68 813 OFFCURVE",
"130 663 OFFCURVE",
"223 582 CURVE",
"448 756 LINE",
"415 788 OFFCURVE",
"386 840 OFFCURVE",
"386 887 CURVE SMOOTH",
"386 968 OFFCURVE",
"435 1028 OFFCURVE",
"520 1028 CURVE SMOOTH",
"596 1028 OFFCURVE",
"659 952 OFFCURVE",
"659 856 CURVE SMOOTH",
"659 708 OFFCURVE",
"596 622 OFFCURVE",
"436 485 CURVE SMOOTH",
"347 412 OFFCURVE",
"239 351 OFFCURVE",
"114 303 CURVE",
"114 0 LINE",
"1257 0 LINE"
);
}
);
width = 1329;
}
);
note = two;
unicode = 0032;
},
{
glyphname = three;
lastChange = "2021-04-16 09:15:25 +0000";
layers = (
{
layerId = "246EC62F-25D4-447A-A2A1-FEFF923DA7D2";
paths = (
{
closed = 1;
nodes = (
"958 -18 OFFCURVE",
"1223 145 OFFCURVE",
"1223 473 CURVE SMOOTH",
"1223 596 OFFCURVE",
"1155 715 OFFCURVE",
"1049 789 CURVE SMOOTH",
"996 826 OFFCURVE",
"937 847 OFFCURVE",
"872 852 CURVE",
"1155 1087 LINE",
"1155 1352 LINE",
"86 1352 LINE",
"86 899 LINE",
"281 897 LINE",
"300 973 OFFCURVE",
"311 1005 OFFCURVE",
"344 1025 CURVE SMOOTH",
"361 1035 OFFCURVE",
"385 1040 OFFCURVE",
"418 1040 CURVE SMOOTH",
"639 1040 LINE",
"639 1030 LINE",
"297 739 LINE",
"297 571 LINE",
"317 571 LINE",
"324 572 OFFCURVE",
"342 576 OFFCURVE",
"369 583 CURVE SMOOTH",
"396 589 OFFCURVE",
"421 592 OFFCURVE",
"444 592 CURVE SMOOTH",
"579 592 OFFCURVE",
"690 543 OFFCURVE",
"690 426 CURVE SMOOTH",
"690 325 OFFCURVE",
"586 279 OFFCURVE",
"469 279 CURVE SMOOTH",
"344 279 OFFCURVE",
"220 327 OFFCURVE",
"98 424 CURVE",
"98 78 LINE",
"213 -2 OFFCURVE",
"356 -18 OFFCURVE",
"573 -18 CURVE SMOOTH"
);
}
);
width = 1296;
}
);
note = three;
unicode = 0033;
},
{
glyphname = four;
lastChange = "2021-04-16 09:15:25 +0000";
layers = (
{
layerId = "246EC62F-25D4-447A-A2A1-FEFF923DA7D2";
paths = (
{
closed = 1;
nodes = (
"1054 289 LINE",
"1054 420 LINE",
"1282 420 LINE",
"1282 678 LINE",
"1054 676 LINE",
"1054 1341 LINE",
"616 1341 LINE",
"65 688 LINE",
"65 420 LINE",
"597 420 LINE",
"597 289 LINE",
"471 289 LINE",
"471 0 LINE",
"1175 0 LINE",
"1175 289 LINE"
);
},
{
closed = 1;
nodes = (
"597 678 LINE",
"409 678 LINE",
"597 911 LINE"
);
}
);
width = 1339;
}
);
note = four;
unicode = 0034;
},
{
glyphname = five;
lastChange = "2021-04-16 09:15:25 +0000";
layers = (
{
layerId = "246EC62F-25D4-447A-A2A1-FEFF923DA7D2";
paths = (
{
closed = 1;
nodes = (
"707 -20 OFFCURVE",
"902 62 OFFCURVE",
"1006 223 CURVE SMOOTH",
"1057 304 OFFCURVE",
"1083 400 OFFCURVE",
"1083 512 CURVE SMOOTH",
"1083 676 OFFCURVE",
"990 811 OFFCURVE",
"846 884 CURVE SMOOTH",
"773 920 OFFCURVE",
"694 938 OFFCURVE",
"608 938 CURVE SMOOTH",
"533 938 OFFCURVE",
"462 933 OFFCURVE",
"397 922 CURVE",
"397 1061 LINE",
"1007 1061 LINE",
"1007 1358 LINE",
"92 1358 LINE",
"92 563 LINE",
"104 553 LINE",
"169 595 OFFCURVE",
"238 616 OFFCURVE",
"311 616 CURVE SMOOTH",
"434 616 OFFCURVE",
"534 551 OFFCURVE",
"534 444 CURVE SMOOTH",
"534 339 OFFCURVE",
"427 281 OFFCURVE",
"315 281 CURVE SMOOTH",
"244 281 OFFCURVE",
"171 303 OFFCURVE",
"94 346 CURVE",
"94 76 LINE",
"92 74 LINE",
"157 11 OFFCURVE",
"324 -20 OFFCURVE",
"459 -20 CURVE SMOOTH"
);
}
);
width = 1157;
}
);
note = five;
unicode = 0035;
},
{
glyphname = six;
lastChange = "2021-04-16 09:15:25 +0000";
layers = (
{
layerId = "246EC62F-25D4-447A-A2A1-FEFF923DA7D2";
paths = (
{
closed = 1;
nodes = (
"944 -18 OFFCURVE",
"1140 100 OFFCURVE",
"1241 272 CURVE SMOOTH",
"1291 358 OFFCURVE",
"1316 448 OFFCURVE",
"1316 543 CURVE SMOOTH",
"1316 710 OFFCURVE",
"1252 859 OFFCURVE",
"1110 949 CURVE SMOOTH",
"1039 994 OFFCURVE",
"950 1019 OFFCURVE",
"843 1024 CURVE",
"888 1085 OFFCURVE",
"987 1193 OFFCURVE",
"1140 1346 CURVE",
"597 1346 LINE",
"338 1086 OFFCURVE",
"229 971 OFFCURVE",
"138 799 CURVE SMOOTH",
"92 713 OFFCURVE",
"69 625 OFFCURVE",
"69 535 CURVE SMOOTH",
"69 302 OFFCURVE",
"197 133 OFFCURVE",
"389 47 CURVE SMOOTH",
"484 4 OFFCURVE",
"587 -18 OFFCURVE",
"696 -18 CURVE SMOOTH"
);
},
{
closed = 1;
nodes = (
"619 330 OFFCURVE",
"581 404 OFFCURVE",
"581 551 CURVE SMOOTH",
"581 701 OFFCURVE",
"619 776 OFFCURVE",
"694 776 CURVE SMOOTH",
"766 776 OFFCURVE",
"802 700 OFFCURVE",
"802 547 CURVE SMOOTH",
"802 399 OFFCURVE",
"767 330 OFFCURVE",
"694 330 CURVE SMOOTH"
);
}
);
width = 1384;
}
);
note = six;
unicode = 0036;
},
{
glyphname = seven;
lastChange = "2021-04-16 09:15:25 +0000";
layers = (
{
layerId = "246EC62F-25D4-447A-A2A1-FEFF923DA7D2";
paths = (
{
closed = 1;
nodes = (
"1214 1067 LINE",
"1214 1337 LINE",
"71 1337 LINE",
"71 879 LINE",
"288 877 LINE",
"288 980 OFFCURVE",
"318 1020 OFFCURVE",
"419 1020 CURVE SMOOTH",
"661 1020 LINE",
"155 0 LINE",
"687 0 LINE"
);
}
);
width = 1282;
}
);
note = seven;
unicode = 0037;
},
{
glyphname = eight;
lastChange = "2021-04-16 09:15:25 +0000";
layers = (
{
layerId = "246EC62F-25D4-447A-A2A1-FEFF923DA7D2";
paths = (
{
closed = 1;
nodes = (
"1022 -18 OFFCURVE",
"1273 104 OFFCURVE",
"1273 375 CURVE SMOOTH",
"1273 546 OFFCURVE",
"1186 664 OFFCURVE",
"1013 729 CURVE",
"1130 773 OFFCURVE",
"1195 878 OFFCURVE",
"1195 1010 CURVE SMOOTH",
"1195 1250 OFFCURVE",
"977 1374 OFFCURVE",
"677 1374 CURVE SMOOTH",
"361 1374 OFFCURVE",
"151 1245 OFFCURVE",
"151 1008 CURVE SMOOTH",
"151 876 OFFCURVE",
"216 771 OFFCURVE",
"333 727 CURVE",
"160 662 OFFCURVE",
"73 544 OFFCURVE",
"73 373 CURVE",
"75 375 LINE",
"75 110 OFFCURVE",
"320 -18 OFFCURVE",
"675 -18 CURVE SMOOTH"
);
},
{
closed = 1;
nodes = (
"619 823 OFFCURVE",
"597 866 OFFCURVE",
"597 975 CURVE SMOOTH",
"597 1079 OFFCURVE",
"620 1120 OFFCURVE",
"677 1120 CURVE SMOOTH",
"732 1120 OFFCURVE",
"757 1079 OFFCURVE",
"757 975 CURVE SMOOTH",
"757 866 OFFCURVE",
"734 823 OFFCURVE",
"679 823 CURVE SMOOTH"
);
},
{
closed = 1;
nodes = (
"644 238 OFFCURVE",
"624 251 OFFCURVE",
"612 276 CURVE SMOOTH",
"599 301 OFFCURVE",
"593 343 OFFCURVE",
"593 403 CURVE SMOOTH",
"593 465 OFFCURVE",
"599 509 OFFCURVE",
"612 536 CURVE SMOOTH",
"624 562 OFFCURVE",
"645 575 OFFCURVE",
"675 575 CURVE SMOOTH",
"702 575 OFFCURVE",
"722 562 OFFCURVE",
"735 536 CURVE SMOOTH",
"747 509 OFFCURVE",
"753 465 OFFCURVE",
"753 403 CURVE SMOOTH",
"753 344 OFFCURVE",
"747 302 OFFCURVE",
"734 277 CURVE SMOOTH",
"721 251 OFFCURVE",
"700 238 OFFCURVE",
"673 238 CURVE SMOOTH"
);
}
);
width = 1345;
}
);
note = eight;
unicode = 0038;
},
